<mxfile host="65bd71144e">
    <diagram id="ttXzB5eIHPZ8ZdlTrWHL" name="Page-1">
        <mxGraphModel dx="1074" dy="517" grid="1" gridSize="10" guides="1" tooltips="1" connect="1" arrows="1" fold="1" page="1" pageScale="1" pageWidth="850" pageHeight="1100" math="0" shadow="0">
            <root>
                <mxCell id="0"/>
                <mxCell id="1" parent="0"/>
                <mxCell id="2" value="" style="shape=image;verticalLabelPosition=bottom;labelBackgroundColor=default;verticalAlign=top;aspect=fixed;imageAspect=0;image=data:image/jpeg,/9j/4AAQSkZJRgABAQAAAQABAAD/4gHYSUNDX1BST0ZJTEUAAQEAAAHIAAAAAAQwAABtbnRyUkdCIFhZWiAH4AABAAEAAAAAAABhY3NwAAAAAAAAAAAAAAAAAAAAAAAAAAAAAAAAAAAAAQAA9tYAAQAAAADTLQAAAAAAAAAAAAAAAAAAAAAAAAAAAAAAAAAAAAAAAAAAAAAAAAAAAAAAAAAAAAAAAAAAAAlkZXNjAAAA8AAAACRyWFlaAAABFAAAABRnWFlaAAABKAAAABRiWFlaAAABPAAAABR3dHB0AAABUAAAABRyVFJDAAABZAAAAChnVFJDAAABZAAAAChiVFJDAAABZAAAAChjcHJ0AAABjAAAADxtbHVjAAAAAAAAAAEAAAAMZW5VUwAAAAgAAAAcAHMAUgBHAEJYWVogAAAAAAAAb6IAADj1AAADkFhZWiAAAAAAAABimQAAt4UAABjaWFlaIAAAAAAAACSgAAAPhAAAts9YWVogAAAAAAAA9tYAAQAAAADTLXBhcmEAAAAAAAQAAAACZmYAAPKnAAANWQAAE9AAAApbAAAAAAAAAABtbHVjAAAAAAAAAAEAAAAMZW5VUwAAACAAAAAcAEcAbwBvAGcAbABlACAASQBuAGMALgAgADIAMAAxADb/2wBDAAMCAgICAgMCAgIDAwMDBAYEBAQEBAgGBgUGCQgKCgkICQkKDA8MCgsOCwkJDRENDg8QEBEQCgwSExIQEw8QEBD/2wBDAQMDAwQDBAgEBAgQCwkLEBAQEBAQEBAQEBAQEBAQEBAQEBAQEBAQEBAQEBAQEBAQEBAQEBAQEBAQEBAQEBAQEBD/wAARCAZ8A4QDASIAAhEBAxEB/8QAHQABAQADAQEBAQEAAAAAAAAAAAcFBggEAwIJAf/EAFEQAAAGAQMDAgMEBAoHBwMCBwABAgMEBQYHERIIEyEUMRUiQRYjMlEJFzhhNUJ0dXZ3srO0tRgkMzQ3cZEmNlJYYoHVQ0RTwcQlOUVVY7Hx/8QAFAEBAAAAAAAAAAAAAAAAAAAAAP/EABQRAQAAAAAAAAAAAAAAAAAAAAD/2gAMAwEAAhEDEQA/AP5tAAAAAAAAAAAAAAAAAAAAAAAAAAAAAAAAAAAAAAAAAAAAAAAAAAAAAAAAAAAAAAAAAAAAAAAAAAAAAAD7wIMq0nxqyC13ZMt5DDKORJ5LUokpLc9iLczLyfgB8AGUyvF73CMnt8MyeD6K4opz9bYRu6hzsyWXDbcRzQZoVspJlukzI9vBmQxYAAAAAAAAAAAAAAAAAAAAAAAAAM4vCcnRhDWo66zbHX7Vykbmd5vzNQyh5TXb5dzw24hXLjx87b7kZDBgAAAAAAAAAAAAAAAAAAAAAAAAAAAAAAAAAAAAAAAAAAAAAAAAAAAAAAAAAAAAAAAAAAAAAAAAAAAAAAAAAAAAAAAAAAAAAAAAAAAAAAAAAAAAAAAAAAAAAAAAAAAAAAAAAAAAAAAAAAAAAAAAAAAAAAAAAAAAACs6A6gYRiOQ19bk+jGPZjKm3EQ40+ynT2HYRc0lshMd5tCvPzfOR+S/LwJMADqDqtz7Sa+6g82xO30dr8dbhag2CbvJaOVLkW0yM3MeRIUlmTI9N3HNzXsSUJ5EREaU7if2MXpCLLqhFTe6wqxdTEk7d2RU1aZ6Hti7BR0Jkm2pBny5mtSTIttiPyI+ACwQovSEeY2SLG91hTihRGDrXWamrOwVJ3PvE8g5JNpbIuPE0qMz87kQUUXpBU1d/aa91hbdTYSCpSgVNWtK4PFPYVJ5yS4vGrnzSjkki47GfkR8AFMbj9NH6szdet9TS1C9Koyjprq/4N6nkexd3v8Af7fHbc+3vv8ATYZLJovSMhFH9jbzV51arWOV38TqqxskVuyu+qN25CuT5Hw4JXxQZct1F4EhABYLGL0hFl1QipvdYVYupiSdu7IqatM9D2xdgo6EyTbUgz5czWpJkW2xH5H0gROjo8ptUWd9rInGyjxjqnGKirOct/5/UE+hUkm0oL7vgaVGZ7q5EWxbxsAFcxuL0krj3h5feautPps5RUZVtVWOIXXePTKkm5ISaXz89xKOSC8cVGMe3H6aP1Zm69b6mlqF6VRlHTXV/wAG9TyPYu73+/2+O259vff6bCZgAr2TRekZCKP7G3mrzq1Wscrv4nVVjZIrdld9UbtyFcnyPhwSvigy5bqLwP1YxekIsuqEVN7rCrF1MSTt3ZFTVpnoe2LsFHQmSbakGfLma1JMi22I/Ij4ALJAidHR5Taos77WRONlHjHVOMVFWc5b/wA/qCfQqSTaUF93wNKjM91ciLYt/PjcXpJXHvDy+81dafTZyioyraqscQuu8emVJNyQk0vn57iUckF44qMSMAFMlR+mgtM0uwrfU09QvStmcd2urypvU8i5kTpP9/t8eWx9vffbcth78skdLdIxSW+mKdRchs4lrGfsqvLoMOJXS4SSUp1ruQ5CniNSiQnxx+RSzJRKIhJAAdoSdZdKC6S669PpbwpVcvUWZETUHb2/YQ8VZGUckl+q7nM0qJBpNXDZJGRb7mfHNrLjT7SZOhVzNfHkPuOtRGVKU3HQpRmltJrM1GlJGREajM9i8mZjygAAAAAAAAAAAAAAAAAAAAAAAAAAAAAAAAAAAAAAAAAAAAAAAAAAAAAAAAAAAAAAAAAAAAAAAAAAAAAAAAAAAAAAAAAAAAAAAAAAAAAAAAAAAAAAAAAAAAAAAAAAAAAAAAAAAAAAAAAAAAAAAAAAAAAAAAAAAAACoaO6XY/qFiWqd9dTLBmRhGJnfV6YriEodkesjs8XiUhRqRxeUeyTSe5F523I9OwHCMh1IzKowbFaubYWdxJTHZYhxVyHdvda+2gjUaUIJS1beyUqM9iIzFh6Yv8Ahv1Cf1cH/mcISrSeVJh6o4jIiSHWHSvIJEttZpURG+gjLcvPkjMj/cYC5dQfTngej2WZriFVp9rTITjNSTkS6mw2SgyJCZKWlTlmUcuMBRGpCFEozNzj8578RFKrRfWK+Whuj0nzKxU5AZtUFEopTxqhPEZtSS4oPdpZJVxc/CrY9jPYdiZzNmS9QeuBuVLeeTHr3G2UuOGom0fGGPlTv7F+4honUvqFmlDK6aqmiyWwrYlbphi9mw1EkKaIpaluJN4+Jluvi02nc/YkkX5gOWqDD8tyu6LGsXxe3uLczURV8CE7Ik7p/F90hJq8fXx4HqttPM/oMmjYXe4NkFbkMxxpmNUy6x9ma844ri2lDCkktRqV4SRFuZ+CHdOqtNEwzVjqn1RtM0yqgxSNfV1NYVWIHHjWNtIln3iSct1C/SsktClLNKTNw1cTI/Y/nbyKq9wjo+yetq8sYjOalvMV7mVWrdlYHE+IQz29QhlkjaNaVGhPDwXsZkYDiWXpJqtAoZmVTtMssj0te85Gl2TtLJRFjutrNC23HTRwQpKyNJpMyMjIyPyPNiGnGoeoKpSMCwLIslVCSS5JVFW/MNhJ77GvtJVxLwfk/wAh2Zptm2V5T+kF1Tor2+my6qcWcUz0Bx5RxlQWY0wmo/b348Ek03sW38Xf3E21GyTJ8D6OdAVacX9nSQLqZkk+8fq5Tkc5Ns1NS20b6mzIzWhhLZI3/i7mQDm6rxXKLy+TitLjdpYXS3VMJrYsNx2UpxO/JBNJI1motj3LbctjH3y3Bc2wGxTUZ3h15jk9aO4mLb170N5SPbkSHUpUZfv2Hb2luQZW3h3Ujqhr7Q5O1nyabFisPs+8xTXXwmQ4ZOPIc7KyQTiERVPK4clILdRlyMxHdYNYMWzPpsqsLxjTjUg6ity1UquyjK7pFoiK6cUykVzDyIzRJJZG08bXI/KeW3kBzQKo5016qo0LY19+yd0rH37N2H8tVIMkRUMoX65TnHiUY1L7ZOGfE1oUW+5CVjpTIrS0T+j+wxlNjKJpWpNvHWgnlcTbKBGMkGW+3Hfc9vYBEcg0w1KxODIs8q09yWmhxJqK2RIsKl+M21LU33Ux1qcQRJdNv5yQfzGnztt5H1v9JdVcTo2snynTPK6amkGkmrGwpZMeM4avw8XVoJB7/TY/I7D6ji1C1c/SMVukVRnD9NHjW1EmpNwiei1zqYDElcko6vu3Hea3V/MXzGokmexjO6W5hhuosvqMh0UnV7I1I06yaRbWmWX0Z+vkPoQamnPQtxkkw93EcmiJ0zQSFkRbEewcM4pplqTnkWXOwfT3JcijQP8Ae3qmpkS0R/G/3imkKJHjz52G6YdpJQX3T1qbqvZyrNm7wq2o4EKMhaEx1pmOPpe7yFINZqT2k8dlJ2Pfcj+lU1vy7NtO9FunGLpXklxR0krGH7cnKmU4wmTenPcKUtZtmXcdQZNJLluaS2ItiPYVbSIqe5wzX+w60Uz8eQ7mWHzcqiwKxLL7rylyFE2bTOxNEvklTik/NxNZl85kA4Tl4dl1fX09tPxa3jQch5/CJL0F1DVjwWSF+nWadntlGST4Gexnt7jI5bpZqdgMSNPzvTnKMcizT2jP21PIhtvntvshTqEkrx58DuDTWtzI+v60Z1UZYnzabE7SXgMei4NQ1wm4S1VvwklJW2hBMGtTR8V8XEmpXJaVCWI15wSfpJqniuK6cayZJEvqts7STkmUNW8KoklIQcee4SIaDbcJ3ZPM1ly5mk9zMtg5vk6Y6kw6V7JZmnuSsVEaFFsnp7tS+iM3Ekq4xn1OmjiTbp+ELM+Kz/CZja+nHS7H9X9R3cQyWZYRoaKG5tCXBcQh3uxID0hst1oWXE1tJJRbbmRnsZH5KrdZWaZO3iGhODRrqZHoj0hx6c9AaeUhmRIX3Em44kj2WZJYaIuW+3AtthrPQ5/xxkf0Pyj/ACeUA5/AAAAAAAAAAAAAAAAAAAAAAAAAAAAAAAAAAAAAAAAAAAAAAAAAAAAAAAAAAAAAAAAAAAAAAAAAAAAAAAAAAAAAAAAAAAAAAAAAAAAAAAAAAAAAAAAAAAAAAAAAAAAAAAAAAAAAAAAAAAAAAAAAAAAAAAAAAAAFg0Jz7EsNwnWOoyS29HLyrCjqKhvsOuepl+viu9vdCTJHyNLPks0p8bb7mRHKKuym0tnEuK1/szIL7cmO5xJXBxCiUlWyiMj2MiPYyMh5gAb5M1z1TsLHObaXlPclakoNvKHPQxi9ek3kvGWxN7NfeJSr7oke23t4GJyvUrNc3fx2TlF161zFKiJQ1CvTMt+mgxjUbDXyJLnxNavmXyUe/kzGsgAq0Hqm13r8wynO2M5JdtmxtqyDv1cJ+LYm3/szciOMqjmaf4pk2Rp3Pbbc9/8Af9KjXxURUGTqE/LZO+i5M2UyDFkqYsY5tGy6ypxpRspT2GU9ts0tmlBJNJp8CUAA3Sl1l1Jx3Uay1ap8k9Pldu5YOzLD0cdfdXNS4mUfaUg208ydcLwkuPL5dti2yemnUTrJpDUSsfwHM1QqqXJKY5AkwY06MmSRcSfQ1JbcQ27sRFzQRK2IvPghOAAb7Ra9axY5qFYaq1OoNqjKrcnEWNi6sn1TW3Nubb6HCUh1s+KfkWk0/Knx4LbM2mpOf9RV7UY5qnq3TUlXWtvnCdsIZwqmCZlyVxjV0YyStZkRcktbme257EJSKhi+l2P3fTznWrUqZYIt8YvqariMNuIKMtqWmSbhuJNBqNRdhHEyURFue5H42DLf6P8Agn/my0i/6Xv/AMaMEvVbUPTvF8l0OxnUOvt8LsZzjslMWEh+JLdNBNnIjrlME+yakESeSSbUZEW4/wA6b9NqLWDXTC9Mcmlz41XkdoiFKeguIRIQgyMzNClpWkj8fVJl+4T6wjoiT5MVs1Ghl5baTV7mRKMi3AbXkmsOpWWal/riusrkKzIpEaWm2jttxXUPR20NsrSllKUJNKWmy8JLfjue5mZnujvWL1HO5FFylOo3YnRTkK4x6iAzGfW+2bby5EZDJMyFqQpRGp1C1bGfkRkAFWwjqm1506rpFRiGeHEgSJzlmmK7Ww5LMaWs91PRkPNLKMoz87skgay7q9qRJoMrxmZlcmXAzifHtMgKUht52fKYWtbTq3lpN0lEp1ZnxUXLl82/gaeADela5arqiYZETmktpWnvMsalMttNy65Kl8zQiSlJPKQSvwoWtSUkZkkiIzIZbUDqa1v1Qx9/Fcyzbv1MyQmXMiQq2JXomvJPdLkj0rTZyFEfkjc5Hv59/Il4ANizPUPMNQSoiy+39f8AZqljY9V/6u016evj8uyz92lPPjzV8yt1Hv5M/A37pVz7EtNtVXskzS2+HVy8bvoBPdh17d+RWvsso4tpUr5nHEJ322LfczItzEfAAAAAAAAAAAAAAAAAAAAAAAAAAAAAAAAAAAAAAAAAAAAAAAAAAAAAAAAAAAAAAAAAAAAAAAAAAAAAAAAAAAAAAAAAAAAAAAAAAAAAAAAAAAAAAAAAAAAAAAAAAAAAAAAAAAAAAAAAAAAAAAAAAAAAAAAAAAAAAAAAAAAAAAAAAAAHQGn/AOxRq7/TDFv7ucOfxYMPz7Eqvpe1G06n23ayG+ySgn18PsOq7zEZEsnl9wkmhPE3W/ClEZ8vBHsewZToZ/a50s/n9r+yoRe6/hif/KXf7Zil9KWcYvpr1F4Dnea2nw6ipbduVOldhx7stElRGrg2lS1e5eEpMxMbN5uRZS5DKuTbr7i0HttuRqMyMB5gAAAAAAAAAAAAAAAAAAAAAAAAAAAAAAAAAAAAAAAAAAAAAAAAAAAAAAAAAAAAAAAAAAAAAAAAAAAAAAAAAAAAAAAAAAAAAAAAAAAAAAAAAAAAAAAAAAAAAAAAAAAAAAAAAAAAAAAAAAAAAAAAAAAAAAAAAAAAAAAAAAAAAAAAAB94EGVaT41ZBa7smW8hhlHIk8lqUSUluexFuZl5PwPgKzoDqBhGI5DX1uT6MY9mMqbcRDjT7KdPYdhFzSWyEx3m0K8/N85H5L8vACdZXi97hGT2+GZPB9FcUU5+tsI3dQ52ZLLhtuI5oM0K2Uky3SZke3gzIYsdQdVufaTX3UHm2J2+jtfjrcLUGwTd5LRypci2mRm5jyJCksyZHpu45ua9iShPIiIjSncT+xi9IRZdUIqb3WFWLqYknbuyKmrTPQ9sXYKOhMk21IM+XM1qSZFtsR+QEfAWCFF6QjzGyRY3usKcUKIwda6zU1Z2CpO594nkHJJtLZFx4mlRmfnciCii9IKmrv7TXusLbqbCQVKUCpq1pXB4p7CpPOSXF41c+aUckkXHYz8gI+Apjcfpo/Vmbr1vqaWoXpVGUdNdX/BvU8j2Lu9/v9vjtufb33+mwyWTRekZCKP7G3mrzq1Wscrv4nVVjZIrdld9UbtyFcnyPhwSvigy5bqLwAkICwWMXpCLLqhFTe6wqxdTEk7d2RU1aZ6Hti7BR0Jkm2pBny5mtSTIttiPyPpAidHR5Taos77WRONlHjHVOMVFWc5b/wA/qCfQqSTaUF93wNKjM91ciLYtwjYCuY3F6SVx7w8vvNXWn02coqMq2qrHELrvHplSTckJNL5+e4lHJBeOKjGPbj9NH6szdet9TS1C9Koyjprq/wCDep5HsXd7/f7fHbc+3vv9NgEzAV7JovSMhFH9jbzV51arWOV38TqqxskVuyu+qN25CuT5Hw4JXxQZct1F4H6sYvSEWXVCKm91hVi6mJJ27sipq0z0PbF2CjoTJNtSDPlzNakmRbbEfkBHwFkgROjo8ptUWd9rInGyjxjqnGKirOct/wCf1BPoVJJtKC+74GlRme6uRFsW/nxuL0krj3h5feautPps5RUZVtVWOIXXePTKkm5ISaXz89xKOSC8cVGAkYCmSo/TQWmaXYVvqaeoXpWzOO7XV5U3qeRcyJ0n+/2+PLY+3vvtuWw9+WSOlukYpLfTFOouQ2cS1jP2VXl0GHErpcJJKU613IchTxGpRIT44/IpZkolEQDQF4Tk6MIa1HXWbY6/auUjczvN+ZqGUPKa7fLueG3EK5cePnbfcjIYMdoSdZdKC6S669PpbwpVcvUWZETUHb2/YQ8VZGUckl+q7nM0qJBpNXDZJGRb7mfHNrLjT7SZOhVzNfHkPuOtRGVKU3HQpRmltJrM1GlJGREajM9i8mZgPKAAAAAAAAAAAAAAAAAAAAAAAAAAAAAAAAAAAAAAAAAAAAAAAAAAAAAAAAAAAAAAAAAAAAAAAAAAAAAAAAAAAAAAAAAAAAAAAAAAAAAAAAAAAAAAAAAAAAAAAAAAAAAAAAAAAAAAAAAAAAAAAAAAAAAAAAAAAAAAAAAAAAAAAAAAAAAAKhrppdj+mMfTd2hmWEg8wwOtymd6xxCyblyHX0rQ1wQnZsiZTsSuSvJ7qPxtLwAAAAAAAAAAAAAAAAAAAAAAAAAAAAAAAAAAAAAAAAAAAAAAAAAAAAAAAAAAAAAAAAAAAAAAAAAAAAAAAAAAAAAAAAAAAAAAAAAAAAAAAAAAAAAAAAAAAAAAAAAAAAAAAAAAAAAAAAAAAAAAAAAAAAAAAAAAAAAAAAAAAAAAAAAAAAAAAAAAAAAAAAAAAdA9XP8Auehf9T1D/fzBz8LB1F59iWdxtKG8UtvXKxrTapoLQuw616eey9JU6194lPPYnEHyTuk9/BnsYj4AAAAAAAAAAAAAAAAAAAAAAAAAAAAAAAAAAAAAAAAAAAAAAAAAAAAAAAAAAAAAAAAAAAAAAAAAAAAAAAAAAAAAAAAAAAAAAAAAAAAAAAAAAAAAAAAAAAAAAAAAAAAAAAAAAAAAAAAAAAAAAAAAAAAAAAAAAAAAAAAAAAAAAAAAM7g9/SYvlEK8yLDa/K6+N3O9UT332WJPJtSU8lsLQ4XFSiWXFReUkR7luRh/lzhOT4/jmPZbb1nYqcqakvVEjvNr9Shh5TLp8UqNSOLiVJ+ck77bluXkYMdl6t6waWM6B6NTHemPDX2LWsvvRRVW1sSKvjaPIV2jKSSl8lEbh9w1bKPYti8CANx+mj9WZuvW+ppahelUZR011f8ABvU8j2Lu9/v9vjtufb33+mwCZgK9dRekZMGkPHbzV5cxU+IV2U2qrENIhf8A3JxjRIM1Ol/9MlklJ/xjIfqxi9IRZdUIqb3WFWLqYknbuyKmrTPQ9sXYKOhMk21IM+XM1qSZFtsR+QEfAWSBE6Ojym1RZ32sicbKPGOqcYqKs5y3/n9QT6FSSbSgvu+BpUZnurkRbFv58bi9JK494eX3mrrT6bOUVGVbVVjiF13j0ypJuSEml8/PcSjkgvHFRgJGApjcfpo/Vmbr1vqaWoXpVGUdNdX/AAb1PI9i7vf7/b47bn299/psMlk0XpGQij+xt5q86tVrHK7+J1VY2SK3ZXfVG7chXJ8j4cEr4oMuW6i8AJCAsFjF6Qiy6oRU3usKsXUxJO3dkVNWmeh7YuwUdCZJtqQZ8uZrUkyLbYj8j6QInR0eU2qLO+1kTjZR4x1TjFRVnOW/8/qCfQqSTaUF93wNKjM91ciLYtwjYCuY3F6SVx7w8vvNXWn02coqMq2qrHELrvHplSTckJNL5+e4lHJBeOKjGPbj9NH6szdet9TS1C9Koyjprq/4N6nkexd3v9/t8dtz7e+/02ATMBXsmi9IyEUf2NvNXnVqtY5XfxOqrGyRW7K76o3bkK5PkfDglfFBly3UXgfqxi9IRZdUIqb3WFWLqYknbuyKmrTPQ9sXYKOhMk21IM+XM1qSZFtsR+QEfAWSBE6Ojym1RZ32sicbKPGOqcYqKs5y3/n9QT6FSSbSgvu+BpUZnurkRbFv58bi9JK494eX3mrrT6bOUVGVbVVjiF13j0ypJuSEml8/PcSjkgvHFRgJGApkqP00Fpml2Fb6mnqF6Vszju11eVN6nkXMidJ/v9vjy2Pt777blsMlk0XpGQij+xt5q86tVrHK7+J1VY2SK3ZXfVG7chXJ8j4cEr4oMuW6i8AJCAskyJ0dFldaivvtZFY0cWQdk49UVZTkyd0dgmUFJNtTZl3OZqURlsnYj3Pbyw820HwTL7hWM6WPaiYzLZjpgfbZ16BMiuJSZunxrpJIMlKPYt1K8JT7GZgNBzbCcn06yWVh+ZVnw+3hIZW/H7zbvBLrSHWz5NqUk923EH4PxvsexkZDBjrLro1FwOZqlluIRND8bhXa49OpOTNWFgqYgvRRHNiaU+bH4PuvLf4fP4vmHJoAAAAAAAAAAAAAAAAAAAAAAAAAAAAAAAAAAAAAAAAAAAAAAAAAAAAAAAAAAAAAAAAAAAAAAAAAAAAAAAAAAAAAAAAAAAAAAAAAAAAAAAAAAAAAAAAAAAAAAAAAAAAAAAAAAAAAAAAAAAAAAAAAAAAAAAAAAAAAAAAAAAAAAAAAKhi+l2P3fTznWrUqZYIt8YvqariMNuIKMtqWmSbhuJNBqNRdhHEyURFue5H42CXgKR036bUWsGumF6Y5NLnxqvI7REKU9BcQiQhBkZmaFLStJH4+qTL9wn1hHREnyYrZqNDLy20mr3MiUZFuA+AAAAAAAAAAAAAAAAAAAAAAAAAAAAAAAAAAAAAAAAAAAAAAAAAAAAAAAAAAAAAAAAAAAAAAAAAAAAAAAAAAAAAAAAAAAAAAAAAAAAAAAAAAAAAAAAAAAAAAAAAAAAAAAAAAAAAAAAAAAAAAAAAAAAAAAAAAAAAAAAAAAAAAAAAAAAAAAAAAAAAAAAOgNP8A9ijV3+mGLf3c4c/iwYfn2JVfS9qNp1Ptu1kN9klBPr4fYdV3mIyJZPL7hJNCeJut+FKIz5eCPY9gynQz+1zpZ/P7X9lQi91/DE/+Uu/2zFL6Us4xfTXqLwHO81tPh1FS27cqdK7Dj3ZaJKiNXBtKlq9y8JSZiY2bzciylyGVcm3X3FoPbbcjUZkYDzAAAAAAAAAAAAAAAAAAAAAAAAAAAAAAAAAAAAAAAAAAAAAAAAAAAAAAAAAAAAAAAAAAAAAAAAAAAAAAAAAAAAAAAAAAAAAAAAAAAAAAAAAAAAAAAAAAAAAAAAAAAAAAAAAAAAAAAAAAAAAAAAzmOYTk+W19/a4/Weqi4vXfFrVzvNo9PE7zTPc2WojX9480nigjV82+2xGZYMdi9O+rWmStNdWWE9NuIIcptPml2DpWlryuEpsq9tSHi9TsglLUl0+1wPkgiLZJmRhx0ArlXkHTfmeX2lxqNieS4JTKjMIrqzBG0T0k8ncnFOKsZPMiMtj8KPzv4Ih9MXi9IS5F2WaXusDTCbN0qU6upq3Frr+Ke2qSTklJJf5c+SUckbcdjPyAj4Cmtx+mj9WZuu2+ppahelUZR011f8G9TyPiXd7/AH+3x23Pt777+Nh7chi9JyaumPE7vVpyxVOiFcpsautQwiGf+8nHNuQpSnS/+mSySk/4xkAkoCyWUTo6LJ6VFPfayKx1Tcv405JqKtM1DnFHpvTITJNCiNXc7nNSTIiTx33Pb5wovSEeY2SLG91hTihRGDrXWamrOwVJ3PvE8g5JNpbIuPE0qMz87kQCPjOYbhOT6gXSsexGs9fYIhy7A2e821tHjMLffXycUlPytNLVtvue2xEZmRHRMXi9IS5F2WaXusDTCbN0qU6upq3Frr+Ke2qSTklJJf5c+SUckbcdjPyKv0V6lafRsvYxd/QbGJNtExTJnH8gcsbEpUtCKqY4tC20vkykloI2jNKCMkmZkZK+YByQArbmY6A53mkKTmGm07TzGY8J1t5nBluT5MiTyI21qKykmki23I+Ky9i8GPrWRekI8tu0XN7rAjGEtRfgrkWpq1T1ucVeo9ShUkm0pJXHhwUozLflt4AR8BXKiL0kqrLs7+81dRYpmzCpEw6qsUyuGRn6Q5JrkEpLplt3CQSkke/E1DHyo/TQWmaXYVvqaeoXpWzOO7XV5U3qeRcyJ0n+/wBvjy2Pt777blsAmYCxX8Xo/T8E+y19rE5ysmSuviFTVo4QOC+6qNwknye59vilfFJpNW5kZER/mXF6QizOA3BvdYTxM4Txz3XamrKxTL5F2iaQUk2ja48uRqUSiPbYjAR8ZzN8JyfTjK7HCMzrPh11UukzMi95t7tLNJK25tqUhXhRH4M/cUKFnWgmB5RdoxnSZzUXHJiIvw5zNnn4E6GtCFd7ZFdJJsyWpRfiUrw2nbYzVvUOvHULBp+s+oGHw9Fcdr7xuzZ55OzPnqmOcW21Hu0t42C5F8p7N+3tsfkByiM5lOE5PhaKZzJqz0achqmbutPvNud+E6paW3fkUfHc21/KrZRbeSLch7NOsrxrDr9VtlWnVTmsJUdbJVtnKlMMpWZpMneUZxtfIiIyIuW3zHuXsOmOqTVXTY8Z09rC6dsTTLudMK9yvsPidn3adLq5SW0MJ9RwWTSiNaTdJZmZ7K5F4AcfgKlcRul1ODQXKC51SXmRtw/XMzKyuTWJWZo9V2nEPm6ZEXc7fJBbmSeXHc9sldROjpN1Rpx6+1kXUKkOleLm1FWiShjtK7Zxkokmla+7wJRLNJEjkZGZ7EAjYCwFF6Qvt0bZ3usH2N+EkonvhNX8T+J94909v1Pa9P2dj5c+fPcuO3kKKL0hKvr9OTXusLdKl9kqFcCpq1ynGe2XdOUlckkIX3N+JNmojT5MyPwAj4CqwY3SyeD2LlldaqpzEm53w9lisrjrFLJTno+84qQTqSNPa7vFBmRmvjy2Lf8AFxG6XU4NBcoLnVJeZG3D9czMrK5NYlZmj1XacQ+bpkRdzt8kFuZJ5cdz2CWgLJdROjpN1Rpx6+1kXUKkOleLm1FWiShjtK7Zxkokmla+7wJRLNJEjkZGZ7EPM9lPT1g2dFZYJgVvqFjL1T2HIWeb17rM43tzdb+GyfKSbShJcl+7jm6fCTAaBleE5Pg7tWxlFZ6JdzVRLuCXebc7sKSjmy78ij48k+eKtlF9SIxgx171aao6cuwMOpW+nzFWp9tpnj70G1TZWRv1SHYhG20yg5HbWlovCTcSoz/jGoRy0i9JxUFOqku9Wl3apEIrhEqrrUxUMGafVnHUmQa1LIuXaJZJIz25GnyAkoCwW8XpCTlWPoob3WBeNqKX8fcl1NWmc2ZNp9L6RCZJtr3c5dzuKTsnbjue5AxF6QjzaU3JvdYSxAq5s4zqKmrOyOdzPmlbZye0TPDjsolGrlvuRF5AR8BZMeidHSpd0WV32sjcVNgoqY6+oq1uLg9tHFUknJKSS9z7m5INSeJJ87mZFiK2P00Hpmt23t9TU6helfNEeNXV6qb1PJXZI3VPk/2zT2+Z9vcj5bEZbbhMgFayGL0nJq6Y8Tu9WnLFU6IVymxq61DCIZ/7ycc25ClKdL/6ZLJKT/jGQ+1vF6Qk5Vj6KG91gXjail/H3JdTVpnNmTafS+kQmSba93OXc7ik7J247nuQCPjOZnhOT6e3ysZy+s9BZIixJpsd5t3ZmTHbkMK5NqUn5mnW1bb7ly2MiMjIqEWZdPeCZhKfwzTSfqJjkmC0hDWdKcr5MaUS1G4pBVskkmk08CLko/r4LwYq/W3qVgErO7TFY+hGMxbiTjmNOM5E3Y2Jy46V1MF1KEtqfNkyQ2ZMkakGZpIjPdXzAOShnL7Ccnxilx7Ibys9NX5VDcsKh7vNr9THbfcYWvilRqRs6y4nZZJP5dyLYyM/pgeR0OKZLHuslwety6AyhxLlVYyJDLDpqSZJUa460OEaTMlFsovJedyHU+uerul7ejejyl9NOHuFcYjZKgJO1tSKoL4tNb4s7SfnLmk3fvefzLMvw7EQccAKZKj9NBaZpdhW+pp6helbM47tdXlTep5FzInSf7/b48tj7e++25bDLX8Xo/T8E+y19rE5ysmSuviFTVo4QOC+6qNwknye59vilfFJpNW5kZERhHQFglxekIszgNwb3WE8TOE8c912pqysUy+RdomkFJNo2uPLkalEoj22IwrIvSEeW3aLm91gRjCWovwVyLU1ap63OKvUepQqSTaUkrjw4KUZlvy28AI+ArlRF6SVVl2d/eauosUzZhUiYdVWKZXDIz9Ick1yCUl0y27hIJSSPfiahj5UfpoLTNLsK31NPUL0rZnHdrq8qb1PIuZE6T/f7fHlsfb3323LYBMwFiv4vR+n4J9lr7WJzlZMldfEKmrRwgcF91UbhJPk9z7fFK+KTSatzIyIj/MuL0hFmcBuDe6wniZwnjnuu1NWVimXyLtE0gpJtG1x5cjUolEe2xGAj4CyVkTo6PJbtFzfayIx9KYvwRyLUVapi1cFep9SlUkkJIl8OHBSty35bHsPJQRulFVJbqym71Zbt0y5ZVCK+rrVxlxS/wB1OQpcglJcPx3CQRkX8UzAaFiOE5PnUyfAxWs9c/WVcy5lI7zbXbhxGVPSHN1qSR8W0KVxLdR7bERn4GDHXXSBqfp2w7kNC9oBiz9jW6c5O9MuV2VkUiybarH1uNOoKR2kpdSRoUbaUmRHuk0n5HOepWY4rmlvGsMS0vpcGjMRiZchVcuXIbec5KPuqVKdcUStjJOxGRbJLxvuA1EAAAAAAAAAAAAAAAAAAAAAAAAAAAAAAAAAAAAAAAAAAAAAAAAAAAAAAAAAAAAAAAAAAAAAAAAAAAAAAAAAAAAAAAAAAAAAAAAAAAAAAAAAAAAAAAAAAAAAAAAAAAABUNDdLsf1MhalyL6ZYMKwzA7DKIBRHEJJyWxIjNoQ7yQrdsyfXuSeKtyTsovJGEvABtdlpJqrT40jNLfTLLIOPOJStFtJpZLUNSVbcTJ9SCQZHuW3nzuQDVAG1UGlGqWVtVz+Laa5VcN3BSDrl19NJkJmEwpKXzZNCD7nbUtBL478TWkj23IeJvAs6dvp2LNYXeruqtp5+dWprnjlRWmk83VutceaEoSXJRqIiSXk9iAYIBsuS6Y6lYZVQr3MNPcmoq2x2KHMsqmRFYk7luXbccQSV+PPgz8DY+m/Tai1g10wvTHJpc+NV5HaIhSnoLiESEIMjMzQpaVpI/H1SZfuATcB97COiJPkxWzUaGXltpNXuZEoyLcUnXTS7H9MY+m7tDMsJB5hgdblM71jiFk3LkOvpWhrghOzZEynYlcleT3UfjYJeAqmC9NequoelGT6vYzid1NqcbfisEmNVSHzndw3O8plSEmSksJb5On7IJaN9txqmK6U6o51XybfCNN8pyGDDM0yZVVTyJbTJkW5ktbSFEnx58mA1YBmMcw3MMwufs7iOKXF3bbKP0FdBdkyNknsr7ttJq8H7+PA3XT7p01YzzV6n0XVhV9TX1nIZTJasKmQ2uvircSlct9s0ktLKCVuajIi8bb7mAmQDeJeiGrzGcWGnMfTHLZeRVp8nqxmjlKlk0f4HTYJHcJCiNKiMy2MlEZe41jIMbyLErV6hyqgsaazjbE9CsIrkd9vcty5NuESi8fmQDHAKhi+l2P3fTznWrUqZYIt8YvqariMNuIKMtqWmSbhuJNBqNRdhHEyURFue5H428/TfptRawa6YXpjk0ufGq8jtEQpT0FxCJCEGRmZoUtK0kfj6pMv3AJuA+9hHREnyYrZqNDLy20mr3MiUZFuOjr3pn0JwLHsFsNT+pa2orTOMUr8sZgxcCXObjR5XMkoN5MxPI0qbcLfgRmREexb7AOagF9vemyuwbUnAYkqbe6mYHqBFXY0s3BoZptLOOjmlxpqM+hZtyG3ElzQpKti3877kUpo9MNSMsRHk4lp3lFxHnS3YUNyDUvyCffbSS3GUG2gyU4lCkqUkvJEZGZERgNYAWnp+6ZM01e1+qNF8jxvJqH/AFgl36lVTqZFVEJPJTjqFp+55fKhKnCJPJxHvuRH+tTtLMPxlu4bq9MNY8cciZPBrGHsriNNsRorsTuKZlGTDZpmOK2dbSWxdk99lH8wCKAK/r9oeWAdR2VaIaYV9/kKKiwKHXMG16ufILtIWe6WG081fMf4UF4L2E7y3Bc2wGxTUZ3h15jk9aO4mLb170N5SPbkSHUpUZfv2AYQBUOnzS7H9WMkyWnyKZYR2abDrzIWFQnEIUqTCiLeaSo1oURtmpJEoiIjMvYyPyJeAAAAAAAAAAAAAAAAAAAAAAAAAAAAAAAAAAAAAAAAAAAAAAAAAAAAAAAAAAAAAAAAAAAAAAAAAAAAAAAAAAAAAAAAAAAAAAAAAAAAAAAAAAAAAAAAAAAAAAAAAAAAAAAAAAAAAAAAAAAAAAAAA6A6Sf4L15/qeuv8ZAHP4sHTtn2JYLA1bZyq29CvJ9N7Ogqi7DrvqJ7smIttr5Eq4bpacPkrZJcfJluW4aTpPidlnmqOIYTTz2IM+/vYFbGlSGycbYdefQhLikH4USTURmn67bfUd/6SZNi+W9SmpWEtXGsGY2sWhySuyS1v7uKVRLQzGdZWa6xqN922bpJJtPeLiZo8eDSP5u19hOqZ8a1q5j0SZDeRIjyGVmhxl1CiUlaVF5SojIjIy9jIWCT1j9SUrIK3KT1MeYtKuUc5qRFrIUfvyDaW0bslLbKUyldtxxG75LPZai/jHuFHz/IsypP0f+i8egsJ8KqmZRkZWDsVxTZKeQ6g2ELUnbwf3yiSfgzRv7pLbojAJd/K1/0bydaHJmc2XT3IlzFPJ7j8yQUaUmK49y3NxxaEtkZq3NREnfcc3XXVtfU+g+nFVgubx28wjXOTTsorjo2VwuMuSw7HUqO6wcNW5ocNJNpPt+SIkb7HiNBeo6Y3rvkGr2tuoE5dlZ4ndVzdo404tz1TsFbUVtCWEH2i5cUp4pShH/pLyAy+g2RZPl/T/wBScbPLyytaZrHoFmpdjJW+Tdx8QbKO4SlmfF1Zm4kzLyoi2PfYad0M/tc6Wfz+1/ZUNXzrqU1s1JxT7EZjnDkukVJTMfisQYsT1chJfK7JWw2hclZe/J01nv5338j19KWcYvpr1F4Dnea2nw6ipbduVOldhx7stElRGrg2lS1e5eEpMwE0uv4Yn/yl3+2YuvVz/uehf9T1D/fzBB7N5uRZS5DKuTbr7i0HttuRqMyMVfqLz7Es7jaUN4pbeuVjWm1TQWhdh1r089l6Sp1r7xKeexOIPkndJ7+DPYwG6aWWlpF6HtaUxLGUylrJ8YSkm3lJJKVnKJRFsfglbFv+YsGsmd6W6YYZoLWSYGq7UROndRbVT+H5axVQTmumtctztHFcM5Xf5G4rlv5QWxbeeQtOta9TdKK6+p8DyUq+Bk7LbFtEdhR5bMpLZqNszQ+2tJKSa1cVpIlFyPYyGcwTqg1002xuLiOJZ0bNRXvLkQI0ytiTygOqPdS4ypLTio5mr5jNo0+TM/fyA6Hu+oKub1F1wsc40U1JwbGdQvgkS/mUxlHuKGwYRzSa1rabaP1aiccW0rt9zfcj8bjY9Kqa/i669M+Z0Wtlxn+n9teT66gdt4SodlXKbWlUqG+RqWbiOS2zSZOKR4VsSfryJiPUHrLg+Q3uU4/nk74jlCud2qc21Pas1cjUSpDMlLjbqiUpRka0mZbnttuY+mQ9ROtGU5dj2cXGeS1W+JOJeolxmGYrFaslkvdiOyhLLe6kkaiJBErYuW4Cv6dav1+N4lqZh+qdXqJFxPLMoY55lirvGVFnRu8bcN1Tuzb7ZtrNfZNxKi48i39y1XqlxzIoVZpxlrmrszUbD76jkIxS1sYJxbBiNHlOIeiSELNSzNt1SiSZrWkyP5TJOxDBxurbqAiZDdZMznTPqsi7R2sdVLXrgy1N78FrhqYOMay3P5+3y8n58jS9RtVdQdW7hi81DyaRbyokdMSKSkNtMxWEmZk0yy0lLbSNzM+KEkW5mYCq6f8A7FGrv9MMW/u5w8fQz+1zpZ/P7X9lQxeH59iVX0vajadT7btZDfZJQT6+H2HVd5iMiWTy+4STQnibrfhSiM+Xgj2PbzdKWcYvpr1F4Dnea2nw6ipbduVOldhx7stElRGrg2lS1e5eEpMwE0uv4Yn/AMpd/tmO0eomX02x8a0FLWKg1Jn3P6nMdUwrG7aBFi+l5SeKVpkR3Fm5z7m5koi4mnYiMjM+K7N5uRZS5DKuTbr7i0HttuRqMyMZvNdR8z1ETj6MxufiBYtRxscqS9O016aujms2Wfu0p58TcX86+Sz38qPYgHW/TzrdW6q9YOguK4fiB4thWBqkVdDWOTDlyNnGn3X5D7xpTzddcPkfFJJLYiIvcz1iVfZfRfo62TxubNhQ5urk6NZPxFqbUpv4eytDS1J88FLQSjSfg1No+pEOa9P8/wAt0tzGrz/BLb4ZfUzpvwZfYae7SzSaTPg6lSFfKoy+ZJ+4uOL9SUjTvpYp8NwTM/R5mnO7G0sa9yuKQw9WvQo6Em6h9pUZ5JvNb9tXIyUhKuJbEYDpXReztrHVjopyHIp8p3KLXH7qNZPPuqN+TXMuyygd0zPdae3uaTVv7bjniimzLHodtpdhLekvr1oqeTrzhrWraqfItzPyfgiISt3qS1tkar1ut0jO5D2Z0yEtV1g5EjqREaJtTaW2o5t9hDZJcXsgmySRqMyLc9xrUXUrNYWCO6aRrrhjb101kK4Xpmj3sG2lNIe7hp7nhC1Fx5cT33MjPyA/olmEvFce1I6080tIeRv2NbIx+MtWNWTcC1arHnCKUbD62nODZqQx3dkn8idtyI9xy9rBrBi2Z9NlVheMacakHUVuWqlV2UZXdItERXTimUiuYeRGaJJLI2nja5H5Ty28iYMdRutUTVG11miZ5Kj5feEtFnOajsIRNbUlKVNuxyQTC2zJCd0Gg0maSPbctx4NStbtUNXW66Pn2UKnxKgllAgx4ceFDims91qbjRkNtJUrYt1Enc9i3PwAo/Rd/wB+s7/qxy3/AC1wc/iwdMWfYlp5lmWWeYW3w+NZ4JkVNFX2HXe5MlQltMN7NpUZclqIuR7JLfczIvIj4AAAAAAAAAAAAAAAAAAAAAAAAAAAAAAAAAAAAAAAAAAAAAAAAAAAAAAAAAAAAAAAAAAAAAAAAAAAAAAAAAAAAAAAAAAAAAAAAAAAAAAAAAAAAAAAAAAAAAAAAAAAAAAAAAAAAAAAAAAAAAAAAAAAAAAAAAAAAAAAACodMWl2P60664ppjlMywi1d6++1Ier3EIkIJEd1wuCloWkj5IIj3Sfjf/mJeOgegX9rvTr+Vy/8E+OfgFQ170ux/S2bgsfH5lhITk+B0WUSzmOIWaJc2P3HUN8EJ2bI/wAJHuoi91H7hi+l2P3fTznWrUqZYIt8YvqariMNuIKMtqWmSbhuJNBqNRdhHEyURFue5H423DrF/hTSL+p7Ef8ABhp/+xRq7/TDFv7ucA0fpv02otYNdML0xyaXPjVeR2iIUp6C4hEhCDIzM0KWlaSPx9UmX7hPrCOiJPkxWzUaGXltpNXuZEoyLcW3oZ/a50s/n9r+yoRe6/hif/KXf7ZgKJrppdj+mMfTd2hmWEg8wwOtymd6xxCyblyHX0rQ1wQnZsiZTsSuSvJ7qPxswXS7H8n0H1T1RnzLBu1wiZj0evZZcQUd1M96Qh43kmg1KMiZTx4qTsZnvy8bbj1c/wC56F/1PUP9/MH+aRfsfdQn854X/ipwDn8AAAAAAAAAAAAAAAAAAAAAAAAAAAAAAAAAAAAAAAAAAAAAAAAAAAAAAAAAAAAAAAAAAAAAAAAAAAAAAAAAAAAAAAAAAAAAAAAAAAAAAAAAAAAAAAAAAAAAAAAAAAAAAAAAAAAAAAAAAAAAAAAVBvS7H19ML+tRzLD441njOLFH7iPSekVXuSTXx4c+5zQRb8+PHf5d/Il4AAzmU4Tk+FopnMmrPRpyGqZu60+82534Tqlpbd+RR8dzbX8qtlFt5ItyGDAAAAAAAAAAAAAAAAAAAZxnCcnkYTL1FZrOWPQbRimkTO82XCY8066032+XM90MOnyJJpLjsZkZkR4MAAZzHMJyfLa+/tcfrPVRcXrvi1q53m0enid5pnubLURr+8eaTxQRq+bfbYjMsGAAAALB0h59iWl/UbheeZ1bfDKKpkSHJkvsOvdpKoryEnwaSpat1LSXhJ+/5CPgACwdSefYln8/Tl7Erb16KHTfHKCwPsOtdmfFjcH2vvEp5cVeOSd0n9DMMPz7Eqvpe1G06n23ayG+ySgn18PsOq7zEZEsnl9wkmhPE3W/ClEZ8vBHse0fABV+lLOMX016i8BzvNbT4dRUtu3KnSuw492WiSojVwbSpavcvCUmYmNm83IspchlXJt19xaD223I1GZGPMACwdRefYlncbShvFLb1ysa02qaC0LsOtennsvSVOtfeJTz2JxB8k7pPfwZ7GGnOfYlQ9N+seA21t2L7Kp2MPVETsOq9SiI/KXIPmlJoRwS6g/nUnfl8u+x7R8AAAAAAAAAAZHG8euMuyKrxPHofq7W6msV0GP3Et96Q84TbaOSzJKd1KIt1GRFv5MiAY4B6reqn0VrNpLVjsTa+Q5Fktckq4OtqNK07pMyPYyMtyMy/IeUAAZzNsJyfTrJZWH5lWfD7eEhlb8fvNu8EutIdbPk2pST3bcQfg/G+x7GRkMGAAAAAAAAAAAAAAAAM5BwnJ7LD7bPoVZ3KGjmRK+fL7zZdmRJS6phHA1c1ciYd8pSZFx8mW5bhgwAAAAAAAAAAAAAAAAAAAAAAAAAAAAAAAAAAAAAAAAAAAAAAAAAAAAAAAAAAAAAAAAAAAAAAAAAAAAAAAAAAAAAAAAAAAAAAAAAAAAAAAAAAAAAdAs/sBTP64Y3+SvCTadZXjWHX6rbKtOqnNYSo62SrbOVKYZSszSZO8ozja+RERkRctvmPcvYbw1n2JJ6QZOlx23/AGnc1JYv0wew75gJq3WDd7nHt/7RSU8eXLzvtt5EfAdgdUmqumx4zp7WF07YmmXc6YV7lfYfE7Pu06XVyktoYT6jgsmlEa0m6SzMz2VyLwIrYRulYsOrF1d1qsrKzKD8SakVlamvSZqR6zsrTINxWye52uSS3MkcuO57SkAFgu4vSEnIsfTjd7rA5RKdf+PrnVNWiW232/ufSJRJNC1G54X3FJIk+S3PwBRekL7dG2d7rB9jfhJKJ74TV/E/ifePdPb9T2vT9nY+XPnz3Ljt5EfABZKOJ0dKtrxOSX2sjdYmUgqRUGoq1vrjdpPM5JLkklLnc5kRINRceJme+5DGVMbpgVp/MdvbjVFGcExM9GzEra9VUbxGv0hOOKfJ4kmXa7hkgzIzXxJWxby4AFWsI3SsWHVi6u61WVlZlB+JNSKytTXpM1I9Z2VpkG4rZPc7XJJbmSOXHc9vVdxekJORY+nG73WByiU6/wDH1zqmrRLbb7f3PpEokmhajc8L7ikkSfJbn4EfABZExOjr7ZONrvtZPsn8MQbbpVFX8ROx7quaTR6ntdjtcDJXLnz5EZbbGfzxyL0hKs70stvdYWq9M3ajVXVNWt5cTgXmUTklKUO8+XhBqTtt538CPgAqNTG6YFafzHb241RRnBMTPRsxK2vVVG8Rr9ITjinyeJJl2u4ZIMyM18SVsW/7yH/RigYpXTsJlak2WWMuRHJkG9r4LFS6RbHIQTrEg3+JnuST4kex+djErAB2fV6y6UL6T8kvEdLeFIr2dQKeK5UFb2/YeeXXWCkyDWcruEtCUKQREokmTijMjMiMuQcjsq+5v7C2qqGLSQ5klx5itiuOOMxG1KM0tIU6pS1JSXgjUoz8eTMY4AHYvTvq1pkrTXVlhPTbiCHKbT5pdg6Vpa8rhKbKvbUh4vU7IJS1JdPtcD5IIi2SZkcWq8g6b8zy+0uNRsTyXBKZUZhFdWYI2ieknk7k4pxVjJ5kRlsfhR+d/BEJGACwUUXpBU1d/aa91hbdTYSCpSgVNWtK4PFPYVJ5yS4vGrnzSjkki47GfkYtuP00fqzN1631NLUL0qjKOmur/g3qeR7F3e/3+3x23Pt77/TYTMAFeuovSMmDSHjt5q8uYqfEK7KbVViGkQv/ALk4xokGanS/+mSySk/4xkP1YxekIsuqEVN7rCrF1MSTt3ZFTVpnoe2LsFHQmSbakGfLma1JMi22I/Ij4ALBCi9IR5jZIsb3WFOKFEYOtdZqas7BUnc+8TyDkk2lsi48TSozPzuRBRRekFTV39pr3WFt1NhIKlKBU1a0rg8U9hUnnJLi8aufNKOSSLjsZ+RHwAUxuP00fqzN1631NLUL0qjKOmur/g3qeR7F3e/3+3x23Pt77/TYZLJovSMhFH9jbzV51arWOV38TqqxskVuyu+qN25CuT5Hw4JXxQZct1F4EhABYLGL0hFl1QipvdYVYupiSdu7IqatM9D2xdgo6EyTbUgz5czWpJkW2xH5H0gROjo8ptUWd9rInGyjxjqnGKirOct/5/UE+hUkm0oL7vgaVGZ7q5EWxbxsAFcxuL0krj3h5feautPps5RUZVtVWOIXXePTKkm5ISaXz89xKOSC8cVGMe3H6aP1Zm69b6mlqF6VRlHTXV/wb1PI9i7vf7/b47bn299/psJmACvZNF6RkIo/sbeavOrVaxyu/idVWNkit2V31Ru3IVyfI+HBK+KDLluovA/VjF6Qiy6oRU3usKsXUxJO3dkVNWmeh7YuwUdCZJtqQZ8uZrUkyLbYj8iPgAskCJ0dHlNqizvtZE42UeMdU4xUVZzlv/P6gn0Kkk2lBfd8DSozPdXIi2LfbemLPtKcc1xxbF4GjtdlDU7UGD8DyK9ly49pCiLmMojmpmLIKN3EEROGRpWXNSi3UkiIc3AAs/UpqBhGU5lf02OaMY9ic6DkU45NpXzp7z04idcSZOIfeW2ndXznwSnz4Lx4GnaZZ1huEP2DuX6Q0OdolobSw3azZscohpNXI0elebNRq3Lflv8AhLbbyNJAB1p1y6i4BM1VyvD2dD8dg3C2aZX2nYn2CpqE+iiObE0t82D+7+68t/h8/i+YS+/idHSZ9KWL32sjkJU7a6VPqKtDqIfbX5jEiSZKd7nb8LNKeJqPfciI42ACwORekL7bsts3usB4f8MWbzyqmr+JFYdwuKUt+p7RsdvczUa+fLYttvI+lTE6OlZBepvb7WRFGlyP8CXEqKtUtbfZLv8AqkqkkhBk7yJHA1EaNjPY/AjYAKrSRullWJWS8jutVW8oJUz4c3CrK5cBSSNXpe8tcgnEmZcO5xSe3zceXgfiZG6XS0+iuwLnVJWcmzE9Uy9WVxVJOmtv1RIcJ83jSSO72zNBGaiRy4kZmUtABYMhi9ISbehTil7rC5VqlqK9VYVNWiQ3G4HxOKTclSVuc9tyWaS47+d/AORekL7bsts3usB4f8MWbzyqmr+JFYdwuKUt+p7RsdvczUa+fLYttvIj4ALJUxOjpWQXqb2+1kRRpcj/AAJcSoq1S1t9ku/6pKpJIQZO8iRwNRGjYz2PwPBSRullWJWS8jutVW8oJUz4c3CrK5cBSSNXpe8tcgnEmZcO5xSe3zceXgSoAFQsG+mVjTqPLpbDUuTn6I8Rb0OdXwEUi5HNHqUd5t85Hb4d3gfAlGfHci3My6AxHWXSh/ph1HuWelvCo8CJlGNsv1aLe3NiW441Ymh1azlG4lTZIWSSSoiPuK5EeyduLwAZTKbasvcin3FNjcPH4Mt43GKyI664zEQfs2hTqlOGRfmpRn+8YsAAAAAAAAAAAAAAAAAAAAAAAAAAAAAAAAAAAAAAAAAAAAAAAAAAAAAAAAAAAAAAAAAAAAAAAAAAAAAAAAAAAAAAAAAAAAAAAAAAAAAAAAAAAAAAAAAAAAAAAFQy3S7H6Hp80+1YhzLBdvllzeV01lxxBxm24fpu0baSQSiUffXyNSlEeydiLzvLx0BqR+xdov8A0pyz/wDYANP0G0ux/VGRnzWQTLCOWLYHdZTD9G4hBuS4bSVNIc5oVu2ZmfIi4qP6KIS8dA9Hv++ax/1PZV/cIHPwAAAA2/SnHafKcyZp77G8vvYi4kx04WKModsVLbjuLQtKVIWXbQpJKcPj4bSsyMvcvhQ6WanZSitdxjTnKLdFz6j4aqBTyJBTewaSf7JoQfc7ZuIJfHfia077bkLF0B/tJV/9Hsj/AMolDMZ/l2R0PQjotS0txKgxbTJMndllHdNs3uy7H4JUadjNJG4Z8fbckntuktgjOEYEbmZ2mKZ5gmeSJVbWznnaukhcbGLIaZNaHH2nW1GhhB7Kd3SRkjcyMvcZjNOmvVXBdI8W1kvMTuWqPJykOGtdVIQiA0lxtDDj7ik8UFI7nJrcy5pLdO5GQ7GhyH7LXnBL+e8uRY3HTCU2fKcPk7KkKqJKVOuKPypZklO5n5PYc8672lo50g9NLDljKU0/EyxLqFPKNK+3cGSCUW+x8S2It/YttgHNYAAANgoNPM/yyI1PxbBsguYz84qtp6vrH5Dbkw21OFHSpCTI3TbQpfAvm4pM9tiMxgmWHpLqWI7K3XF+EoQk1KP/AJEQ6o0/ustof0d+oD+LSpkQntSK6NZPRlKQtuIqEe5GpPlKVOE0g/z5cT8HsYc+S9K9T6+6n41P04ymNb1UFy0n171PIRJiQ2y3XIdaNHJtpJeTWoiSRe5jE02M5JkaLBzHsfsrRFTCcsbBUKI4+USIgyJb7poI+20k1JI1q2SXItz8jtSm1gmaa6WdKWrudPP2Ehi0yennqlmbr07GVyGmXmlmrc3EIS68TZHuRH4L2Gt6waeq6SNHtSsMae3sdT8v+B0z5q3W7itfwleoQov4r7kiIk/oom1l5IvIQXpv02otYNdML0xyaXPjVeR2iIUp6C4hEhCDIzM0KWlaSPx9UmX7hPrCOiJPkxWzUaGXltpNXuZEoyLcW3oZ/a50s/n9r+yoRe6/hif/ACl3+2YCia6aXY/pjH03doZlhIPMMDrcpnescQsm5ch19K0NcEJ2bImU7Erkrye6j8bS8dA9XP8Auehf9T1D/fzBz8AAAAN/nadyLWjwZjBtPs/k3+Qw5r7/AH683o1opl1fz1iWm+bjbbSD7pma9loX5Ii2LCWumeo9FjUTM7zT/JK7H5/H0ltLqn2YcjkW6e28pBIXuXtsZ7jvPp2USMz6J1qbSsk0OYmaVFulX3s/wZfkIb08ZplmeYL1JozHIZ9wiw0+ft5Dct9TiFzGp8ZTb3Ez2JSTWriZF438ANMwjptu9Y82wfBNNcNzesk3mOItrafe16lxfCnec2MbTZf6irghttSjMzcM08jMyIR7IcbyLEbmVjmWUNjS20JRIkwLGKuNIYUaSURLbcIlJMyMj8kXgyMf0I0tkyWOpLpNbjvutpe0WfS4lCjIlkUO5URGRe/zER/8yIfzrlS5U6QuXOkuyH3D3W66s1rUft5M/JgPkAAA9NZWWV3ZRKamr5M+wnvtxYkSK0p16Q8tRJQ22hJGpa1KMiJJEZmZkRDZJ2kOrNZQSsrstL8tiUkF5ceVZP0kluKw6hZoWhbpoJCVJWRpMjMjIyMj8jPdNjD7fURpM+4y4lt3NqTtrNJkle09kj2P67DrLS/KM8vP0m2ZYtmdpZOY/PtcqqryukOr9J8DRGlk22ts/l7KW0smncttyQf18hwpc4zkmON1z2Q49ZVbdvDRY16psRxgpkRZmSH2TWRdxtRpURLTuk9j2PwF5jOSYwuE3kmP2VSuxhNWMNM6I4wcmI6Rm0+2SyLm0siM0rLdJ7eDMdXaT4C/1caDYRgTLp/H9LcxYqJj+5EprFrV3mp9Rn7lHfbd/clLhe25EcO6mNUI2sGt2UZpVIJqlVKKBRsJLZLNXGSTEVCU/wAX7ptBmX/iUr8wH+57pdj+LaFaVanV8ywctM5fv2rFl5xBx2igyGW2uykkEpJml1Rq5KVuZFtx9jaG6XY/qZC1LkX0ywYVhmB2GUQCiOISTktiRGbQh3khW7Zk+vck8VbknZReSPcdYf2ROnf+V5l/jYo/zpJ/gvXn+p66/wAZAAQmoiNz7WFBeUom5MhtpZpPyRKURHt+/wAje+orTmk0i1xzXTPG5U6TV45bOwIr05aFyFtp22NxSEpSavP0SRfuGl43/wB4qv8AlrH94Qr3W7+1rqp/SOT/APoAiAAAAAAAAAAAAAAAAAAAAAAAAAAAAAAAAAAAAAAAAAAAAAAAAAAAAAAAAAAAAAAAAAAAAAAAAAAAAAAAAAAAAAAAAAAAAAAAAAAAAAAAAAAAAAAAAAAAAAAAAAAAAAAAAAqGW6XY/Q9Pmn2rEOZYLt8subyumsuOIOM23D9N2jbSSCUSj76+RqUoj2TsRedwl4sGbZ9iVv0xaY6eV1t3cgx6+yGbZQ+w6nsMyfSdhXcNJIVy7TnhKjMuPki3LfH6DaXY/qjIz5rIJlhHLFsDusph+jcQg3JcNpKmkOc0K3bMzPkRcVH9FEJnHjyJchqJEYcefeWlttttJqWtZnsSUkXkzMz2IiAVzptz7EsBk6lOZbbegTkGm2QUFcfYdd78+SylLLX3aVceRkZclbJL6mQnOG49AyrI4lFZ5dT4xGk9znaW/f8ASMcUKUXPsNOufMaSSXFB/Mot9i3MsrO0d1crKmyvrLSzL4lZSvri2U1+jlNsQnkK4rbecNBJbWk/BpUZGR+DHiyXTjUPDK+Bb5hgeRUUG0TygyrKrfitSi233aW4kiWW3n5TPwAon+j/AIJ/5stIv+l7/wDGh/o/4L9erHSMv/a8P/8A1XDRa3STVa5xlzNafTHLJ2PNJUty2jUsl2EhKfxGb6UGgiLY9/PjYeDEcCzrUCa7WYHhd7kkxhvvOx6iuemONt+3JSWkqMk/vPwAoaokzp4nw9QNLOoPB7+8P1FcTdFGmPPMMSI7jby1JnQm2uBoUpG5GaiNZGRFtyLQbXUPMLvCaHTq0t+9j2MSJkqqh+naT6d2UaDfV3EpJa+Rto8KUZFt423Mb5qvozVaeaMaSZ4k7hm/zhF+V1CncUoiuwLE4raG2+CVoPiXzktSj5e3EvA0zINJtVMSo2MnyrTPK6ank8exYWFNJjxneX4eLq0EhW/02PyAzTPUNrDHuazIGcv4z6bFSwmE98Pin2qUmls+m4m3xV924su4ojc878tyIx7cO1Kz7LMPhdO9xqlTY/gjr70pC72CTsaA5v31cXmo7sponHG0/K18pqUXItjUY9mrGjNVh2IaQW+JncWNrqJjirWXFXxe2lerdZS3HQ2glcTJtPyma1GZn5+g0bL9MdStPm4zufaeZNjSJm/plXFTIhk9sW/yG6hPLx+QCg/6P+Cf+bLSL/pe/wDxo/S+n3BUHt/pZ6Qn4I/Hxw/ct/pWiUUeOZDk8p2DjVDY20liM7MdZgxVvrbYaSanXVJQRmSEJI1KUfgiIzMyIZfINLNT8Tr4FtlOnGUU0G1UlECTYU8iO1LUot0k0taCJwzLyRJM9wG6KizOnXI6HUzSrX3CsgyKvlqOIuhjzHnYajbUk3Fonw22lJMlGn+Me5+31G46f9RbunfTDeY5jGaLr8+sNQ4936T0Jutya4695p43SW2qM4g3FoI2l77nsfHYtyg9piWVUmRrw66xm1gX7T6Yq6qVCcamJeVtxbNlREslnyTsnbc9y/Mea5pbnHLaXQ5DUzauzgOqYlwprC2H47qT2UhxtZEpCiP3IyIyAUabn131EZ/WPa96xN0kKLE9I1aP1C3Y1fHQRmllmHBbIkEZ7kRIQlO57qMvcZHqi1mr9Xs2qIuLyrN/EcHoYOKY6uxP/WX4kVvicl0t9icdXyWZe5JNCT/CMZ1C6XY/pNltFQ45MsJMezxOkvnlTXELWmRMhtvOpSaEJIkEpZkkjIzIttzM/IVel2Pzemq/1kdmWBXVVmNfjzLCXEelVGfiSHlqUnhzNwlMpIjJZFsZ7kZ7GQffpSzjF9NeovAc7zW0+HUVLbtyp0rsOPdlokqI1cG0qWr3LwlJmJjZvNyLKXIZVybdfcWg9ttyNRmRjetCND806gtQoen2FwZC3nkOPypaIrjzMFhCTM3XuBHxSZklBGe26lpSXkyIYaNpPqnNy2TgMPTTKn8nhFvJpWqaSqewWxHuuOSO4nwpJ+U+yi/MBu3UXn2JZ3G0obxS29crGtNqmgtC7DrXp57L0lTrX3iU89icQfJO6T38GexjGYfo9ieUY5DvbPqG05xqTK586u2K29XH4rUku52ITjfzEklFxWr5VFvse5Fo93ieVY1eKxjI8ataq4QtLaq6bCcYkpUr8KTaWRLIz3LYtvIzGRaQas4g1BkZZpdl1I1ZupYhLsaSTGTKdV+FDRuILmo/oSdzMBvaen3BVEo/9LPSH5S3/wD65+e3/wDbR+f9H/BP/NlpF/0vf/jRiNa+nXU3QcsfdzrG7WHHyCph2LciRWvx2mn3micXCUtxJEb7RGROII90n4MiEwAUyu181cwe7xJeNZ4wpzTNM+Bi8tivjrajsyVu99SCdZ3dS53XDI3kmoiV447ERatiWoeY4LByKtxW49DGyuqXS26PTtO+phLWhamt1pUaN1NoPkjirx77GY99ZovrFdpJdNpPmU9JwGbUji0Mp0vRPEZtSflQf3SySo0ufhVxPYz2GPXpvqI3if29XgWRpxnn2/jR1b5QOXLjx9Rx7e/Lxty9/ADPRNfNXIGSYZl8DMno1xp7XNVGOSmYzCFQYbZuGlrYkbOl986Rm4SjUSzJRmXgbXIwyDrG8epeddS2l9Pe3hE7MgzIVhFeYUgu2lKmoVccdB8UJP7szLzufkzE7xDS7UzUFmTJwLTrJ8lZhHtJcqKiRMSwe2/zm0hRJ8efIxlZimUXeQIxOmxu1n3jjqo6KyLDcdlqdTvyQTKSNZqLY9y23LYwFULp9wQ0qV/pZ6RfLt9Lz/44fn/R/wAE/wDNlpF/0vf/AI0faX0+PY7095ZqRnFPk1Bl+PZXW0aKqwjnFQUaTHedUtxl1snee7aeJ8iLYz8H7ifQ9JdVbDFl5zA0zyuTjbaFOLuGaaSuClKfxKN8kdsiLY9z5eNgG66a6zXNbnujlDnWWtu4NpXlrVhANuEk0QoztizImupNtsn3iUbXMiVyUW2ySLfYbHq/1eauX2VahUWI6lSHMPyK2s2I7yK9lqXJqHZLimmDlKaKWTBtmkiZUsiJOyeJEWw1M9J8dLpTTrn62y+PHqEeJ+n7jfpPSFWlK58eHPu8z2358ePjjv5GqW+keq+P463mF9pjllbQuklSLSZSyWYiiVtxMnloJB77lt587gKzpRqPgmgukWY5Di2o0q21F1Cx93Fk00SBIYYo4jzqTkvyH3CSh5022yS0TRq4m4ajPfwXPQ9NZWWV3ZRKamr5M+wnvtxYkSK0p16Q8tRJQ22hJGpa1KMiJJEZmZkRDZJ2kOrNZQSsrstL8tiUkF5ceVZP0kluKw6hZoWhbpoJCVJWRpMjMjIyMj8gNz1Jz7Er/py0ZwOptu/e4pIyZy4idh1Ppky5TC4581JJC+SW1n8ilbbfNsewdO2fYlgsDVtnKrb0K8n03s6CqLsOu+onuyYi22vkSrhulpw+Stklx8mW5bzG5xnJMcbrnshx6yq27eGixr1TYjjBTIizMkPsmsi7jajSoiWndJ7HsfgLzGckxhcJvJMfsqldjCasYaZ0Rxg5MR0jNp9slkXNpZEZpWW6T28GYD5UkhmHdQJchfBpiU044rYz2SSyMz2Lz7EKN1TZtjGo/URn+dYZZ/EaO7unpcCV2XGe80rbZXBxKVp/5KSRj8Z7pdj+LaFaVanV8ywctM5fv2rFl5xBx2igyGW2uykkEpJml1Rq5KVuZFtx9jaG6XY/qZC1LkX0ywYVhmB2GUQCiOISTktiRGbQh3khW7Zk+vck8VbknZReSMJeA9VREbn2sKC8pRNyZDbSzSfkiUoiPb9/kb31Fac0mkWuOa6Z43KnSavHLZ2BFenLQuQttO2xuKQlKTV5+iSL9wCdAAAAAAAAAAAAAAAAAAAAAAAAAAAAAAAAAAAAAAAAAAAAAAAAAAAAAAAAAAAAAAAAAAAAAAAAAAAAAAAAAAAAAAAAAAAAAAAAAAAAAAAAAAAAAAAAAAAAAAAAAAAA6A1I/Yu0X/pTln/7Ac/iwZtn2JW/TFpjp5XW3dyDHr7IZtlD7DqewzJ9J2Fdw0khXLtOeEqMy4+SLctw2Ho9/wB81j/qeyr+4QI1gf8A34x3+don98kUTptz7EsBk6lOZbbegTkGm2QUFcfYdd78+SylLLX3aVceRkZclbJL6mQk0CdKrJ0eygu9uTEdQ+yviSuK0mRpPY9yPYyLwfgB/RSo1FzJX6SvVKK7eynYMetyWGmC4s1RTYYrnXG2zZP5DT3GyWZGWxqNSj3MzM4Dg+RXWYdGGtB5je2FqmFl+Lz2nZshb62n31ykPOpNZmfNSCIjP3P6iPs676rMamW2sLWVccvvEzET7H0MY+8UppTT5drt9pPJC1F8qC233LY/IwlVqFl9JhN9p1WW/Zx7JpEOVaw/TtK9Q7FNZsK7ikmtHE3F+EqIj3877EA7I1tzjU/Fv0iePYpgF9bwaeot8bqsYqoElxML4UtmKSWm20nwUy4la+XgyPkrcNfHmdPNANWV6OznaiHO6grOqtHqp02TKEzEUuLGNTZkfp0uKdNJfh3LwOc6Pq26h8cx6FjVPqRIZj1kM6+vkrgRHZ8KNsZEyxNW0cllBEZkSUOJJJeC2GA00161a0hbt4+A5cuFFvyR8TiSYcedFlmkzNKnGJLbjalkZnsrjyLc/IDubAFv5xkXQrI1jWuc/LRkbyl2PzKkLbkGqvWs1eVmo0RTIz3NW5H53EwreoDEYVxqhVR9MdcsqtrijuIOUV15ljNlFYR5S7LfYRBSaPTubKJzdPbMvciHM+ba9avainjy8yzqfYPYpIkyqaRxbafhOvvJeWpDraUr8OJSaSMzJskpJHFJEQzmY9V3UBnmPWGL5PqE6/At0Ibszj10SJIsUJ22TKkMNIekF4Lw4tW/13AdFo1BttKpHS9qFVYRZZUml01tHZsOuJZSWYa35rT8ltxCVG0ppDinCcMtk8fJkXktEzevgZp0+Zzleimu2cXmIUVjVTMoxLNoaDlxVvvKZiymZKFuNuH3FmlXbJpRp8qIy2IRSFr3q9WT8PtKvN5kGZgMFdbjz8VpplcOKta1ra3QkjdSo3F79zluSjSe5eB68/6j9ZtTsf8Asnl2XocpVSEyna+vrIdbHfeT+Fx1uI02l1RfQ1koyPyQCs/o703lf1DyXKmE4q0Rh187CZW1ubj3olm2XEy+bdW3jbyP1oNkeT5f0/8AUnGzy8srWmax6BZqcsZK3ybuPiDZR3CUsz4urM3EmZeVEWx77DGaC9SctrWaXqRrPnDjT7GCWeN189uDwUhRQFsQmiTFb3IyPiknDL96lfUTnOupTWzUnFPsRmOcOS6RUlMx+KxBixPVyEl8rslbDaFyVl78nTWe/nffyA6zx6JUajZBpp10X0dEyBiGJS5uakryb2RUKG2YZOK9iclKerVJT9SJX5HtwfkF7a5TfWWTXktUqyt5j0+Y+r3dfdWa3Fn+81KM/wD3F2zbUfBNOunRfT1pTqNKzFeWXjWQ5RZNwJEGCyhhBJjwmWpBJcWrmROOOGlJGbbRFuRGY56AdAda3/EjEf6uMT/yxkMf/YRzL+s6l/y2aNf6oM+xLUTNsct8OtviESBhWPVEhzsOtcJcaA20+3s4lJnxWky5ERpPbcjMvIU+fYlF6TMl0zftuOS2Gd1dzGhdh0+cNmFKacc7hJ7ZbLdQXE1Eo99yIyIzINv/AEeMmSx1bYe3HfdbS9DvEuJQoyJZFUTFERkXv8xEf/MiFA0gyHDcb6GcjzLKWM3nv2upTVdfycXvW66ecZFclcREl5xl41Ru4p7ZOxEbhl58bDk3Bc6y3TTLazO8Fu3qi9p3u/CmsklSml8TSfhRGlRGlSkmlRGRkZkZGRjc6bqa1ux/K7/MqbM0RZ+UoabuWE1UI4E5LaSS2TkE2Tiq4kXj7rxuZl5M9w6Be6iH15d0/wCX4RoJqDeO4I7Zv1cnI5h2c3Iq9K+S2mpDUZHMohpfNKiSvtb+fCRiLv4XqVpJqbkWg2vOoT8GDFjXWVYbm7KX3XYyZaOMhiaha21rbdUg9zS24Zb+T8pOC32v2smS51U6lWuoFmeR0KW26mZGNEYq9tG/FuO0ylLbSPKt0ISST5HuR7mMlnPU9rjqLjkvEsozVKqiwcQ7OiQKuFXJmrQrkk5BxWWzf2V8xdw1eSI/fyAoPXTY2MrOsCYlTpLzX6tcXeJDjqlJ5qgp5L2M9tz+p+5jmwWWvzLM9eseqtPtTNdMVx+lwyGyzTLyOC4S+0gjQhhEiHDdfWSEmeyXVcSI/A/3/R/wT/zZaRf9L3/40Bfs+zvLqfV7o8pajIZ0KBFwvCZSY8d9Tba3npSm3VqJJkSjU22hB7+6U7e249VLluR5B1T9V2PW9vKk1SMQz6ubgLdM47ceGa0xUIb/AAp7ZNI47F42Pb3Mch22r2olxf4lkdlkZSLHAoMCrx6QURhJQ40Jw1xkcSQSXOCjM93CUpW/zGfsP3C1n1LrswyzPYeSdu9ziPZxL6X6OOfrGrA1HMTwNHBvuGpXltKTTv8ALxAXLX7KMpwfQnp1rdPMgs6bHZWKybdTlZKcjpkXRznUy3FqbMubrZpbSRmZmgj2LYjHQueyJ9RM1h1DpluQ9UV6E4tNt5Ecu3MjzJJsJs3fl2U252EsmpRbGRHvv5HD2n3UjrPpfQFiuHZilmnRJOazBnVkOxZjSD93WEymnCYWf1U3xMz8jw4/r1rDi+o8zVym1AtG8use6U2zeWmQuWhwiJbbyXSUh1sySkuC0mn5U7F8pbB0Hjl/k2WdAVmnUO4sZ1HH1WqYcaZNeW4tuOcZxT7aHFGZ8E8+RJI9iU4sy8qMWPWnWLDtLes1VZUYTrPY5Jj86viUdNR5Ww3VS4nYa9PEjQEwlGcZxsySbSVHy5K87nuOJ846kdadR8bl4fmOZnNo5sqPMXXt18SPHbdYJwmzaQy0kmSLvOmaW+KVGszURn5GVrOrzqMpsfiY3Xamy22K+EddClqhRV2EWLsaeyzOU0cptBEZkRJdIiLwWwCzv3LjvTB9osOwF1taupVydV4uthTy0H8OJbMA20pJSzL5WjSSSM/Yi+g2CdksLqHy7Ui00j1b1JwnUC8qLmXe4NljKZtZLZS2tyZAZkEezSUJSskJeYSaeJJI0mRGXIUXVLPoOEMadQskfj0MbICyllhpttDjdqTJMlJS+Se8SiQREREviRlvtv5G7ZF1ddRGVUtjQ3Ooq1MXEdUSyfjVkKLMnMKLZTb8tllL7qVF4US1mSi99wGK6bGH2+ojSZ9xlxLbubUnbWaTJK9p7JHsf12HWWl+UZ5efpNsyxbM7Sycx+fa5VVXldIdX6T4GiNLJttbZ/L2UtpZNO5bbkg/r55d0s1ru4ua6L1GfZNxwnTDKWLOE36JB/Do71gzJmr3ab7z25tctlGsy22QRb7HtGr/AFeauX2VahUWI6lSHMPyK2s2I7yK9lqXJqHZLimmDlKaKWTBtmkiZUsiJOyeJEWwDfdJ8Bf6uNBsIwJl0/j+luYsVEx/ciU1i1q7zU+oz9yjvtu/uSlwvbciOHdTGqEbWDW7KM0qkE1SqlFAo2ElslmrjJJiKhKf4v3TaDMv/EpX5jdtKNR8E0F0izHIcW1GlW2ouoWPu4smmiQJDDFHEedScl+Q+4SUPOm22SWiaNXE3DUZ7+C56AdA6w/sidO/8rzL/GxR/nST/BevP9T11/jIA1/UnPsSv+nLRnA6m2797ikjJnLiJ2HU+mTLlMLjnzUkkL5JbWfyKVtt82x7B07Z9iWCwNW2cqtvQryfTezoKouw676ie7JiLba+RKuG6WnD5K2SXHyZbluEwxv/ALxVf8tY/vCFe63f2tdVP6Ryf/0EdpJDMO6gS5C+DTEppxxWxnsklkZnsXn2IUbqmzbGNR+ojP8AOsMs/iNHd3T0uBK7LjPeaVtsrg4lK0/8lJIwEsAAAAAAAAAAAAAAAAAAAAAAAAAAAAAAAAAAAAAAAAAAAAAAAAAAAAAAAAAAAAAAAAAAAAAAAAAAAAAAAAAAAAAAAAAAAAAAAAAAAAAAAAAAAAAAAAAAAAAAAAAAAAAAAAABl8OqI2Q5dSUE1bqI9lZRobqmjIlpQ46lCjSZkZEexntuR/8AIbFrpg1TpjrPnGnVDIlyK3Gr+dVRHZi0rfW0y8pCVOGhKUmoySW5kki3+hDF6Y/8ScT/AJ8gf4hA3bq6/al1a/plb/4pwB5M90ux/FtCtKtTq+ZYOWmcv37Viy84g47RQZDLbXZSSCUkzS6o1clK3Mi24+x6BWY3kV1BsrSmoLGfCpmUybKRGiuOtQmVKJCXHlpIybSajJJKUZEZmRe4uGsP7InTv/K8y/xsUevplI3NEepBlsjUs8KhL4l5PimzYNR/8iL3AROg08z/ACqLGnYxg9/bxptimnjPwa159t6eps3ExUKQkyU8aEqWTZHy4kZ7bFuKpmfTRkGjufZrgepuEZ3aKpMem2FVYUFYtEZx1rtbTnVPNnyr2zWpLriDLYzTsohuWJM2Vb0G19sgn4yXtdoPp30maDUaad0lGk/3Ge25fXcvoLJlcybJ6tesJmVKedRH0wyZDKHFmom08YR7JI/Yv+QDlPVjRmqw7ENILfEzuLG11ExxVrLir4vbSvVuspbjobQSuJk2n5TNajMz8/QaNl+mOpWnzcZ3PtPMmxpEzf0yripkQye2Lf5DdQnl4/IdgI1BttKpHS9qFVYRZZUml01tHZsOuJZSWYa35rT8ltxCVG0ppDinCcMtk8fJkXktEzevgZp0+Zzleimu2cXmIUVjVTMoxLNoaDlxVvvKZiymZKFuNuH3FmlXbJpRp8qIy2IBzNR45kOTynYONUNjbSWIzsx1mDFW+tthpJqddUlBGZIQkjUpR+CIjMzIhl8g0s1PxOvgW2U6cZRTQbVSUQJNhTyI7UtSi3STS1oInDMvJEkz3F7/AEd6byv6h5LlTCcVaIw6+dhMra3Nx70SzbLiZfNurbxt5H60GyPJ8v6f+pONnl5ZWtM1j0CzU5YyVvk3cfEGyjuEpZnxdWZuJMy8qItj32Ac32mJZVSZGvDrrGbWBftPpirqpUJxqYl5W3Fs2VESyWfJOydtz3L8x5rmlucctpdDkNTNq7OA6piXCmsLYfjupPZSHG1kSkKI/cjIjId549EqNRsg0066L6OiZAxDEpc3NSV5N7IqFDbMMnFexOSlPVqkp+pEr8j24PyC9tcpvrLJryWqVZW8x6fMfV7uvurNbiz/AHmpRn/7gKD1C6XY/pNltFQ45MsJMezxOkvnlTXELWmRMhtvOpSaEJIkEpZkkjIzIttzM/IVel2Pzemq/wBZHZlgV1VZjX48ywlxHpVRn4kh5alJ4czcJTKSIyWRbGe5GexluHWt/wASMR/q4xP/ACxkMf8A2Ecy/rOpf8tmgNC0I0PzTqC1Ch6fYXBkLeeQ4/KloiuPMwWEJMzde4EfFJmSUEZ7bqWlJeTIhho2k+qc3LZOAw9NMqfyeEW8mlappKp7BbEe645I7ifCkn5T7KL8xZf0eMmSx1bYe3HfdbS9DvEuJQoyJZFUTFERkXv8xEf/ADIhQNIMhw3G+hnI8yyljN579rqU1XX8nF71uunnGRXJXERJecZeNUbuKe2TsRG4ZefGwDkW7xPKsavFYxkeNWtVcIWltVdNhOMSUqV+FJtLIlkZ7lsW3kZjItINWcQagyMs0uy6kas3UsQl2NJJjJlOq/Cho3EFzUf0JO5mOpHuoh9eXdP+X4RoJqDeO4I7Zv1cnI5h2c3Iq9K+S2mpDUZHMohpfNKiSvtb+fCRiLv4XqVpJqbkWg2vOoT8GDFjXWVYbm7KX3XYyZaOMhiaha21rbdUg9zS24Zb+T8pMIprX066m6Dlj7udY3aw4+QVMOxbkSK1+O00+80Ti4SluJIjfaIyJxBHuk/BkQmA6T66bGxlZ1gTEqdJea/Vri7xIcdUpPNUFPJexntuf1P3Mc2AMpa4rk9E9XRrvG7Svet4jM+ublQ3GlTIr3+xfZJREbja9j4rTulX0MxTNPulLW7UOHnD9Zp7kzMnBYfclwV0cpUl6Z3mUehQ2SORP8HjdNBluSGzMy2MjFI6l4Ey0z3pug18ZyQ/O0rwpiM22k1KdcNS0ElJF7ny+X/mLDqTZWULUTrg9DYSY5tQYbqO06pHFfxCKRqLY/B7eN/yAc86I6DYXqfqdo9p9kFHqFQs5suc1dWElDTDEtTKnuKqxa2TI0I7ZIc5kvZwlF49ikuNaX6iZ3MnRtPsAyXJigLNL/wiqfmm0W57GvtIVx3IvrsO5dB1GrNOhtSjMzOHkZmZ/X/XpYi+Caq4jD0RrtKNWGtS8HqFZLY3NDl2JoL0891RNtPIksuKbKT2TQn523OSORJ2L6hzDY1tjTzn6u2gSIU2K4bT8aQ0pt1pZeDSpCiI0mX5GQ2Kg0o1SytqufxbTXKrhu4KQdcuvppMhMwmFJS+bJoQfc7aloJfHfia0ke25CgdVeJ53S6px3stz1Wfrucdq7mryIoimHrCpcjp9M6+2Zc0OE2kkq7hqV8u5qP3FEz/ACLMqT9H/ovHoLCfCqpmUZGVg7FcU2SnkOoNhC1J28H98okn4M0b+6S2DnCRp/nsRN6uVhN+ynFzaK8NyteSVWbiuDfqt0/cclHxTz23PwXkeKFjOSWVJZZLXY/ZSqimUyixsGYji40JTyjSyTzpFxbNakmSSUZcjIyLfYd+S8yglqvonjOp01fHWnRiBiWXyJB8nlnLW+3Amumr3eS4iMruK+binfcQjXCmttAOnrFenq3YOHlGTXk7MMpY9ltNMOOQa9kz+qDJqS9sf/5EH+WwTjp80ux/VjJMlp8imWEdmmw68yFhUJxCFKkwoi3mkqNaFEbZqSRKIiIzL2Mj8iXjoDou/wC/Wd/1Y5b/AJa4OfwFQ6mtLsf0Y1qvtOMXmWEqsq2K51l2e4hb6jkQI8hfJSEISZEt5RFskvBFvue5me0ux9vphh61JmWHxuRnknF1RzcR6QojdezJSsk8Ofc5uqIz58eJF8u/k9x69v2qsv8A5JR/5PDH+Sv2A6z+uGf/AJLFAc/gAAAAAAAAAAAAAAAAAAAAAAAAAAAAAAAAAAAAAAAAAAAAAAAAAAAAAAAAAAAAAAAAAAAAAAAAAAAAAAAAAAAAAAAAAAAAAAAAAAAAAAAAAAAAAAAAAAAAAAAAAAAAAAAAAAAAAAADOYLZQqbN8et7J7sxINrEkyHOJq4NoeSpStiIzPYiM9iIzG0dRmWY/nmvmoea4pP9dTXuTWNhXye0trvR3ZC1oXwcJK07pMj2URGX1IhOwAWDUnPsSv8Apy0ZwOptu/e4pIyZy4idh1Ppky5TC4581JJC+SW1n8ilbbfNsew0jTnVHPNJbx7ItPsgcqpsqI7Ak/ctPsyYrm3Nl5l1Km3W1cUmaVpMtyI9tyIasACh5n1A6u6gYt9iMqywpNAmzZt2q5mvixY8eU0040hTKGW0EykkvO/dt8UGpalGk1HuMtf9VmveUTrC0vs7TLm22PScWnylVMJL0qskdvvNOrSySlqV2W/vTM3S4+Flue8mABv8LXvV6sn4faVebzIMzAYK63Hn4rTTK4cVa1rW1uhJG6lRuL37nLclGk9y8D15/wBR+s2p2P8A2Ty7L0OUqpCZTtfX1kOtjvvJ/C463EabS6ovoayUZH5ITUAHSWgvUnLa1ml6kaz5w40+xglnjdfPbg8FIUUBbEJokxW9yMj4pJwy/epX1E5zrqU1s1JxT7EZjnDkukVJTMfisQYsT1chJfK7JWw2hclZe/J01nv5338jVtNcbg5lqNiuIWbr7UO8u4NbIWwokupaefQ2o0GojIlESj2MyMt/oY9Wr2JVuAasZrglO/JegY5kVlURXJKkqeWzHkuNIU4aUpSajSgjMySRb77EXsArGbaj4Jp106L6etKdRpWYryy8ayHKLJuBIgwWUMIJMeEy1IJLi1cyJxxw0pIzbaItyIzHPQqGo2l2P4hoxpHqLWzLB2yz6HdSLJp9xCmGlRLFcZsmSSglJI0II1clK3VvtsXgT+gx3IMrtmKHFqKxubOUZpYhV8Vch90yLcyS2gjUrwX0IBUOqDPsS1EzbHLfDrb4hEgYVj1RIc7DrXCXGgNtPt7OJSZ8VpMuREaT23IzLyFPn2JRekzJdM37bjkthndXcxoXYdPnDZhSmnHO4Se2Wy3UFxNRKPfciMiMy9Gg/T9MzTqRxHQ/V6jyfFUXspTUxhyMcGe032XFpUlMhs+O5oLyaDLbcaXa4xSw9Mo+Rs45mCLJeQya5Vu8yj4G6whlCksNrJBKOWRmallzMuCknxL3AYjBc6y3TTLazO8Fu3qi9p3u/CmsklSml8TSfhRGlRGlSkmlRGRkZkZGRjc6bqa1ux/K7/MqbM0RZ+UoabuWE1UI4E5LaSS2TkE2Tiq4kXj7rxuZl5M99Do8WyfJymqxvHLS2Ktj+rmnBhuP+mY5pR3XOBHwRyWhPJWxbqIvcyGYutItV8bs6mlyLTDLauxvnEs1USbSyWHp7ilElKGELQSnVGakkRIIzM1EX1AZS+1+1kyXOqnUq11AszyOhS23UzIxojFXto34tx2mUpbaR5VuhCSSfI9yPcxks56ntcdRccl4llGapVUWDiHZ0SBVwq5M1aFcknIOKy2b+yvmLuGryRH7+RoUfEsqmZMWFRMZtX8iOWqvKobhOKmnKJRpNjsEXPuEojSaNuW5GW24x8uJKgSnoM6M7GkxnFNPMuoNC21pPZSVJPyRkZGRkfkjIBYK/Msz16x6q0+1M10xXH6XDIbLNMvI4LhL7SCNCGESIcN19ZISZ7JdVxIj8D/f9H/BP/NlpF/0vf8A40Ynqd0ux/RbXjL9LsWmWEqqx+Y3HjPWDiFyFpUy2szWpCEJM91n7JLxsFzpdj9d03YzrCxMsFXNzllnQvsLcQcVMePGjuoUhJI5ks1PKIzNZlsRbEXkzD/KzqW1tosVg4RW5yZVlO05FrHF18V2XBZWZmpuNMW0clhB7n8qHElse223gf7V9TWt9NqHkeqdfm3DJMuZWxeSF1sNxme2s0mpLkZbRsGW6EmWzZbGXjbcw6fNLsf1YyTJafIplhHZpsOvMhYVCcQhSpMKIt5pKjWhRG2akkSiIiMy9jI/Il4CkVfUXrJTW+GXtZmBMTtPjlnjbhV0Qyg+pcW6/wDKbRpc5LdWf3hK232LYiIi/eBdSGs2mtG9jGJ5ehunflKmnXz6yHYxm5Ci2U621KacS0s9i3UgkmexD69TWl2P6Ma1X2nGLzLCVWVbFc6y7PcQt9RyIEeQvkpCEJMiW8oi2SXgi33PczPaXY+30ww9akzLD43IzyTi6o5uI9IURuvZkpWSeHPuc3VEZ8+PEi+XfyYeNvqE1lRml7qG5ncyRkWS1Uijs50plmQp6A+2TbjBJcQpLaeCSSXAk8SIuPEVNPU5PwTpt0pwvS/NEsZHSWGROZBWP1aZUYmZD8dyKpxuUyuM8f3azSZEpSPP4d/PNAAK7jeR1Gt+qknOupXW6dTmntSpNh8Ofly5iWzSRRYqI6ODC+BbINXBtG37tjxnUdrPY9QGs+S6qTmXo7VtJJMGM6vkqNCaSTbDZn7Gom0J5GXuo1H9RNQAWDpiz7EtPMsyyzzC2+HxrPBMipoq+w673JkqEtphvZtKjLktRFyPZJb7mZF5EfAAFg6uM+xLU/qAyPN8GtviVLPj1TceV2HWeama2My4XB1KVls42tPki323LcjIwkZ9iS+kKBpcm23ydnUiXfrg9h3xAXVx2Eu9zj2/Lja08eXLxvtsZGI+AAAAAAAAAAAAAAAAAAAAAAAAAAAAAAAAAAAAAAAAAAAAAAAAAAAAAAAAAAAAAAAAAAAAAAAAAAAAAAAAAAAAAAAAAAAAAAAAAAAAAAAAAAAAAAAAAAAAAAAAAAAAAAAAAAAAAAAAAAAAAAAAAAAAAAADedCP+OGnn9K6n/GND39S37Ruqv8ATa8/x7wwOk13V4zqphuSXcr01dVZBXTpj3BS+0w1JbWtXFJGpWyUmexEZnt4Ix7NcMjpsw1q1Ay3HJnq6m7ym1sYEjtrb70d6W442visiUndKknsoiMt/JEYCla4fst9Nn82ZT/nbozPTfMsce6YuonMMMlyIWWwouOQm5sNZty41W/OWUztLT8yUqNDKXDL2TtvsQ0bVTPsSyTQTRHCqW29Rc4hBv2bqN2HUelXJtHH2S5qSSF8mlEr5DVtvsex+BpOnGqWf6R5ArJ9Osmk0tg5HXEeW2lDjchhe3Jp1pxKm3Wz2IzQtKk7kR7bkQDqXo+yzWvLtcunt/UNU+wxWuvLWLjVrPaJbrp9hapLKZCvvHUIVw+UzNKDPYttzIaHlpGfQhj5EXn9blx/lscT+Z1Qa7T9Qcf1Qk566rIcUSpNG6mBFRGr0qIyUTMRLRR0EZKPcib8nsZ+SIao5qbnD2FQ9O3LvfHoF07kMeH6Zn5LBxtLa3u5w5nuhCS4mo0+NyLfcB0D0NS8px6Pr5PxpEqPeQNKLR+KptJpfYcTIjK7iPqlaCI1pMvJGkjLyQ/GnWT5PP6I9U7XIbywfPGs0xqfisqS+pxUW0Up/wBQbClGfFfZJCjIv3GY8OjvVBbRsm1p1R1J1BkRc5zHCnoVVZx4ZtOv2qZERTJJKK2SGTJEfclGSE/J5Pc/MyzfXrVTWOHTYhqPnaE4/Bmk82wxWR4cSO4v5VylsQ2kE64STVus0qWZGoiPye4ddWhVlPmdv+kMqYrTNbZ6fpva4m0l2mM1mGqscjkX8Y230yZJ/XYt/H0/n2ta3FqccWpS1GalKUe5mZ+5mYvus+p+HVGiuJdNOlWcTcsoae0k5Ld3LkN6HHmWTySbbajMPETiGWW+XlZEa1urVxL6wEB0B19/tg6mfzmz/hWQyj9hfAv6x77/AAMIa/1eZ9iWqPUhnOfYLbfE6G4nNvQpfYdZ7qCYbQZ8HUpWn5kqL5kl7BfZ9iU3pRxHTWNbc8krM1treXC7DpduI9EittOdw09s91NLLiSjUXHyREZbhsHRd/36zv8Aqxy3/LXBz+LB0xZ9iWnmWZZZ5hbfD41ngmRU0VfYdd7kyVCW0w3s2lRlyWoi5Hskt9zMi8iPgOgevb9qrL/5JR/5PDH+Sv2A6z+uGf8A5LFGv9XGfYlqf1AZHm+DW3xKlnx6puPK7DrPNTNbGZcLg6lKy2cbWnyRb7bluRkYSM+xJfSFA0uTbb5OzqRLv1wew74gLq47CXe5x7flxtaePLl4322MjAR8AAAAAAAAAAAAAAAAAAAAAAAAAAAAAAAAAAAAAAAAAAAAAAAAAAAAAAAAAAAAAAAAAAAAAAAAAAAAAAAAAAAAAAAAAAAAAAAAAAAAAAAAAAAAAAAAAAAAAAAAAAAAAAAAAAAAAAAAVBvS7H19ML+tRzLD441njOLFH7iPSekVXuSTXx4c+5zQRb8+PHf5d/Il46BZ/YCmf1wxv8leEm06yvGsOv1W2VadVOawlR1slW2cqUwylZmkyd5RnG18iIjIi5bfMe5ewDx5ThOT4Wimcyas9GnIapm7rT7zbnfhOqWlt35FHx3Ntfyq2UW3ki3IYMdgdUmqumx4zp7WF07YmmXc6YV7lfYfE7Pu06XVyktoYT6jgsmlEa0m6SzMz2VyLwIrYRulYsOrF1d1qsrKzKD8SakVlamvSZqR6zsrTINxWye52uSS3MkcuO57BKQFgu4vSEnIsfTjd7rA5RKdf+PrnVNWiW232/ufSJRJNC1G54X3FJIk+S3PwBRekL7dG2d7rB9jfhJKJ74TV/E/ifePdPb9T2vT9nY+XPnz3Ljt5AR8BZKOJ0dKtrxOSX2sjdYmUgqRUGoq1vrjdpPM5JLkklLnc5kRINRceJme+5DGVMbpgVp/MdvbjVFGcExM9GzEra9VUbxGv0hOOKfJ4kmXa7hkgzIzXxJWxbhLgFWsI3SsWHVi6u61WVlZlB+JNSKytTXpM1I9Z2VpkG4rZPc7XJJbmSOXHc9vVdxekJORY+nG73WByiU6/wDH1zqmrRLbb7f3PpEokmhajc8L7ikkSfJbn4AR8BZExOjr7ZONrvtZPsn8MQbbpVFX8ROx7quaTR6ntdjtcDJXLnz5EZbbGfzxyL0hKs70stvdYWq9M3ajVXVNWt5cTgXmUTklKUO8+XhBqTtt538AI+AqNTG6YFafzHb241RRnBMTPRsxK2vVVG8Rr9ITjinyeJJl2u4ZIMyM18SVsW/7yH/RigYpXTsJlak2WWMuRHJkG9r4LFS6RbHIQTrEg3+JnuST4kex+djAaOzhOTyMJl6is1nLHoNoxTSJnebLhMeaddab7fLme6GHT5Ek0lx2MyMyI8GOz6vWXShfSfkl4jpbwpFezqBTxXKgre37Dzy66wUmQazldwloShSCIlEkycUZkZkRlyDkdlX3N/YW1VQxaSHMkuPMVsVxxxmI2pRmlpCnVKWpKS8EalGfjyZgPXjmE5Pltff2uP1nqouL13xa1c7zaPTxO80z3NlqI1/ePNJ4oI1fNvtsRmWDHYvTvq1pkrTXVlhPTbiCHKbT5pdg6Vpa8rhKbKvbUh4vU7IJS1JdPtcD5IIi2SZkcWq8g6b8zy+0uNRsTyXBKZUZhFdWYI2ieknk7k4pxVjJ5kRlsfhR+d/BEAkYCwUUXpBU1d/aa91hbdTYSCpSgVNWtK4PFPYVJ5yS4vGrnzSjkki47GfkYtuP00fqzN1631NLUL0qjKOmur/g3qeR7F3e/wB/t8dtz7e+/wBNgEzAV66i9IyYNIeO3mry5ip8QrsptVWIaRC/+5OMaJBmp0v/AKZLJKT/AIxkP1YxekIsuqEVN7rCrF1MSTt3ZFTVpnoe2LsFHQmSbakGfLma1JMi22I/ICPgLBCi9IR5jZIsb3WFOKFEYOtdZqas7BUnc+8TyDkk2lsi48TSozPzuRBRRekFTV39pr3WFt1NhIKlKBU1a0rg8U9hUnnJLi8aufNKOSSLjsZ+QEfAUxuP00fqzN1631NLUL0qjKOmur/g3qeR7F3e/wB/t8dtz7e+/wBNhksmi9IyEUf2NvNXnVqtY5XfxOqrGyRW7K76o3bkK5PkfDglfFBly3UXgBIQFgsYvSEWXVCKm91hVi6mJJ27sipq0z0PbF2CjoTJNtSDPlzNakmRbbEfkfSBE6Ojym1RZ32sicbKPGOqcYqKs5y3/n9QT6FSSbSgvu+BpUZnurkRbFuEbAVzG4vSSuPeHl95q60+mzlFRlW1VY4hdd49MqSbkhJpfPz3Eo5ILxxUYx7cfpo/Vmbr1vqaWoXpVGUdNdX/AAb1PI9i7vf7/b47bn299/psAmYCvZNF6RkIo/sbeavOrVaxyu/idVWNkit2V31Ru3IVyfI+HBK+KDLluovA/VjF6Qiy6oRU3usKsXUxJO3dkVNWmeh7YuwUdCZJtqQZ8uZrUkyLbYj8gI+MjjePXGXZFV4nj0P1drdTWK6DH7iW+9IecJttHJZklO6lEW6jIi38mRCpwInR0eU2qLO+1kTjZR4x1TjFRVnOW/8AP6gn0Kkk2lBfd8DSozPdXIi2LfbemLPtKcc1xxbF4GjtdlDU7UGD8DyK9ly49pCiLmMojmpmLIKN3EEROGRpWXNSi3UkiIBzxb1U+itZtJasdibXyHIslrklXB1tRpWndJmR7GRluRmX5Dyiz9SmoGEZTmV/TY5oxj2JzoORTjk2lfOnvPTiJ1xJk4h95bad1fOfBKfPgvHgadplnWG4Q/YO5fpDQ52iWhtLDdrNmxyiGk1cjR6V5s1Grct+W/4S228gMLm2E5Pp1ksrD8yrPh9vCQyt+P3m3eCXWkOtnybUpJ7tuIPwfjfY9jIyGDHWnXLqLgEzVXK8PZ0Px2DcLZplfadifYKmoT6KI5sTS3zYP7v7ry3+Hz+L5hL7+J0dJn0pYvfayOQlTtrpU+oq0Ooh9tfmMSJJkp3udvws0p4mo99yIjCNgLA5F6Qvtuy2ze6wHh/wxZvPKqav4kVh3C4pS36ntGx29zNRr58ti228j6VMTo6VkF6m9vtZEUaXI/wJcSoq1S1t9ku/6pKpJIQZO8iRwNRGjYz2PwAjYCq0kbpZViVkvI7rVVvKCVM+HNwqyuXAUkjV6XvLXIJxJmXDucUnt83Hl4H4mRul0tPorsC51SVnJsxPVMvVlcVSTprb9USHCfN40kju9szQRmokcuJGZkEtAWDIYvSEm3oU4pe6wuVapaivVWFTVokNxuB8Tik3JUlbnPbclmkuO/nfwDkXpC+27LbN7rAeH/DFm88qpq/iRWHcLilLfqe0bHb3M1Gvny2LbbyAj4CyVMTo6VkF6m9vtZEUaXI/wJcSoq1S1t9ku/6pKpJIQZO8iRwNRGjYz2PwPBSRullWJWS8jutVW8oJUz4c3CrK5cBSSNXpe8tcgnEmZcO5xSe3zceXgBKhnIOE5PZYfbZ9CrO5Q0cyJXz5febLsyJKXVMI4GrmrkTDvlKTIuPky3LfdLBvplY06jy6Ww1Lk5+iPEW9DnV8BFIuRzR6lHebfOR2+Hd4HwJRnx3ItzMugMR1l0of6YdR7lnpbwqPAiZRjbL9Wi3tzYluONWJodWs5RuJU2SFkkkqIj7iuRHsnYOLwGUym2rL3Ip9xTY3Dx+DLeNxisiOuuMxEH7NoU6pThkX5qUZ/vGLAAAAAAAAAAAAAAAAAAAAAAAAAAAAAAAAAAAAAAAAAAAAAAAAAAAAAAAAAAAAAAAAAAAAAAAAAAAAAAAAAAAAAAAAAAAAAAAAAAAAAAAAAAABYGs+xJPSDJ0uO2/7TuaksX6YPYd8wE1brBu9zj2/9opKePLl53228iPgAAAAAAAAAAAAAAAAAAAAAAAAAAAAAAAAAAAAAqGL6XY/d9POdatSplgi3xi+pquIw24goy2paZJuG4k0Go1F2EcTJREW57kfjYJeApHTfptRawa6YXpjk0ufGq8jtEQpT0FxCJCEGRmZoUtK0kfj6pMv3CfWEdESfJitmo0MvLbSavcyJRkW4D4AAAAAAAAAAAAAAAAAAAAAAAAAAAAAAAAAAAAAAAAAAAAAAAAAAAAAAAAAAAAAAAAAAAAAAAAAAAAAAAAAAAAAAAAAAAAAAAAAAAAAAAAAAAAAAAAAAAAAAAAAAAAAAAAAAAAAAAAAAAAAAAAAAAAAAAAAAAAAAAAAAAAAAAAAAAAAAAAAAAAAAAA6A0//AGKNXf6YYt/dzhz+LBh+fYlV9L2o2nU+27WQ32SUE+vh9h1XeYjIlk8vuEk0J4m634UojPl4I9j2DKdDP7XOln8/tf2VCL3X8MT/AOUu/wBsxS+lLOMX016i8BzvNbT4dRUtu3KnSuw492WiSojVwbSpavcvCUmYmNm83IspchlXJt19xaD223I1GZGA8wAAAAAAAAAAAAAAAAAAAAAAAAAAAAAAAAAAAAAAAAAAAAAAAAAAAAAAAAAAAAAAAAAAAAAAAAAAAAAAAAAAAAAAAAAAAAAAAAAAAAAAAAAAAAAAAAAAAAAAAAAAAAAAAAAAAAAAAAAAAAAAAAAAAAAAAAAAAAAAAAAAAAAAAAAA+8CDKtJ8asgtd2TLeQwyjkSeS1KJKS3PYi3My8n4HwFZ0B1AwjEchr63J9GMezGVNuIhxp9lOnsOwi5pLZCY7zaFefm+cj8l+XgBOsrxe9wjJ7fDMng+iuKKc/W2Ebuoc7Mllw23Ec0GaFbKSZbpMyPbwZkMWOoOq3PtJr7qDzbE7fR2vx1uFqDYJu8lo5UuRbTIzcx5EhSWZMj03cc3NexJQnkRERpTuJ/YxekIsuqEVN7rCrF1MSTt3ZFTVpnoe2LsFHQmSbakGfLma1JMi22I/ICPgLBCi9IR5jZIsb3WFOKFEYOtdZqas7BUnc+8TyDkk2lsi48TSozPzuRBRRekFTV39pr3WFt1NhIKlKBU1a0rg8U9hUnnJLi8aufNKOSSLjsZ+QEfAUxuP00fqzN1631NLUL0qjKOmur/AIN6nkexd3v9/t8dtz7e+/02GSyaL0jIRR/Y281edWq1jld/E6qsbJFbsrvqjduQrk+R8OCV8UGXLdReAEhAWCxi9IRZdUIqb3WFWLqYknbuyKmrTPQ9sXYKOhMk21IM+XM1qSZFtsR+R9IETo6PKbVFnfayJxso8Y6pxioqznLf+f1BPoVJJtKC+74GlRme6uRFsW4RsBXMbi9JK494eX3mrrT6bOUVGVbVVjiF13j0ypJuSEml8/PcSjkgvHFRjHtx+mj9WZuvW+ppahelUZR011f8G9TyPYu73+/2+O259vff6bAJmAr2TRekZCKP7G3mrzq1Wscrv4nVVjZIrdld9UbtyFcnyPhwSvigy5bqLwP1YxekIsuqEVN7rCrF1MSTt3ZFTVpnoe2LsFHQmSbakGfLma1JMi22I/ICPgLJAidHR5Taos77WRONlHjHVOMVFWc5b/z+oJ9CpJNpQX3fA0qMz3VyIti38+Nxeklce8PL7zV1p9NnKKjKtqqxxC67x6ZUk3JCTS+fnuJRyQXjiowEjAUyVH6aC0zS7Ct9TT1C9K2Zx3a6vKm9TyLmROk/3+3x5bH2999ty2HvyyR0t0jFJb6Yp1FyGziWsZ+yq8ugw4ldLhJJSnWu5DkKeI1KJCfHH5FLMlEoiAaAvCcnRhDWo66zbHX7Vykbmd5vzNQyh5TXb5dzw24hXLjx87b7kZDBjtCTrLpQXSXXXp9LeFKrl6izIiag7e37CHirIyjkkv1Xc5mlRINJq4bJIyLfcz45tZcafaTJ0KuZr48h9x1qIypSm46FKM0tpNZmo0pIyIjUZnsXkzMB5QAAAAAAAAAAAAAAAAAAAAAAAAAAAAAAAAAAAAAAAAAAAAAAAAAAAAAAAAAAAAAAAAAAAAAAAAAAAAAAAAAAAAAAAAAAAAAAAAAAAAAAAAAAAAAAAAAAAAAAAAAAAAAAAAAAAAAAAAAAAAAAAAAAAAAAAAAAAAAAAAAAAAAAAAAAAAABUNdNLsf0xj6bu0MywkHmGB1uUzvWOIWTcuQ6+laGuCE7NkTKdiVyV5PdR+NpeAAAAAAAAAAAAAAAAAAAAAAAAAAAAAAAAAAAAAAAAAAAAAAAAAAAAAAAAAAAAAAAAAAAAAAAAAAAAAAAAAAAAAAAAAAAAAAAAAAAAAAAAAAAAAAAAAAAAAAAAAAAAAAAAAAAAAAAAAAAAAAAAAAAAAAAAAAAAAAAAAAAAAAAAAAAAAAAAAAAAAAAAAAADoHq5/3PQv8Aqeof7+YOfhYOovPsSzuNpQ3ilt65WNabVNBaF2HWvTz2XpKnWvvEp57E4g+Sd0nv4M9jEfAAAAAAAAAAAAAAAAAAAAAAAAAAAAAAAAAAAAAAAAAAAAAAAAAAAAAAAAAAAAAAAAAAAAAAAAAAAAAAAAAAAAAAAAAAAAAAAAAAAAAAAAAAAAAAAAAAAAAAAAAAAAAAAAAAAAAAAAAAAAAAAAAAAAAAAAAAAAAAAAAAAAAAAAAAAB94EGVaT41ZBa7smW8hhlHIk8lqUSUluexFuZl5PwPgKzoDqBhGI5DX1uT6MY9mMqbcRDjT7KdPYdhFzSWyEx3m0K8/N85H5L8vACdZXi97hGT2+GZPB9FcUU5+tsI3dQ52ZLLhtuI5oM0K2Uky3SZke3gzIYsdQdVufaTX3UHm2J2+jtfjrcLUGwTd5LRypci2mRm5jyJCksyZHpu45ua9iShPIiIjSncT+xi9IRZdUIqb3WFWLqYknbuyKmrTPQ9sXYKOhMk21IM+XM1qSZFtsR+QEfAWCFF6QjzGyRY3usKcUKIwda6zU1Z2CpO594nkHJJtLZFx4mlRmfnciCii9IKmrv7TXusLbqbCQVKUCpq1pXB4p7CpPOSXF41c+aUckkXHYz8gI+Apjcfpo/Vmbr1vqaWoXpVGUdNdX/BvU8j2Lu9/v9vjtufb33+mwyWTRekZCKP7G3mrzq1Wscrv4nVVjZIrdld9UbtyFcnyPhwSvigy5bqLwAkICwWMXpCLLqhFTe6wqxdTEk7d2RU1aZ6Hti7BR0Jkm2pBny5mtSTIttiPyPpAidHR5Taos77WRONlHjHVOMVFWc5b/wA/qCfQqSTaUF93wNKjM91ciLYtwjYCuY3F6SVx7w8vvNXWn02coqMq2qrHELrvHplSTckJNL5+e4lHJBeOKjGPbj9NH6szdet9TS1C9Koyjprq/wCDep5HsXd7/f7fHbc+3vv9NgEzAV7JovSMhFH9jbzV51arWOV38TqqxskVuyu+qN25CuT5Hw4JXxQZct1F4H6sYvSEWXVCKm91hVi6mJJ27sipq0z0PbF2CjoTJNtSDPlzNakmRbbEfkBHwFkgROjo8ptUWd9rInGyjxjqnGKirOct/wCf1BPoVJJtKC+74GlRme6uRFsW/nxuL0krj3h5feautPps5RUZVtVWOIXXePTKkm5ISaXz89xKOSC8cVGAkYCmSo/TQWmaXYVvqaeoXpWzOO7XV5U3qeRcyJ0n+/2+PLY+3vvtuWw9+WSOlukYpLfTFOouQ2cS1jP2VXl0GHErpcJJKU613IchTxGpRIT44/IpZkolEQDQF4Tk6MIa1HXWbY6/auUjczvN+ZqGUPKa7fLueG3EK5cePnbfcjIYMdoSdZdKC6S669PpbwpVcvUWZETUHb2/YQ8VZGUckl+q7nM0qJBpNXDZJGRb7mfHNrLjT7SZOhVzNfHkPuOtRGVKU3HQpRmltJrM1GlJGREajM9i8mZgPKAAAAAAAAAAAAAAAAAAAAAAAAAAAAAAAAAAAAAAAAAAAAAAAAAAAAAAAAAAAAAAAAAAAAAAAAAAAAAAAAAAAAAAAAAAAAAAAAAAAAAAAAAAAAAAAAAAAAAAAAAAAAAAAAAAAAAAAAAAAAAAAAAAAAAAAAAAAAAAAAAAAAAAAAKh046XY/q/qO7iGSzLCNDRQ3NoS4LiEO92JAekNlutCy4mtpJKLbcyM9jI/JBLwAVTSDQPNM7zLAiyPBsuh4PleS1dLIv2Kx1uMTMmW2ws2pK21M89lnxM+RctvB+wCVgOjMn6YqpnTzOr7CGMou8ix7Vl3AqquYSmScqEliS4S1NNNdxb/wBwnygyTty+T6lCcoxHK8Itl0GaYxbUFm0klrhWkJyK+lJ+xm24klER/Q9gGJAVDS3S7H830v1ZzW1mWDU7A6aBY1zcdxCWnXH7BmOsniUgzUkkOKMiSaT5EW5mXgS8AAAAAAAAAAAAAAAAAAAAAAAAAAAAAAAAAAAAAAAAAAAAAAAAAAAAAAAAAAAAAAAAAAAAAAAAAAAAAAAAAAAAAAAAAAAAAAAAAAAAAAAAAAAAAAAAAAAAAAAAAAAAAAAAAAAAAAAAAAAAAAAAAAAAAAAAAAAAAAAAAAAAAAAAAAAAAAAAAAdAdDn/ABxkf0Pyj/J5Q5/Fg6Vc+xLTbVV7JM0tvh1cvG76AT3Yde3fkVr7LKOLaVK+ZxxCd9ti33MyLcwEijpZU+2mQs0tGtJLUXuSd/J/9B/QfOsw1Mpv0ouM4TitxasY/X32O1NZURn1+hRRenjGtLbRHwNrsm45vtsSiNXuW5fz1Fkr+sPqRqqmkpoWp0lDWOpjt1r64ERctlphaVtMnKU0b62SNKd2lrNBkXE0mnwA6JzrI8xxjpt6h5+Gz5sFx3XaRGnyoa1NusxFk/y+dOxoJS+0gzIy3JZpPwoyOX9QNra5P0i9PmT5pOkzsiXIyaDHmzHFOSZFYzKZ7RLWrdSkIWpaUbn4LciE0oup7XTGmrdikztcZm/v3cntGfh8RbU2wcQtDi3UKaNK21JcXuyZdrfY+G6UmWu6m6u6i6xXEW81GyZ22kwYqYUNBMNR2IsdJmZNssMpQ00nczPZCSLcBUOn3/gB1Hf0Wp/85jDn8WDR3PsSxXSDWvFr629LaZdQ1sKmY7Dq/VPNWbDzieSEmlGzaFK3WaSPbYjM9iEfAAAAAAAAAAAAAAAAAAAAAAAAAAAAAAAAAAAAAAAAAAAAAAAAAAAAAAAAAAAAAAAAAAAAAAAAAAAAAAAAAAAAAAAAAAAAAAAAAAAAAAAAAAAAAAAAAAAAAAAAAAAAAAAAAAAAAAAAAAAAAAAAAAAAAAAAAAAAAAAAAAAAAVDUbS7H8Q0Y0j1FrZlg7ZZ9DupFk0+4hTDSoliuM2TJJQSkkaEEauSlbq322LwJeOgNcP2W+mz+bMp/zt0B/nSn00q1xPL8nyLG85sMYxCkfndvFoHdl2c9KmibgMOLbW2TppdNZp4qVxTuSdj3LTcr0wW+rEqbANMdTUXt8qwbOLa13dOwcZlOIQmAhppK3DbQjg94UZOpXtxItio/SPZ2ULTvqFTDsJLBN6bvvIJp1SSS562KXMtj8K28b++wu+h7jjuadDjrq1LWuNkKlKUe5qM7CVuZn9QHDE/TPUeqxaPnNpp/kkPG5fH09xIqX24L3L8PB9SCbVv9NleR9cV0p1RzqBItcI02ynIYUQzTIk1VPIltMmRbmS1tIUST2/Mx0T08ZtlWdzupVvLL6bZR7HS3IbJ6NIeUtn1DEmMphaUGfFJt8jJGxFxI9i2IZqRIiaVYLojhWV5hq7kV/fUkfJcbpsLuYlJCrG58pfYbSo4zy5MlTiDNSjItjMkkZgOSavEcsvE2C6TGLawTUpSuwOLCddKIlThNpN3ik+2RuKSguW26lEXuew9WXad6gafuRmc9wXIcbcmoNyMm3rH4ZvoLbdSCdSnkXkvJfmQ/oHqPZzME6gOtK3xNz4ZMYxCHIZejfItp59UE1vIMvwucnFLJZbGSj5EZHsYh+ES2ct6L6qNn9o/NrYmulVHW7MfUs48R+uc9SlK1HulCiLkZEe25b+/kBzm7pdqYxiaM9f06ydvGVkSk3S6iQUBRGexGUg0ds/Pj8Q/zENMNS9QWpL+BaeZNkrcL/eV1FTImJY8b/ObSFcfH5jqLXHUPqVgdaeomG6cyrmXKS9Y0sLGyb78FVGUZRJa9Gv7nslFInC+XYvx+/kZ/Ocu0t046cen+NaV2pnwuxx+VZtP4flLNTFctSlrKWp4lRnVOSEK4J5Gr5U8UkRbeQ4dlRJUGU9CnRnY8iOtTTrLqDQttaT2NKkn5IyMtjIx9Kurs7uziUtLXSZ9hPfbixIkVlTr0h5aiShttCSNS1qUZESSIzMzIiFg6uc9LUrV48rf08vsPnP01a1NjXqiVOmuoYSSZrpk00SlPNdpRqJBEr8ReDEZZeejPIkR3VtOtKJaFoUaVJUR7kZGXkjI/qArGrfS7rHpFmKMOtsGyGc67Vt2rUmNTSey82mGzJl9tRo2WUXvcHlFuSFJPlxGlr0u1MbyOLhzmneTJv5rCJUaqOpkFMfZUW6XEM8OakGRGZKItjId/yb+0g/pIMym+pXITWaduyYzMg+40lRYtHWfyK3TspSfJbbH9dxzx082mRz8M1i11z7VjOGKqmgVtTdJpJLarq4OfJUTTJTJCVnGaJbRqWoiMz8ERK9gHPOV4TmeB2RU2cYjdY7YGgnCiW0B2I8aDPYlcHUpVtuR+dvoPdZ6XamUmMx81udOsngY9LJJx7eVUSGoTpK/DwfUgkK3+mx+R2+7HwTPNHumewt6fKk4zM1eOubVmVu1aSV1rjkcnkE+hhlJRlLQouHHwaVnuZbbR7UrUvqdm9RGtmNUNje2y5TmQV91TyUnKiM0rTqyUfYd3bbbaaSg0OERGgtjSZb+QnGtGjNVgkTSVOHHcWdhqFhcDIJEZ3i8s50iQ+12Y6G0JVxPtIJKT5K3M/J7kRaPX6X6mW2VSsFqtO8nm5JBUpMqmj1EhycwaT2US2EoNxJkZlvukttx/Qytq8dfwPS2ZgVu2rX39SUX7CQZkTdhpDUiQqQ7HcM+KrBbS3yYIyMkGyoz8qSZR7SO7xDEuh7KMty6FnMqZa6nJr8kfxm8brLE2kwCcjplvOsOqUwbq3z4mRbuqLc9y2AcnPae5/HyxrAX8HyBvJ3nUst0q6x4p63FFulCY5p7hqP6ESdzHmvcOy7F4tfOybFreoj27Sn692dBdjoltpPZS2jWkicSRnsZp3Lcdt4DqrU6ka3dLMOr08zmrjUd6/HrcjyuxTPk3EJUlOzKZKWGidRHcJ1JbcuBOcfA5K1py3Ls81Lyi1yCzn2PprWYTSHHFrahsk8okttp/C02kiSlKUkSSJJEReCAYal001HyXH5uWY7p/klrR1vL1tnCqn34kbiW6u48hJoRsXk9zLYh0dnXSPgWPZrrhi1HZ5PLLTfFKO7pEreZcelS5rcJS23iSyXNPKUskpQSFeE7mfnf9dRWYZ/geLdNtRpZkN1UVSdOa22gN1UhxtDt2/KfOYskoPZbpuE2RkZGfki+o6M1Ltstx7qC6wbjGEuRL6BpvRvNqiFsuIpMKvNxxo0+UKbTzWlReUmglEZGRGA/m/l+neoGnzsZjPcFyHGnZqDcjIt6x+Gp9BbbqQTqU8i8l5L8yG4dTWl2P6Ma1X2nGLzLCVWVbFc6y7PcQt9RyIEeQvkpCEJMiW8oi2SXgi33PczqcPIchzHoDzCRn1xPtUUuodWnHZNg+t5bUh2K8cplpazMySbZJWaCPbc+W257jXevb9qrL/wCSUf8Ak8MBz8AAAAAAAAAAAAAAAAAAAAAAAAAAAAAAAAAAAAAAAAAAAAAAAAAAAAAAAAAAAAAAAAAAAAAAAAAAAAAAAAAAAAAAAAAAAAAAAAAAAAAAAAAAAAAAAAAAAAAAAAAAAAAAAAAAAAAAAAAAAAAAAAAAAAAALBqpn2JZJoJojhVLbeoucQg37N1G7DqPSrk2jj7Jc1JJC+TSiV8hq232PY/Aj4ANjxPUPMMHrsiqsXuPRRcsrFU1w36dpz1MNTiHDb3WkzR8zaD5INKvHvsZjP0XUBq5jUzBp9Jlvpn9NUSEYuv0EVfw9L7i3HS2U2ZO8luLP73ntvsWxEQno+8CDKtJ8asgtd2TLeQwyjkSeS1KJKS3PYi3My8n4AZ7EtSc0wVzIncVuvQqyunlUFufpmnfUwJCkqea+dKuHI20fMjiotvBl5G01nUvrhT4NG05rs8fao4Ud6JDScOMuVEYd37jTEtTZyGUK5GRpQ4ktjMtthouV4ve4Rk9vhmTwfRXFFOfrbCN3UOdmSy4bbiOaDNCtlJMt0mZHt4MyGLAVHIOp3XDKo9pHyDNimfG6NnG7J1VZDS9Lr2loW2266lolrUSm0femfcMkkRqMvA1FvUPMWdPH9KW7jbFpNw3fuwPTtfNPQyplLvc49wtm1qTxJXHzvtv5GuAArkvqz6iJ+HrwaXqbOcrHa/4S64caOU1yFtt6dc0m/Uqa28Gg3DSZeNtvAx2nvUjrRpbjx4nhuZEzS+pOa3Xzq6JYsMSDLy6yiU04TKz+qm+Jn+YmgAKnU4+rXGfb5/qV1D4nS302afqVZS5ZOS5h8E7OkqNEeTwIvkIjURlw2JJERD6X2iOG01JPtofUxphbvw47j7cCCVx6iUpKTMmm+5AQjmrbYuSkp3PyZF5EoABWpXVdr7Nl1VhMzwn5lLUSaGJKcqoSnygvsEw6044bPN7doiSSnDUpPukyPyNY001k1I0fk2UnT7I/hybiOUWxjvRGJkWY0lXJKXY8hC2nOJ+SNSTMtz223MaYAClXvUhrVk2MXeGZDnL1jTZDOZspsWTEjrJMhpCENrYUbfKNxQ02giZNBcEEnbj4GRybqx6hcxxSVhmR6lzZdbPjIhzl+ljNy5rCCIiakS0NlIfRsRbpccUR7edxJAAbjY6w6k2llh9xKyl9M7AYMatxyQw00w5Xx47qnWUpU2lJqNK1qVyXyUe/kzIiIZ+n6mdbaDL8lzinzNEazzFzu37aaqEcGyXvy5vQjZOMpXI1K37W/JSj91GZy8AFGseonWa21Fo9V7HOJD+TYybR08lUWP2YBNmZoQzGJHYQgjMz4E3x3Mz2GGo9V8/xyNl0Omv/Ts53FVCyBPpWF+sZU6Tpp3Ugzb+ciPdvif0328DUgAVHEup/XbBsLY09xfUCREooa3XYLC4cZ92vW4e61RX3W1PRTMzNW7K0eTM/c9x+2eqTXuNlWQZxE1Dkxr7KIcGBaz2IkZp2QxDJoo6SNLZdviUdojNHE1Ek+Rq5K30deE5OjCGtR11m2Ov2rlI3M7zfmahlDymu3y7nhtxCuXHj5233IyGDAUDUrXvVjV2sraTPcrKbWU61uwoEWBGgRWnF/ic7MZtttTh/VZpNXk/PkxsHVxn2Jan9QGR5vg1t8SpZ8eqbjyuw6zzUzWxmXC4OpSstnG1p8kW+25bkZGI+AAAAAAAAAAAAAAAAAAAAAAAAAAAAAAAAAAAAAAAAAAAAAAAAAAAAAAAAAAAAAAAAAAAAAAAAAAAAAAAAAAAAAAAAAAAAAAAAAAAAAAAAAAAAAAAAAAAAAAAAAAAAAAAAAAAAAAAAAAAAAAAAAAAAAAAAAAACs6A6gYRiOQ19bk+jGPZjKm3EQ40+ynT2HYRc0lshMd5tCvPzfOR+S/LwJMADqDqtz7Sa+6g82xO30dr8dbhag2CbvJaOVLkW0yM3MeRIUlmTI9N3HNzXsSUJ5EREaU7if2MXpCLLqhFTe6wqxdTEk7d2RU1aZ6Hti7BR0Jkm2pBny5mtSTIttiPyI+ACwQovSEeY2SLG91hTihRGDrXWamrOwVJ3PvE8g5JNpbIuPE0qMz87kQUUXpBU1d/aa91hbdTYSCpSgVNWtK4PFPYVJ5yS4vGrnzSjkki47GfkR8AFMbj9NH6szdet9TS1C9Koyjprq/4N6nkexd3v9/t8dtz7e+/02GSyaL0jIRR/Y281edWq1jld/E6qsbJFbsrvqjduQrk+R8OCV8UGXLdReBIQAWCxi9IRZdUIqb3WFWLqYknbuyKmrTPQ9sXYKOhMk21IM+XM1qSZFtsR+R9IETo6PKbVFnfayJxso8Y6pxioqznLf8An9QT6FSSbSgvu+BpUZnurkRbFvGwAVzG4vSSuPeHl95q60+mzlFRlW1VY4hdd49MqSbkhJpfPz3Eo5ILxxUYx7cfpo/Vmbr1vqaWoXpVGUdNdX/BvU8j2Lu9/v8Ab47bn299/psJmACvZNF6RkIo/sbeavOrVaxyu/idVWNkit2V31Ru3IVyfI+HBK+KDLluovA/VjF6Qiy6oRU3usKsXUxJO3dkVNWmeh7YuwUdCZJtqQZ8uZrUkyLbYj8iPgAskCJ0dHlNqizvtZE42UeMdU4xUVZzlv8Az+oJ9CpJNpQX3fA0qMz3VyIti38+Nxeklce8PL7zV1p9NnKKjKtqqxxC67x6ZUk3JCTS+fnuJRyQXjioxIwAUyVH6aC0zS7Ct9TT1C9K2Zx3a6vKm9TyLmROk/3+3x5bH2999ty2HvyyR0t0jFJb6Yp1FyGziWsZ+yq8ugw4ldLhJJSnWu5DkKeI1KJCfHH5FLMlEoiEkAB2hJ1l0oLpLrr0+lvClVy9RZkRNQdvb9hDxVkZRySX6ruczSokGk1cNkkZFvuZ8c2suNPtJk6FXM18eQ+461EZUpTcdClGaW0mszUaUkZERqMz2LyZmPKAAAAAAAAAAAAAAAAAAAAAAAAAAAAAAAAAAAAAAAAAAAAAAAAAAAAAAAAAAAAAAAAAAAAAAAAAAAAAAAAAAAAAAAAAAAAAAAAAAAAAAAAAAAAAAAAAAAAAAAAAAAAAAAAAAAAAAAAAAAAAAAAAAAAAAAAAAAAAAAAAAAAAAAAAAAAAAAqGuml2P6Yx9N3aGZYSDzDA63KZ3rHELJuXIdfStDXBCdmyJlOxK5K8nuo/G0vHQPVz/uehf9T1D/fzBz8AAAAAAAAAAAAAAAAAAAAAAAAAAAAAAAAAAAAAAAAAAAAAAAAAAAAAAAAAAAAAAAAAAAAAAAAAAAAAAAAAAAAAAAAAAAAAAAAAAAAAAAAAAAAAAAAAAAAAAAAAAAAAAAAAAAAAAAAAAAAAAAAAAAAAAAAAAAAAAAAAAAAAAAAAAAAA+8CDKtJ8asgtd2TLeQwyjkSeS1KJKS3PYi3My8n4AfABlMrxe9wjJ7fDMng+iuKKc/W2Ebuoc7Mllw23Ec0GaFbKSZbpMyPbwZkMWAAAAAAAAAAAsHUXn2JZ3G0obxS29crGtNqmgtC7DrXp57L0lTrX3iU89icQfJO6T38GexiPgAAAAAAAAAAAAAzi8JydGENajrrNsdftXKRuZ3m/M1DKHlNdvl3PDbiFcuPHztvuRkMGAAAAAAAAAAAAAAAAAAAAAAAAAAAAAAAAAAAAAAAAAAAAAAAAAAAAAAAAAAAAAAAAAAAAAAAAAAAAAAAAAAAAAAAAAAAAAAAAAAAAAAAAAAAAAAAAAAAAAAAAAAAAAAAAAAAAAAAAAAAAAAAAAAAAAAAAAAAAAAKzoDqBhGI5DX1uT6MY9mMqbcRDjT7KdPYdhFzSWyEx3m0K8/N85H5L8vAkwAOoOq3PtJr7qDzbE7fR2vx1uFqDYJu8lo5UuRbTIzcx5EhSWZMj03cc3NexJQnkRERpTuJ/YxekIsuqEVN7rCrF1MSTt3ZFTVpnoe2LsFHQmSbakGfLma1JMi22I/Ij4ALBCi9IR5jZIsb3WFOKFEYOtdZqas7BUnc+8TyDkk2lsi48TSozPzuRBRRekFTV39pr3WFt1NhIKlKBU1a0rg8U9hUnnJLi8aufNKOSSLjsZ+RHwAUxuP00fqzN1631NLUL0qjKOmur/g3qeR7F3e/3+3x23Pt77/TYZLJovSMhFH9jbzV51arWOV38TqqxskVuyu+qN25CuT5Hw4JXxQZct1F4EhABYLGL0hFl1QipvdYVYupiSdu7IqatM9D2xdgo6EyTbUgz5czWpJkW2xH5H0gROjo8ptUWd9rInGyjxjqnGKirOct/5/UE+hUkm0oL7vgaVGZ7q5EWxbxsAFcxuL0krj3h5feautPps5RUZVtVWOIXXePTKkm5ISaXz89xKOSC8cVGMe3H6aP1Zm69b6mlqF6VRlHTXV/wb1PI9i7vf7/b47bn299/psJmACvZNF6RkIo/sbeavOrVaxyu/idVWNkit2V31Ru3IVyfI+HBK+KDLluovA/VjF6Qiy6oRU3usKsXUxJO3dkVNWmeh7YuwUdCZJtqQZ8uZrUkyLbYj8iPgAskCJ0dHlNqizvtZE42UeMdU4xUVZzlv/P6gn0Kkk2lBfd8DSozPdXIi2Lfz43F6SVx7w8vvNXWn02coqMq2qrHELrvHplSTckJNL5+e4lHJBeOKjEjABTJUfpoLTNLsK31NPUL0rZnHdrq8qb1PIuZE6T/AH+3x5bH2999ty2HvyyR0t0jFJb6Yp1FyGziWsZ+yq8ugw4ldLhJJSnWu5DkKeI1KJCfHH5FLMlEoiEkAB2hJ1l0oLpLrr0+lvClVy9RZkRNQdvb9hDxVkZRySX6ruczSokGk1cNkkZFvuZ8c2suNPtJk6FXM18eQ+461EZUpTcdClGaW0mszUaUkZERqMz2LyZmPKAAAAAAAAAAAAAAAAAAAAAAAAAAAAAAAAAAAAAAAAAAAAAAAAAAAAAAAAAAAAAAAAAAAAAAAAAAAAAAAAAAAAAAAAAAAAAAAAAAAAAAAAAAAAAAAAAAAAAAAAAAAAAAAAAAAAAAAAAAAAAAAAAAAAAAAAAAAAAAAqHT5pdj+rGSZLT5FMsI7NNh15kLCoTiEKVJhRFvNJUa0KI2zUkiURERmXsZH5EvHQHRd/36zv8Aqxy3/LXAHP46l1R6XOnHRzOp+m+e9Vt1EvaxuKuW2xpy4+yjvx230bOJnfN8jqN9i99/A5aH9BeqzKulJPWTa4vrRo1kEpx52iYuMniZethptlytibOlCTHPw22pBKInt1cDUWxnxAc+y+kaXG1x050ujaiV9ljmqSIsvH8rgQnFtvQ3lqR3FRnFIWhxCkmSmlKIy8eR9LnRTpMobidR2PVxkCZVdJdiPknTJ5RE42o0qIj9d5Lcj8iyrssyj/pFdKtPMix2roabBLaupMWr6pS3IfwclG5HkNurUpTxvJc7inFGZmZmR7GkyEt1D1o6c4uf5NGm9GuPTZDVxNQ9JVmd4g3lk+slLNKZBJSaj3PYi2LfwAjOM6cHqBq9A0t05tXblu6vE1NTYOwzjHIZW9wRJWzyUbRcPvFJNR8SI9zPbcbZ1O9PZ9O2cQMer8yYy+huqxu0qb6PE9M3LbNa23E9vuOElSHW1pMuZ+OJ+OWwsHRFj1LSI1K6lLS+pcIi47XyKHEp9s6+cSHeWLbiGjJSEOOrNhjnuRJNR9xJn9TLKZxpzRZb0Tro6TVrEs/yPRa3dtmF0Cpals4/YLSl9tZSWGlHwk7O8k8iSnffb6hPZ/TRohiGFYJkup/UjZY7Y53j7WQRoEfBnJ7cdla1o4qeRLSZ7KQrzwI/3DUNSOm6ywV/EbylzSpy7Bs5lFEpsoqUOdpThOJQ4y+w4SXGH0ciM2l+5exnsrbcOrv/ALgdOv8AVdE/xcgbRRV87B+i/BaTMGXIk7N9X4uQ47CkFxdVXR4hMPTEpPySFOLQgj9lFsZeDIzCW9V3TXN6YNR2cJPKkZPWzYfq4Vu3C9Kl40OuMPtG33HOK23mXEGXM/HE/G+w9ea9LU3BulzFOo61y9Hq8qtmYKMc9BsuPFeRMWxKVI7nnmUJRkjtl8q0ny+h9O6xYJO6p811I0arnS+0unerLkmvcUW5oobiWiPNMi+qGJJMvqP6E6s/zGh9RmoVXqT0yZtcY0RIxqs1jqqLHGUn8jVTCoZMeKSS+nJtslmX/iWoBpmonS907aS5A1iOoXVTcwLv4fDsH40bTtyS22mSwh5CScTOIlfKsvoQhGpdDp3juQNwNMtQpmZVKoqHF2EqjVVLS+alEprsqddMyIiSfPl55GW3jz2B1kaoaKYzrQVPmfTJS5latY5RKdt5OT20Jx5Kq5g0pNqO8ltPFJknci87bn5HHWc3GOZflciywPTxnE615CCZpoc2TOQ0aUES1E5IUt1XIyNR7nsW/jwQD549pxqHl0aPMxTA8iuo8yaqtju11W/JQ9LS33VR0KbSZKdJv5zQXzcfO23ke+JovrFYWlpRwNJ8yk2NGSVWkNmilLfgkot0m+2SOTRGXkuRF4FtpMmvcc/R1WTdFaSIB2msCYcpyO4ba3GPg6XDaNReeJrbbUZfU0EKLqzqZnjeqHSO2zlVm3yw3ErR40SVpORLdmuMuPOmR7uLU1HaQZq3M0p29jMBxximC5vnlm5S4Pht5kVi02bq4lTXPS3koI9jUaGkqUREZ++womqOitdp5obpfqC+i6i5JmE/I4VzAnklCIiq+Qw02lDRtpcbUZOq5ktSvJFsSfJH0frjKsMH0Y6iLLTyVIqbCf1Byqq6erlqZcKpQ1JdYaUpGxpa9QZ7F7b+BPepq6y7Iuj/AKZLnNpcuXYvnlqUSpilKffjolxEMqWpXlWzaEpSZ+6Ep+mwCRaO6XY/qFiWqd9dTLBmRhGJnfV6YriEodkesjs8XiUhRqRxeUeyTSe5F523I5eOgOmL/hv1Cf1cH/mcIc/gAAAAAAAAAAAAAAAAAAAAAAAAAAAAAAAAAAAAAAAAAAAAAAAAAAAAAAAAAAAAAAAAAAAAAAAAAAAAAAAAAAAAAAAAAAAAAAAAAAAAAAAAAAAAAAAAAAAAAAAAAAAAAAAAAAAAAAAAAAAAAAAAAAAAAAAAAAAAACwdMWfYlp5lmWWeYW3w+NZ4JkVNFX2HXe5MlQltMN7NpUZclqIuR7JLfczIvIj4AA2TUbUfM9Wsxn5/qDc/Fb6zSwiVL9O0x3CZZQy38jSUoLZtpCfCS323PczMz1seqoiNz7WFBeUom5MhtpZpPyRKURHt+/yA3pPUJq+m6wbIzy7naabR24eMzHK+Kt6Ew2rk20pSmzN9CDM+KXuZJIzItiMyG8u9dvU484t57MsfcccUalrVhFEZqM/czP0fkxo/UVpzSaRa45rpnjcqdJq8ctnYEV6ctC5C207bG4pCUpNXn6JIv3CdAN9zfXXVLUXH1YplmRsv07l09kK4UWsiQ2l2LrZNrfMo7SN1cEkkiPwkvCSLcxiME1KzXTSVbS8Kuvh672pk0VklUdp9uVAkERPMLQ6lSTSrYvO25GRGRkZbj1saM6wSoFTaRdKMxehXzqGKqS3RSlNT3F+UIYWSNnVK+hIMzP6DK02lthlOHU0bF9O8/n5ha5JIqEPNwDcqn0oYSv0zXFvuHLQfNbieRklvY+JeTAbPj/Wf1GYxjVNiNRmtYVXj8RECsbk4vUynIzCdzShLr0ZTngzM9zUZ7n7if5rq3qTqNmTeoGdZjY3l+yttbMyYsnDa7auSEoQZcEII/JISkk+T8eTFBzTpzutIcz1BwXUjCc8sJGOVMmXUWVNVrahuduQhtNg+bzZmdefzpNxBl85oLl7kJpW6a6i3WMS82p8ByOdjsDl6u3jVT7sKPx/F3H0pNCNvruZbAM/A6gdYKvUDJdUq3NX4uUZfGmxLqwZjMIOU1LL79PAkcEctiMjQlJpMiNPEyIxryNQMub0/e0sRbbYu/cN37kDsNfNPQythLvc49wtm3Fp48uPnfbciMfV/S/UuLOtayTp3kzUyiVGTax3KiQl2AchSURyfSaN2jcU4hKORFyNaSTuZkPhl+n2e6fSmIWe4Rf41IlN91hm3rXoa3Uf+JKXUpNReS8kAryuu7qgcbYbk51TSfTsNxm1ycPpHnCbbSSUJNa4hqPZJEXkz9hrMrqn1ylag12qZ5ZBj5NUwH6yJMiUFdGSiM8hxDiDZaYS0szS64XJSDUW/gy2LbVHdJNVmcVLO3tMcsbxpTZPFcqpZJQTQfsrv8O3t+/lsPhR6Y6lZPCj2WN6e5LaxJZSDjyIVS++06Uckm+aVoQZK7ZLQa9j+UlJ323IB+P1h5h+rs9KPi/8A2VO6+0PoPTtfwh2Ox3u7x7n+y+Xjy4/XbfyPbb6tag3triN3a5B35uCV8Kqx930jCfRxYjqnY7eyUETnFa1HycJSj32UZlsQ+OK6U6o51XybfCNN8pyGDDM0yZVVTyJbTJkW5ktbSFEnx58mNYcbcZcUy82pDiFGlSVFsaTL3Iy+hgKdjfU1rhiWVZXmVFnCmrLOZDkvIkvV8SRFsnluKcNbsV1pTBmS1rNOzZceR8diMYjUbXDVTVquqanUXL37qLRvy5Feh5hlBx1Se33SSpCEq4bMNElBmaUJQSUEkvAy+W6XY/Q9Pmn2rEOZYLt8subyumsuOIOM23D9N2jbSSCUSj76+RqUoj2TsRed5eAsGhOfYlhuE6x1GSW3o5eVYUdRUN9h1z1Mv18V3t7oSZI+RpZ8lmlPjbfcyI4+AAAAAAAAAAAAAAAAAAAAAAAAAAAAAAAAAAAAAAAAAAAAAAAAAAAAAAAAAAAAAAAAAAAAAAAAAAAAAAAAAAAAAAAAAAAAAAAAAAAAAAAAAAAAAAAAAAAAAAAAAAAAAAAAAAAAAAAAAAAAAAAAAAAAAAAAAAAAAAAAAAAyON/94qv+Wsf3hDHD20khmHdQJchfBpiU044rYz2SSyMz2Lz7EAsXW7+1rqp/SOT/APoJpp3VwLDO8Wj5AwZU8y6hx5a3CMm1MqfQThGft+Ez3G39U2bYxqP1EZ/nWGWfxGju7p6XAldlxnvNK22VwcSlaf8AkpJGNSm6k5nY4BV6Wzrk3cXprB+0hQCjtJ7Ul5JJdX3SR3Fbkki2Uo0lt4IgHeOFZ/rA/wDpWZ2LfF7d+tTk0ytcqFurVDbqGGlqZ2ZP5EoQ2hp1BkRbLJKi8n5mMWQ/F6eMCfjPuMuJ6grDZaFGlRbx4pH5L9xmQ3XFuqjA8Zymj1KteqnIsopMdhsyGMQmYmTORWEhpn7mHNtGmUtPsofJK+S3llshPyciJQ4usNVs8scUZwd28NuijXz+Sx4jTDaDZsXUJQt5LpJ7v4UJIkmviW25ER+QHZN/MmSteetVEuU88ljEb1tonFmom0fEopklO/sXn2LwNL6gsz1Mwm/6dcc0pt7WJAZ04xqbSV0F1aY82fKNZyFKaSfF1bzxmhwjI+X4TLbwIpkvVNrtmE25ssizZuVLyKjXjlq+VRBbcmV63EOKbcUhkjNRqaQfd/2ny7cttyFj0y1exVWk2KYdN6t7vCodW2+zbUthifxKXGStw+58HnssKcYQ42e3BTrXFRq8mRgLfrTkVziOpnW9d49OcgzmKfGWmX2VcVtE45EaUaFF5SokrVsotjI9jLYyIRrTl2FmnSjpkxqNOXYVkbqCj1brs503OxWvwI65DRKUfytmfJRl7bmZiU66dTWR6jaoar5Jhsh6oxrU+RHZnQH47K3ZEKIps4pLUaVG2ojZQs+2ovO5bqL3mh6h5ienadJzuP8Asqm6PIigena8WBsEwb3d49z/AGREnjy4fXbfyA7RxfO9XZ36UKfilhc3D0CRmljRyKZ15aoa6FJuoSypgz7ZsFEJKyI07bESvfyNH1Fy6xw3oqx2k0+vpUCpsdTMkYJ6HIU2t+E2hnttmtJ8lNq3Qo077GaEGZGaS2kUvq66ip2Pu45K1LlLZkQPhb030MUrJ2Jx49lc8mvVLQaS2MjdPcvB+BoU3UPMLHA6zTKZb9zGqafItIUL07RdqS+lKXV9wk9xXIm0FspRkW3gi8gO0tZM70t0wwzQWskwNV2oidO6i2qn8Py1iqgnNdNa5bnaOK4Zyu/yNxXLfygti288zdV+Y/b7X3Ksud06tMGl2LkdybSWaeMpmSUdtLrjhdtvZTqiN0/kLc3DP6jz4J1Qa6abY3FxHEs6Nmor3lyIEaZWxJ5QHVHupcZUlpxUczV8xm0afJmfv5E6vb26ye5m5FkVrKsrSyfXJlzJTpuPPuqPdS1qPyZmZ+5gLlqR+xdov/SnLP8A9gOfxYM2z7Erfpi0x08rrbu5Bj19kM2yh9h1PYZk+k7Cu4aSQrl2nPCVGZcfJFuW8fAAAAAAAAAAAAAAAAAAAAAAAAAAAAAAAAAAAAAAAAAAAAAAAAAAAAAAAAAAAAAAAAAAAAAAAAAAAAAAAAAAAAAAAAAAAAAAAAAAAAAAAAAAAAAAAAAAAAAAAAAAAAAAAAAAAAAAAAAAAAAAAAAAAAAAAAAAAAAAAAAB94EGVaT41ZBa7smW8hhlHIk8lqUSUluexFuZl5PwPgKzoDqBhGI5DX1uT6MY9mMqbcRDjT7KdPYdhFzSWyEx3m0K8/N85H5L8vACdZXi97hGT2+GZPB9FcUU5+tsI3dQ52ZLLhtuI5oM0K2Uky3SZke3gzIYsdQdVufaTX3UHm2J2+jtfjrcLUGwTd5LRypci2mRm5jyJCksyZHpu45ua9iShPIiIjSncT+xi9IRZdUIqb3WFWLqYknbuyKmrTPQ9sXYKOhMk21IM+XM1qSZFtsR+QEfAWCFF6QjzGyRY3usKcUKIwda6zU1Z2CpO594nkHJJtLZFx4mlRmfnciCii9IKmrv7TXusLbqbCQVKUCpq1pXB4p7CpPOSXF41c+aUckkXHYz8gI+Apjcfpo/Vmbr1vqaWoXpVGUdNdX/AAb1PI9i7vf7/b47bn299/psMlk0XpGQij+xt5q86tVrHK7+J1VY2SK3ZXfVG7chXJ8j4cEr4oMuW6i8AJCAsFjF6Qiy6oRU3usKsXUxJO3dkVNWmeh7YuwUdCZJtqQZ8uZrUkyLbYj8j6QInR0eU2qLO+1kTjZR4x1TjFRVnOW/8/qCfQqSTaUF93wNKjM91ciLYtwjYCuY3F6SVx7w8vvNXWn02coqMq2qrHELrvHplSTckJNL5+e4lHJBeOKjGPbj9NH6szdet9TS1C9Koyjprq/4N6nkexd3v9/t8dtz7e+/02ATMBXsmi9IyEUf2NvNXnVqtY5XfxOqrGyRW7K76o3bkK5PkfDglfFBly3UXgfqxi9IRZdUIqb3WFWLqYknbuyKmrTPQ9sXYKOhMk21IM+XM1qSZFtsR+QEfAWSBE6Ojym1RZ32sicbKPGOqcYqKs5y3/n9QT6FSSbSgvu+BpUZnurkRbFv58bi9JK494eX3mrrT6bOUVGVbVVjiF13j0ypJuSEml8/PcSjkgvHFRgJGApkqP00Fpml2Fb6mnqF6Vszju11eVN6nkXMidJ/v9vjy2Pt777blsPflkjpbpGKS30xTqLkNnEtYz9lV5dBhxK6XCSSlOtdyHIU8RqUSE+OPyKWZKJREA0BeE5OjCGtR11m2Ov2rlI3M7zfmahlDymu3y7nhtxCuXHj5233IyGDHaEnWXSgukuuvT6W8KVXL1FmRE1B29v2EPFWRlHJJfqu5zNKiQaTVw2SRkW+5nxzay40+0mToVczXx5D7jrURlSlNx0KUZpbSazNRpSRkRGozPYvJmYDygAAAAAAAAAAAAAAAAAAAAAAAAAAAAAAAAAAAAAAAAAAAAAAAAAAAAAAAAAAAAAAAAAAAAAAAAAAAAAAAAAAAAAAAAAAAAAAAAAAAAAAAAAAAAAAAAAAAAAAAAAAAAAAAAAAAAAAAAArHTlojT65ZFlFdkOdO4nVYlidjls6e1UnYr9PD7ZuISyTrRmZpWZkfL+Ltt53Lc6Xpf001RVIpOn3qJh5flrbDkmNjlzjj9HKsUtpNS0RXFOutOO8SMybNaTMiM/YjAc6ANxLF6xrSudkcrFsyTcxciarfinp0lRstGwtSozqjRzKYa0kpKeZF20r+XfyPjK0k1Vg4unOJumWWR8cWgnE3DtLJRCNB+yifNHb2Pctj3+oDVAGwYjp3qBn65TeB4LkOSKgoJ2UmorH5hsIPfZS+0lXEvB+T29jH7a011GelwIDOAZI5JtYj0+AymqfNyXFZ5915pJJ3cbR23OS07kngrcy4nsGuANkc0z1HZvK7GHtP8kRc28ZEyvrlVT5Spcde/B1prjzcQrirZSSMj4nsfgfDKsCzrBLJqmzfC77HrB9JLaiWtc9EeWkz2I0odSlRlv43IgGCAbjM0Y1hrq+2trDSjMY0GhcUzayXqKUhqA4kiNSX1mjZpREZGZLMjLch4L/AE41DxSngZFlOB5FTVVqRHAnWFW/HjyyMty7Ti0klzcvPymfgBroDcdItMbfWHUCswClsq2tdsDccen2T/Ziw2Gm1OOvOr+iUoQo9i8mexF5MhScg6cMEsNOsr1C0V1zjZ2jBSYfvoEjH5FS+iK86TSZMfuLWT7ZLMuW/BSS8mnyRGEFAZK1xjJaKDWWd3j1nXw7pg5VbIlxHGWprJKNJuMqURE4glEZckmZblsKloFoTi2rWPZ9l+balyMNpMAr4lhLkR6I7Rx5L7/ZJKWyfaMtlGn6n7/TYBGwHQR9MOF5zj9zbdPGucPUC0x6E5Zz8em0L9NaLhtlu47GbWtxuRwLypKXOWxeCMzIjj+H6cah6hOyGMBwPIslciJJT6KerfmKaI/Y1k0lXEvB+/5ANdAUzRvp71H1n1Tb0npKCyh2jXdVZKfr3j+GNtpM1LkIJPJsuRJQXLbda0p9zIhr8TSLVeflUzBYOmGWyckryI5lO1SyVzo5GRGRuMEjuI3JST8pLwZfmA1MBYun7Qv9YPUhiuh+qVdkOOouJyotgyTPpJ8ciYW4WyX21cDPin8SD8GNHvNLdRqGhTmVlp/k0PGZDnCLcyap9uE+Rnsng+pBNq3+mx+QGqgNpxXSnVHOoEi1wjTbKchhRDNMiTVU8iW0yZFuZLW0hRJPb8zGMoMRyvK7osbxfGLa4t1GoigQITsiSfH8X3SEmrx9fHgBiQGYyrC8xwW0+B5tidzj1lwJz0drAdiP8T9ldt1KVbHsfnb6DJ5BpNqpiVGxk+VaZ5XTU8nj2LCwppMeM7y/DxdWgkK3+mx+QGqAPtBhSrKbHroLKnpMp1DDLafda1GRJSX/ADMyIdF5F0yaJ6eZQ5pvql1TRqTMoSkR7OLBxCVPrq+SpJGbTkwnUGrjyIlKQ0oi8/kYDm4BueXaT5VjGp9jpPWJYyq5hSzisHjizsG5/wApKSuObRGayNJkexFuXkjIjIyLadI9CLa/6g8K0Z1ax3JsVTkdrHhy2ZERUGchhxRlzQl9s9j8HsZoMvHsAkYDd8v0iz7GmbLJCwPJ0YlGnvxI15Iq3ihupS6aE/6xwJpRnsReD9xjsQ0w1L1Bakv4Fp5k2Stwv95XUVMiYljxv85tIVx8fmA1kBmK/Dcvt5FnEqsVuJr9K0p+yajwXXFwm0rS2pbxJSZtpJakoM1bESlEXuZDNytFNZYN7AxebpJmke5tW1PQK52hlIlS20/iW00bfNxJbluaSMi3AaYAys7E8prMhViNljVrEvUPJjqq34bjcsnVbbNmyoiXyPcti238kPfl+mepGnqYys+0+yXGimb+mO4qX4ZPbeT4d1CeXuXsA1sBuuimm364dWcU0u+NfCPtPZs13rvTeo9PzPbn2+SOe35ci/5iuL6cOnmyyeRgOM9XMdGTImOVzDWRYZJq4DspKzR21S0PvpbI1FtzUkk/vAc3AKerSGxw3ItRMI1MwbMnMgw2rfcNujaQ6zXyUONkmTOUaFF6I0L35pNO5uNGStj863j2kuquXUr2S4ppnld1UR+XesK6mkyYzfH8XJ1tBpLb67n4AaoAyuN4plOZXDePYfjVre2rxGbcGthuSpCyL32bbI1Ht9diGRsNL9S6lXC107yaGr4omk2kVEhs/iKkEtMP5kF9+aFJUTX4zJRHtsYDWQGxXWm+omNtR38iwPIqtuXOfrI65tW+wT0xlfbejoNaS5OoWXFSC+ZKvBkRj7ZZpZqfgUONY5zpxlGOxJh8Yz9tTyIjbx7b7IU6hJKPYjPwA1cBuVZovrFdpJdNpPmU9JwGbUji0Mp0vRPEZtSflQf3SySo0ufhVxPYz2GPXpvqI3if29XgWRpxnn2/jR1b5QOXLjx9Rx7e/Lxty9/ADXQAAAAAAAAAAAAAAAAAAAAAAAAAAAAAAAAAAAAAAAAAAAAAAAAAAAAAAAAAAAAAAAAAAAAAAAAAAAAAAAAAAAAAAAAAAAAAAAAAAAAAAAAAAAAAAAAAAAB0n0R/7zrp/Ujlv900Na6LcQyfLOpzT13G2nUt0N7DvLSYXytQq+K8l6Q66v8AChHbQpO6jIjNRJ+uw0XSnWPUXRHIJeUaZ3zVVYz692qkuOwI0xDsR1SFONKbkNuIMlG2jf5d/G2+xnvtmZ9XPUNnmMy8NvtRFs0lgXGZBqauFVNSk/8AhdKGy13E/wDpVuX7gF4tWImruiWbRsKkRo0XNepiMipdeQXZbbmMSiYUpJ+OJE4kzLb2IV7R2+xu760Mh02fvtYM3va6Le0mTWtxcxGaSS3HhvR3Scq2ox8Y5upQhtPeLZSmlGXuk/54QNTM5q8GVpvXX7kbHl3bORelbabStNi00ppt9LxJ7qTShaiIiWSfO+25EY3+Z1j9Sc64rchc1PkNWVXLbnNSo1fDjuvyG0GhDklTbSTlmSVKL7/ueFH+ZgN7vsgyLC+hDTZzArifUsXub3juQv1762FOy2W2ExW3VoMjPZrkpKTPbxvtuW46dxy8ymb1D9MOR5rHN67kaO2s2aUtsjVKWqDYr7jyTL5lOFstZn5UpajPyZjmPRPXQjxbLI151GO6e5Bf3ibWVHn4fHtcemoNsiNxuKzGcOLKSovxttpSaCSRGW3jy66dUs5zUvDL/RrOLWwkYJiq8c+1NpCQci4kSPUHOlGy+S+CXPVOJSSyNZF53I9tg+/TrcZbkFbrBrznureaRq/G6GNDvXad5ty6tEWMwm24zUmQS/TNm6RqW4kjMi2IiPcbnq7Nosl6GcFyalqs0ZhNapyI1W9l1y1aTPTLgbu9h5thkkx1PNH8nE/vG3D5H4IuXdNNXtRNILKbaaeZGqscs4pwpzTkVmVHlsGZH23mH0LacLciMuST2+gz1t1Ma331Fe4xdZ05OqcjfjyZ0ORBiuNJcYSSGjjpNv8A1XigiSRMdsuPy+3gB26nPssf/Sy3lJIupLtS2xb1/wANccNURUZFC892lMn8hpU8nuKIy+ZZmo9zMzHOWnWVZLmvSJ1IyMvvp9y61ZYlaNrnSFPKRLdnvIdeSajPZS0nsoy9yIi+gkaeoDV1Or0jXhOW7Z1KN9T1r6CL8xvRlRnPue32S3ZWpPhHjfctj2Ma/SahZhjmH5LgNNb+nocwOEd1E9O0v1XpHTdj/OpJrRxWoz+RSd99lbl4AfLBcGynUrL6rBMKqXbO7uZBRocZvYjUo9zMzM/CUpSRqUozIkpSZmZERmLLn+Z4Jopp3e9P2kd01ktrkbjCM5zBrcosoo7nNFfXEfn0yHS3W+exvKSWxEjYjlelurGfaL5Y3nGmt4ipumo70VMlcKPKImnU8XE9t9C0eU+N+O+xmN2ynq815zTHbDFMhyKgerbRhUaU2zh9NGWptXuSXWYqXEH+9KiP94CYXGT5Re19VWX1/Zz4VLHOLVx5clx1qGwajUbbKVGZNoNRmeydi3PcX7pr/Zw6mf6M0v8AmaBEcq1IzTNqPGsbye59bXYfBXW0rPpmm/SxlOG4pHJCSUvdRme6zUf79hmtJteNU9D13C9M8ij1hX7DcaybkVUOe3IbbUakJUiU04ktlHv4IgFa/R5VVpH6kanUlzuRMXwKDYXeS2ii2YhwUw3kGTij8buGokEn3Pc/GxHtmKGTR6adMOJ5JnmY6iKo9Qskt7CkxfDLCLUtsLhqbjuvy5bjDq3FmakJQ3xMiSnfchItQ+qTXnVPHPsfmWfvO0KnCecq6+DFrYjyy2MlOMxGmkOGRkRlyI9jIj9x5MF6jtZ9NcWVheG5quHTFKVOZjPQIsr0klRERvRlvtrXHcMiL52jQe/nfcB3e4mVC/SD6ISSjXECbb6TMv2TdnJJ6wdfKksU7THUpQTz6e02la+Cd1N78U7ERc1aSvoxHpiyPVXUHULPix7JsxZx74Hic2PClz5seJ6jvS57zTqktJQ5sloknurztt5KWt9TuuzUzDbNOoMo7DADX9npy4sdUuIlXLkhT5tm48jZay4OqWnZSi22MyHprOq3XinnX06BmcZBZNJZmWUVdHXuQ3JDTZNtvIirYNllwkJSXNtCVeC87gO3qMo03qF6L8iRW5BGdsaGcSVZFORNs1xUqkKjk/IS00TmyHN0/InZKyL95xDp6zjUfM866gcd1OvLabTP6fZRIva+c+tcaG9HIjZUlpR8WltOklDfEi4/hTsXgROt6teoaqOhcY1HkSH8Zt5N5UyZ0CJMkRZsjud9ZPPNLcNKzecUbalGg1K5cdyIy8d/1Pa7ZPhMrTy61AkP0k9DTc9CIcZqRPQ3twTJlIbJ+QRbF4dcUXggF7kSImlWC6I4VleYau5Ff31JHyXG6bC7mJSQqxufKX2G0qOM8uTJU4gzUoyLYzJJGY3XW3UKo0n6p+pKqusLy37GZaiphXV/iCijz6R1xuPJQ4l5Se1s+6ThLbWpHd8+fBkfJlZ1L64U+DRtOa7PH2qOFHeiQ0nDjLlRGHd+40xLU2chlCuRkaUOJLYzLbYZJPVz1Dlfpyc9RXF2J1bVLIccrYa0TYbW3bRLbUyaJRp2LZbyVrLb8QDqTRvC6y/1h6dMnf1jsdRtKn8mtIVKxktcUafUWjUcnyiukpTncSp0oykmhxSORGRJSfvqNb1AYjCuNUKqPpjrllVtcUdxByiuvMsZsorCPKXZb7CIKTR6dzZRObp7Zl7kQ5mzvXfVvUmyprTLc1lPPY6o3KdENpqAxXLNRLNcdmMhttpZqSkzUhJGZpT58EM7mPVd1AZ5j1hi+T6hOvwLdCG7M49dEiSLFCdtkypDDSHpBeC8OLVv9dwE1x2subrIKynxxpxy2nTGY0BDbhIWqQtZJbJKjMiSZqNOxmZbfmOl8215o7nMp2L9XnS7V3OaVzxVttdU85+ku1vIIkd14mjXHku7EWyjbJKi47HtsY5ZQtTaiWhRpUk9yMj2Mj/MXOF1wdUcGJFip1TclOQmksx5s6ogTJ7SS9uMt5hT5GX589/3gL6Wk0bprreqGv0vvbReQU2J43KopbpE1bwKmwksuT0OdvbtuoZUhDik7ePm+XfYaP0t5frbl2qWgR505YWeG1edKj0NpYNE44UhfBUiO3IVu4pBbIUaNzSRn9DHPmN62asYln0rVGiz22ayqf3Sm2bz3qHJiXP9oh8nSUl5Cti3SslJPYvHghmrfqb1yvc1xrUCyztxdzhzveoTbgRWotcvlyM2oiGijp3MiNX3fzbFvvsQC/6K6j5xneqPUZV5XlFjY1s7TnMlrr35C1RW+wjeOTbJnwbJriRNkki4EWydi8DMZzl2lunHTj0/xrSu1M+F2OPyrNp/D8pZqYrlqUtZS1PEqM6pyQhXBPI1fKnikiLbzyFjOqWd4db5BfY5e+knZTWzqi2d9Ky56mJMLaS3xWgyRzL+MgkqT/FMhsOnvUjrRpbjx4nhuZEzS+pOa3Xzq6JYsMSDLy6yiU04TKz+qm+Jn+YDreh1Zs8l1N161Iq8HyLBb5nQ5XcK5XvZPyUOQkt2Klk0196432nCcSgvmIlp9yEof1DzZP6O2Egsnsu45qzMrFP+pX3vR/C48g4/PfkTRvmTho32NaUmZbkQhiNb9ViucwyF7M5kqzz6udqcily0NyXZ8RxTaltmpxKjQW7Texo4mkkERGReBiVahZgvTxvSlVvvizV0vIUQPTteLBbCWFPd3j3PLSEp48uPjfbfcwHcc6nvcm1u0x1ERntpjcrHOnevzO+u6+O1JtZDLER5t/sd4jSclxCkoJxXki3Vv4GrKu8Tzfob1ttMZrtR3KutvcbdiyszyFm2T6w5SkOri9uMz2V9p1JO+V7k42W5bHy5pg9RGstZlONZpXZxIi3GI0bGNVEhqMwgmaxpKkojLQSODyOK1EfdSs1b/MZ7EMm/1Wa9yDuG3c6ScS+rPg86vKphJgKi8zWSG4hM9hkyWo1EttCVkozMlb+QGS6KP2stKv6TRP7Q07Lcav8AMtbb/FsWqJVpb2mSzYsOHGbNbrzqpKyJKSL/AP4XufgYDCc0yXTrLarOcNsvh93SSUTIErstu9l5J7pVwcSpCtvyUky/cK3YdcnVFYRpcdGpbdaqchSJEmooayslLJX4v9Yix23S3/MlEYDqDUm1rrDWPqbrodizYy6DRSPR2k1pfNMiwi/Dm5B8vqaVpNB7+d0GX0GuV8mJplnWhel2R5jq7lOYIq6KZVxcZuYlPUVjcxwnmmENemdVK4ks+66o0mst9z2L5eMMW1HzTC4+SRcbu1RW8uq3Ka55MNPHLhuOIcW2anEqNJmttB8kmSvHv5MbYfU7rqeFxMA/WDKKpgQCqoqkxY5TWYXt6VM0m/UkzsZp7ZOcOJ8dtvADqvOlScHa638gwFTlTeRcnqIJSYBmy/FrZVk+com1I2UlDiibSvbxtsR+4xGL5Fm+S9IWilhmsuZLUzrtGjVcuWpS3X4SI6eP3ivmWSXTfbIzM9iQSS2JJEUx0o6mMnyDU2+znVXXW2xLIbWg+Ex7+LjkOZBk8VkZM2cJtgyktqSavvOC3CVxM+RF4yWu3UTWq01xHTzENVZGfZBVZavNJuSJpjroESQiO3HiRIUV1CNmm0tmsy7SEcleEnuYDd7SRqFqr+kbymub1JscfaxDI76fFltMpmHWxYCXlL9LFd3a7yktnt8v41ms9zI9/XieTYbqH0w9RsjFo2qc+ui1dZKfm5pkbFmy5M9ehTbjbbcZvtP7Es1H3F/Kex+5GOR42sepkLVN7WuBlsqJmsixftXLaM220tUl41G6rglJNkS+ayNHHgZKNO2x7Dbk9XPUI3bPXDWettKkV8irdht00BFeuM+pCnknCJgo3Jam2zUvt8zNCfm8EA6Ez7O8up9XujylqMhnQoEXC8JlJjx31NtreelKbdWokmRKNTbaEHv7pTt7bj1UuW5HkHVP1XY9b28qTVIxDPq5uAt0zjtx4ZrTFQhv8Ke2TSOOxeNj29zHIVpq/qLdXuIZLZZD3rLA4ECsx970jCfRRoSzXGRxSgkucFGZ7uEo1fxjMh9IWs+pddmGWZ7DyTt3ucR7OJfS/Rxz9Y1YGo5ieBo4N9w1K8tpSad/l4gNKAAAAAAAAAAAAAAAAAAAAAAAAAAAAAAAAAAAAAAAAAAAAAAAAAAAAAAAAAAAAAAAAAAAAABlMXg0FnkVdX5VfPUlRIkIbm2LMI5a4rJn8ziWSUk3DIvPHkW/5jpSH0s9Nk/S+x1fj9WV0eOVVuxRyXT03cJ0pTranEETfrtzTxSfkcrjpPF//wCXxnP9ZtR/gXgGKhaA6fZFppqpmGnOWZHmT+H2uN12OvM1XofiR2Buk+lyEfdd5pW3wQSXPOxqMj5ERTus0xyWg1Jx7DNUNOM6hKspsZD1NGq3I9xLYW4STTEafb+Z1XkkbpURq28GLR0/ZbkOF9HXUHb4taP1lg5Z4pETMjLNt9lt12YlztrLyg1INSDMjI+K1F9RUdIrq3yrDOkG5yWzlWk+Dq3Or2JUt5TzyI3qYS+1zUZnxJR7kW/j6AOO4OmWbZllNzRabad5hdKrpTqTgsVT0udFaJxSUpkIZQfFZEWyvBFyI/A1y5pLnHLSRSZDUTauxiL7ciHNjrYfZVtvxWhZEpJ7GXgyHWrOqmM4/QajaW6o1mouOYvdam2dzX5jiJElSpre7K4b6XDQ3JaQk0OcEuEtClb7eRL+rHG8tpsnxG4yDVJ3UOpv8UhTcbvpMNUWU9Vkt1ttuQ2vdZOoUhaTNSlmZcfmMvBBL8R061B1AclNYFguQ5IuCgnJSaisfmGwg99lLJpKuJeD8nt7GLRbdP8AhWNW+jLEyi1EyEs+xSRd3VRQIaetClIXKRwiNmyfFCTYQpZLJaiSlw9y8bZm9vMgw7oM05ewO2nVbF5nN25kT9e+tlTstlpkojbq0GRns1yUlJnt4323LcdJYvZZPc9S/SHb5k5IduZ2l82RKekb959S4VkonXDPypa0mlalH5UajM9zMwH87cP041D1CdkMYDgeRZK5ESSn0U9W/MU0R+xrJpKuJeD9/wAhj1YzkiL/AOyi8fsk3fqPSfDTiOFK7++3a7W3Pnv447bjpnFXKjS3pXw2+1DzfUWRT59kFrOp8bw2wi1LbbkI2470mXLcYdW44ZqSSG+JkSS33IdI5JHfq+o17MK6vtYWZwemF28qlWTyZFsi6RDW0lx51KEd2WlolpUskJM1IPYi9iD+d17pLqriybFeTaZZXUJqGGZVic+lkxyhsuudtpx7mgu2hbnyJUrYlK8FufgfG00x1Ko6qVe3enuS19bBOOUmZKqX2WGDfQlbBLWpBJT3ELSpG5/MlRGW5GOldI8v1Eynob6k2cpt7O3p4K8ZXCk2Dy3zZku2zRvobcWZn8xIaUtJHtuSD91ect1PSc51H6itJNF6nKXK6FZUGGwIbLijVDblSWGC9S6z+B1RGpG5qIzNLaE+xEQDlqy0k1Vp8aRmlvpllkHHnEpWi2k0slqGpKtuJk+pBIMj3Lbz53IfLHtLtTMtagv4pp3k901aOPMwV19RIkplLZJJvJaNtB8zQS0Gok7mnknfbch/QPSTJsXy3qU1Kwlq41gzG1i0OSV2SWt/dxSqJaGYzrKzXWNRvu2zdJJNp7xcTNHjwaRztf5VkNB0A6f11JbyoDVjn90qScZ1TS3SaYjmhJqSZGaeSuXH2NSUntukjIIbD0f1asDuCgaXZdJPHlGi37NJJX8OURbmUjZH3JkXnZe3gaiP6EZjqTnMjro6dmlZPYobkVOFqkIRIUlMhctlopLjhEey1uJVxUpW5mlKUmeySIuINV4saDqlmMGGyhliPf2DTTaC2ShCZCyJJF9CIiIgH7pdJNVskx13L8d0xyy0omCUbtpCpZL8RBJ/FyeQg0Ftse+5+BhIuN5FOo52TwqCxkU9Y60xOsGori40Vx3ftIddIuCFL4q4koyNXE9t9h2T1F5vqVhnWphuLaW5BcwaGlYxWHhkCvkuIjOQXIsUyJttJ8VpcdW6SvB8vJHvsMjrZWY/WYF1h1mJMsoroepVArtRyIm2DORLJxJEXhKSdNaSL2LbYgHJen2jGpWpV7jNNjWGXchvLLBVfXTUVry47qkGnvqStKTJSWUqJbhkfyJ8q2IU+J0rS8eZ1vrdTImQ1VvplSlZ1G8Y4bViXxBMVL5oebNS4608lIUg07+PmMiMhXNK2bOq0y6NpKifilN1cmraWRmjusqsYDajI/qkzStJ/Q9jIY2tmTJlp1qqmynn1NQprSDdWajQhN8nZJb+xF9CAc3Zjp3IK1gwsE0+1AZJvFo19Ys3Nea3+2TPckzmiabTtA/jocURkSPKlH7jCZPppqPhNfCtsz0/yShg2XmFJs6p+K1J8b/drcSRL8efBn4HftNbTaDXmJe1rhNy67pcalx1mklElxuoJST2Pwfki8GOedMcgvcq6NeotGTXU62KDZ4hYxjmyFvm1JemyG3XUmszMlrRslR+5kRbgIfS6S6q5Jjz2XY7pnldrRRyUbtpCppL8Rvj+Lk8hBoLbY99z8Dw4jgWdagTnKzA8LvckmMo7jkeornpjqE77cjS0lRkW/12HffUBqfpvpP1D4nS0WP6xPv0VVj54cxjOWsRKyTFVGZNlMaIcNw1Jcc5oWXNXcXz+h8SlidcMTTB1TxrPtMtStN8OzLP12zdpjBEzKqbRptZOVclLqWm3kI7puGxyQpBkRkn22Dkm9oL3F7WRRZNSz6iyiq4vw50Zcd9o9t9ltrIlJPYy9yFFpumvVa+0MsNfKvE7qVj8GyTDLsVUh3uRksyHJE4lpSaSjMKj9txzfila9jMjIyGxdVmOZRWy8DyOy1Ykai45fYy25i93NhKizSgNPuoONIbWZr5tucy3NayMjLirbwWerrS0Z/R3WrLFjKbbLV6JHNKHlEXZVTSTUjYj/CZnuZexmYDB6udMOQ0NrjEPSLD8zyuPZYJRZTbLj1653pJE2P3HEmcdoibaIyPiS9z2Lyo/cRzHcSyvL7lGO4njNtd2znLhAroTkmQrj77NtpNR7fXwOwtetU9Qsd1X6daPHcvtaqvrsFwqU1GhSlsNrfcabJbq0oMiWpSUoQZq3+VCU+xbCm5Y7geDVXVllEqqyhThamxYVweJ2rVZPYrXVurRu+tl3gw5JNRLSSS5mSSM9i2MP55ZRh+W4Paqos1xe3x+yQklqh2kJ2I+lJ+xm24klER7H52+g+eN4tk+ZWrdFiGOWl5ZPEam4dbDckvrIvcybbI1Ht/yF71+1bx/PtDcFxyi061AjV1Lbz1VGT5baoslPsrQjvwWZCI7SVIQ4Ta+O6jQajLwRltiumTVCJpxj2o0HKMVzF/EMprYVVc5Fii+xYUZlIJ1g0PKLtkl1SFIU0tSO4RbEfgyMNNxDp81byvVaj0dewPIajIbmUw0cafUSGnYsdbhIVKdbUglpZbIzUpZlsRJMzMfDJtBNX8ayu6xF7TXK35dJMahv8ACjlEf37qm4q+Jo3InzQfa3/H/F3HV2A09ynVDprzjE9cLzPNOpOdnU1KLuCcOzqJPejrkxXd1r7jakm2ojQ4be5H8qT98FhWa5TjWlvWPkdRdzY9uza0cRial5XfjocuJLK+C990n2nHEEZGRkSj22AclXeCZvjUN2wyLDryrisWL1O6/Nr3mG257JbuxVKWkiJ5BGXJsz5J38kQ+E7E8prCqjssatYhXzCZNUb8Nxv17KlmhLjG5F3UmpJpJSdyMyMvchfMqlTLLoHxeylyHpTy9V7c5L7qzWtTq62Ordaj8mo/J+fJ+THR+A1D8PNtBXlQD+01ZoBa2uMsON8lnaEma5FUhBl5XwUa0+PciMvYgHB1to7q5QWlVR3ulmX11leuJZq4cujlMvz3FGRJQw2pBKdUZmWxJIz8kNq1d6YNYNIM4n4Ta4Tfz1wa47U5sWnk+ndiNsNuyX0K4bKaYN0kOOEfFJl5Mh/sXUnqHyPSbLYbt1e3uGxbWvsridPWqUddYGtaY7jb7pmthxwzWk+BkayL5tyIdh5zLnS+uTqcgOyX3iRpVkLcVlSzUSTVTRj4oSftv77F7gP55wsbyKypbLJK6gsZVTTKYRYz2Yri40JTyjSyTzhFxbNZpUSSUZcjSZFvsYylppjqVR1Uq9u9Pclr62CccpMyVUvssMG+hK2CWtSCSnuIWlSNz+ZKiMtyMWzR2DLb6JeomyXHcTFftsNYbdNPyrcblyTWkj+pkTiDMv8A1F+YqmueRu5J1ZaG6bZjbvHhPw7Bm51Yt40w3kOtxjdW83vxUaiMkqWojPghJb7JLYORZekuqsDFkZzP0zyuNjbiEuIuHqaSiCpKvZRPmjtmR7lsfIaoP6G3uvmK4b1Z5oyjTLW/MMpas7issMeXlTMmtsYZJdS4z6FME1HFJndaEEo+KEoMj8bjhLCY9BP1AoIl3s1SSbmK3M7i/wAEVT6SXyV+5BnuYD2I0j1WcxQ88b0xyxWNE2bx3KaWScHtl/G7/Dt7fv5bCw6P9Lycq6fMw15y7DtR7OLAebhY9Fxuv+WUrg8b8111xlwlxWFNcXDbItlciNST9rRMzvV5j9KMzijFxcNwUZqxRopkOrKGmg3SjslHL7vs+k3Xtx4/xvfyNGvpbFP0n601mIWj7dJC1gjQ6wmH1E2mEbczilGx7cDTsexeDAcq0uM5JkibBeO49ZWqamE5ZWBwojj5RIje3ckO8CPttJ5J5LVskty3PyFTjOSX8WynUWP2VjGp43rLF6JEceRDj8iT3XlJIybRyURclbFuZFv5FG6WtUIGkut+O5JkCUuY3OccpciYX/s3qqYg2JJLL6klCzWRfmhItuounrfSppPfaS5FIU3N1P1AOA/JM9lO4pUPlwfIy8pJ994ll9DJg/fbwHM0TSTVafiy85g6Y5ZIxttCnF3DVLJXBSgvdRvkjtkRbHufIYRON5EvHV5cigsVUTcxNcu0KK4cRMtSDWlg3tuBOGhJqJG/I0kZ7bEO4c/zrVml/Sb1OKY9dW8OvgZZS0lZTxX1ohIpFFHSTKGUnwJhUdSlK2LbZSlfvGo6x19DXdMWr9ViDbRUtd1EvNwEsEXbbhphzEMmW3sniSSL/wBgHLldpzqFcKokVOCZFNVlPeKiKNVvuHa9lRpd9LxSff4KSpKuHLiZGR7bDx3eJ5TjLFdKyTGrWqZuIpTa5ydDcYTMjmexPMmsi7jZnvspO5H+Y780JhTK636EmJsdxhxZ5U+SVp2M23J760K/5KQtKi/MjIcKajZpk+d5dZXmU3UywkuSnuHfeUtLCDWZk22kz2Q2n2ShOySIiIiIiAb7ppoFRZHpnL1n1Q1PjYNhzVx9n4b6Kp2zm2E8mSeW2zHbUguKW1EZrWtKdz2Lcx5tT9GcIxjB6/UnTDWerziil2CqqSw7AVV2sGSTfcLuQ3FrNTSk+zqFKTv8pmRjZdNNRdTtJtGELyzSWjzjR7K7txbUW+YU5GRastkhxyO8y4l2K+beyeW5ckkexHsZjaZ2HaD5hpMXUxp9gF1gTeG5fVVl3QS7RVpW2DLyuZnDedST3cSSN1tqNWyVEe/1MNfm9LuA6c19Yz1D6/RMEya2htWCMbgY7IuZsKO6klNnN4LbRHWpJkrt8lLJJkZl9Bpur/T/AGWlzWN5LVZZV5fhGZEs6LJapLiWZBtqJLrLrThEth9BmXJtfn8jPY9ty6/aG9reqbMsgs+ciuyp9q8pLFJ8mJ9c8yg2XGV+y0EnZG5exoMvoM5bRJWJdA2GUWVtLi2WWapu5Hj8Z8uLiqpmvKO9ISR+SbU8pBF9Fbci3ASDqH0h/ULrNk2kf2h+O/Zx9pj4h6T0vf5sNu79rmvjt3NvxH7b/XYffGdJ5ufY9htbhGB51NyrJruXXFL9F3aiU22hCuMU0N81OtJNa3t1GSUEStkkRmN+/SG/tl6m/wAvi/4Jgb7p7Ifi6EdMz0Z9xlf64ZyeaFGk9lOwSUW5fQyMyP8AcZgOfNTdBtStMtWLDR+xxO7lXTE2RHrUN1UhC7dht5xpEqK0aebrLhtLNCkkZGRHsZ7GNZy/Ac70+nNVme4VfY1MeR3G49vWvQ3Vo/8AElLqUmZfvIh3di1nTV+pnWxmV6nJZ1tQT5UeJ8Cs0xLVipXdvFN9M+426TKEoJrmZIP7s1EXHluUO1Q1kxLLOmdWD4tpvqY9Sxsralwckyq8btGa6Z6dROw2XkRWiR3WzJZtcvJo57eDMBzdU1FrfWUamo6yXY2Exwmo8SIyp555Z+yUISRqUZ/kRbizVHTnPr9FNXM51Kx/K8ZyjAnMc+G1s+IqEl1qwkvtOreaea7iiImS4GlSS35b8vYtn6HHZVda6w5JQrW3k9FpRfzqF9rw/GkkbCFvMmXknUtLd2MvOxqGf00ybPsq6DdemMnuLKyq4t5iyK1+c+t0kPrmKOQhK1mexbdhRp32I17/AMYzMOdIekmqtjjC83r9MsslY62hTi7dmlkrhJQnfdRvkjtkRbHue/0G04L016q6h6UZPq9jOJ3U2pxt+KwSY1VIfOd3Dc7ymVISZKSwlvk6fsglo323Ha+Fy4OD9aeCaJ2+X6u5nnGMO1lRLmQ7iJW0DDCIqFraRXpiqUuIhlRkrdxBrIlH43JRw9D8qj6auparp5L8KLA1Ep48dlhxSEMtHJnJNCSI/lSZERGX12IBzfj2kuquXUr2S4ppnld1UR+XesK6mkyYzfH8XJ1tBpLb67n4G5aR6NVOouk+rWZPquF3mDw6d2nhwTSaJT8ywRGUhxs0KWv5V/KSDSfLb39h0tXyYmmWdaF6XZHmOruU5giroplXFxm5iU9RWNzHCeaYQ16Z1UriSz7rqjSay33PYvlzEiXfYVlPXVO09Q7AsITjLrC4STQuOhVoo3nWzT5QaW1OLJRbGky5EZbbgOE8v0+z3T6UxBz3CL/GpMpvusM3Fa9DW6j/AMSUupSai/eXgeyy0k1Vp8aRmlvpllkHHnEpWi2k0slqGpKtuJk+pBIMj3Lbz53IdQ6cQcw1q6SsXxnI8leetH9cKqixW0t1HKOIqVEMn0J7m5qZJRtuKb/CatvG5iu6SZNi+W9SmpWEtXGsGY2sWhySuyS1v7uKVRLQzGdZWa6xqN922bpJJtPeLiZo8eDSA/n5iGmGpWoLch3AdPMmyVEM9pCqepkTCZ8b/ObSFcfHnyMZCxbJrHIE4nX45aSrtTyoyaxmG4uWbqd92yZIufItj3Ttv4MdIYBqth36hcQ0p1Zc1N08hQLOytceyzFmuUSzN5aEuqkx1qa9QbC2+BONOGpJGadiPfe5YnQ2Wntr1H5fqfl93neSs4TjlhX5Djb6Kq3nUEpbfekNrcaWbCyjojk8akKVxSsjVuolgOCMvwHO9PpzVZnuFX2NTHkdxuPb1r0N1aP/ABJS6lJmX7yIeCix++yi0Yo8ZpJ9vZSj4sQ4MZch909t9ktoI1KPb8iHRmqGsmJZZ0zqwfFtN9THqWNlbUuDkmVXjdozXTPTqJ2Gy8iK0SO62ZLNrl5NHPbwZjU+lnU09LLTNbe0w/J7TG7jGXqK9s8bcNiwpI0h5rjKafNJobM3EIRs4aUr58d/oYS3LsCznT+c3WZ5hd7jcx5Hcbj29c9DdWjfbkSXUpMy/fsPVdaXamY3j0bLsi06yeropvH01nNqJDER/l5TweWgkK3+mx+R2DhGH0WW2mimS1mtN3nmjytU4lK7TZfXJYnVNq8hDpMKUa3Eusuttp5dtZN7+6dzMxKcx1N6n7jVbW3HoVlfXSZjV2zlVZMScuNErGZB9xw2nd0MExxRwcSRG344GW4DCao9Ml9VHgCNIsSzLLF5Fp3T5fcpiwFzzhyZZvc0kUdou2z90XEl7n77qP6RqnxnJMhum8aoMfsrO3ecU03Xw4jj0lay33STSCNRmWx7lt9B1l1G6p6hYo/02UuLZfa08KDpji9m21BlLYSqUtbiTdXwMuauLSEly32IjIvc97ZkRYZiGoPWrlsisyBU2vnUiHPsxYN19o3XypBqmqZfU05wQpwmjeMkHugj3Mt9wH88cg041DxO9i4tlWB5FTXM1SExq6wq348p81q4pJDS0ktRmrwWxHufgeqfpFqxVU0/I7TTDLYdTVynIU6fIpZLceLIbcNtxl1xSCShxLhGg0qMjJRGRlv4HTbesGLZnhemOF4xpxqQdRW6o10quyjK7pFoiK6fApFcw8iM0SSWRtPG1yPynlt5FDxTUvNy67uoVashmONQaPM2mIzjhqjoRDQtUcu0fyfKppKvb33P3M9w4WynTnULBo8KXmuCZFj7Fmk1wnbSrfiIlJIiMzbNxKSWWxl5Tv7kPU1pJqq/ip50zplljmNpbN47hNLJOCTZe6u+SO3t+/lsLris7Ic+6I81rLu5k2chvU2iXCcsJKnezIkxpKHF8lmZp5eOR/X3MdLaaWdRR9cuPaQ2GV6u5tmOPrbprOwO2iV9ATLMPZ1sqxEZX+qJR8uxup5Hsfue5h/MkbZpRj9RlWodJj99juW30Ca+pD9dibKXbaQkkKPjGQtC0mvciM90n8pKGLymu9JkV01EiKbiRLF9hPFB8GyJxRJTv9PBC1/o/wD9sXTD+dHf8M8AkNLppqJlKI0jFNP8mt48+Y7AhrhVT8gn5DaCWtlBtoMluJQpKlILyRGRmREYx9zieVY5fKxbIcZtau6QtDSq6ZCcYlJWrbik2lkSyM9y2LbzuQ6TmZXkOO/o+48GitZNei21csmJi4zhtreZTWxl9pSk+TQayQo0+xmhBn+EheNP1vXuaaE5fJNVjmcbQm7lUL75d59+0i+tKJty3Na0J5mnfcyNJGXkgHBV9pdqFhU6sjagYFkuNItHEpjna1b8M3kmZbm33UFy8GXtv7kN26jNC16Wayai4XgVZkNti+BzGGZNlIZ75xGnUoJtUp1ptLbfJxfBJmSSM9iLcx+qLULqAy7TjIaqfaXWR4Q1eVdhdyrPeYmDOU6pLC0PO7qZccM1pVwMjWRbK3Ih1Rr0RuXvXUy2RqWZYuviXk+KbGOaj/5EXuA4FPG8iTjqcvVQWJUS5qq1NocVz0ipZIJw45PbcDdJCiUaN+XEyPbYxaunjpcyTUPVrEcV1VwzNsbxTKI9i6xalXOQykGxXSZTfYefaU2sjUwnfYlbpNW23uVc0CoK+b036LwcuhJ+DXPUfF7iZCfupEY4cVpe+/g0GpC0H9PCvyG36AagaxXP6R3N6a8v7yVCXOytm2hSH3FsR4rDEoo+zaj4oShZR0IMiLYlEReFeQ4xVhbFhgOMTqDC84fyG8upFaiUcQnKqwMu2TMaFwb5uSSUvZaOSvxo2IjPz4pekmq0ChmZVO0yyyPS17zkaXZO0slEWO62s0LbcdNHBCkrI0mkzIyMjI/I6j0t/wCDXS1/XXI/xFeNg02zbK8p/SC6p0V7fTZdVOLOKZ6A48o4yoLMaYTUft78eCSab2Lb+Lv7gONMb021FzKsnXWH4Dkd7X1hGc6XW1T8pmKRFufdW2k0o8efmMvAxl3jmQ409GjZHQ2NU7Misz4zc2KthT0Z1PJp5BLIjU2tPlKy8KLyRmOmtY8uzLAum3puiadZHbUlXLq7a3W7VynI/qLcrFaXVrU2Zc3GyJtKd9zSR7FtuPj+kXcuHtc6J7IoaYlqvBcfVOjpaJsmZBxvvEEgiIkkSuRbEXjbYBL4nTXqrO0Kc1+iYncvY+i0VBLtVUhe8ZDK3HZ5rJPEoyFI7Zub8ee5b7kZDVoekmqtjjC83r9MsslY62hTi7dmlkrhJQnfdRvkjtkRbHue/wBBaysbU/0d0KMzYyUIXrHIice+pKe0qlaPtn524bmZ7e25mY6VwuXBwfrTwTRO3y/V3M84xh2sqJcyHcRK2gYYRFQtbSK9MVSlxEMqMlbuINZEo/G5KMON8G0Oi5x0+ZPqVURr6xyuryqroK2sgIJ5uS3JZeWv7lLZuLcI2i48VEW2+5H9Plo/oNa5F1DYXotq5j2TYqnIrJiLLYfiKgz22HN/nQmQ2e2+x7GaDLwYu1RaZNgvS31JL0/dk1RRNSIMJ1+AZtOQ4RuyGzJC07G2R/I0exlulZpPwoyPetBre3ynHOkXIs4sJU+8Z1IuK+rmTXFOSHqtHZNSeat1LQh4+JbmZJ9i29gHD0fTTL8mzS3xDTrEb/JpNdKkNpj1kB2bI7TbhpJaksoM/oW57EW4xFhiOWVOQniNrjFtCvSdSwdZIhOtyycVtxR2VJJfI9y2Lbc9x2rWXOn2E9It9f3ddmz7Fvq3ZQr17Eb1qrkdxtglRWpLi2HTWySTcUlHhPNRn5PYY9PUm7GzzRrUHG9BdRrJnC8dvGFWV1OVMtbekcJ1s5LMxqMgiKHzkkl3iZIIiIzLY1AOScv0x1K0+bjO59p5k2NImb+mVcVMiGT2xb/IbqE8vH5DX4sSVOlMwoMZ2RIkLS00y0g1rcWo9iSlJeTMzPYiIdS5vXwM06fM5yvRTXbOLzEKKxqpmUYlm0NBy4q33lMxZTMlC3G3D7izSrtk0o0+VEZbENG6NcZuL7W6PbU+aS8U+ylRZ5HLtIMRqVMaixoyzdTGadI0KeUlRpSZ/h5ci8pIgE0y7S/UvT9iNKzzTvJsbZmntGct6iRDS8e2+yDdQklePPge2t0U1kuFLTUaS5nONqGzYLKNQynTTFeTzZfPi2eza0/Mlf4VF5IzIdX1eQYhnfRn1DT8Whamya6vdx19MzNMjZtUKmnZoI1x0txmuy721n3DJa90uII/oZ4vqC1CzSo1c6cqqnyWwgQ6rBcJlRmIshTSCfcbb5umlJkSlqSlCTUfk0oSn2IiAck4zhuX5pcljmHYpcXtsaVKKBWQXZUgyT+I+22k1bF9fHgUzMtDI+F9O1LqbeRL+sy2Xmc/G59XPbJluOyxFZeQZsqbJ1Dpm6e/JW223yl7n05qu7LwzHusu+wB56suT1Bq4M+VAUbT8etflSFrIlp2UhDj2xK2MiV4I9yEu1YvsyyPoA0sssznTZzhZzbswJUxanHXoiI6Ep+dXlZJWTiCMzPYkEkvCSIg5QAAAAAAAAAAAAAAAAAAAAAAABskXUfM4Wns7SuNc8MWsrNm5lQPTtH3JjTZtoc7hp7hbJUouJKJJ7+SMxrYANiqdQ8wosKv9O6q37GPZQ/Dk20P07SvUORVLUwruKSa0cTcX4QpJHv532IZeg1v1QxeuxKposn9NEwa6XkNA36KOv0dgs0Gp7dTZm5ubSPlcNSfl9vJ76MACm4h1K614Md0nHczJMfIbBdrZQplZDnQ3pizM1PlGkNLaQ4e+3JKCPYiL2IiLVtQdSM51UyFWVag5JKurM2URkOv8UpZYRvwaabQRIabTueyEJJJbnsXkxrYAKJpr1B6v6RU1jjmBZecKotnUyJdfJgRZ0VbyS2J0mpLbiEOEREXNJErYi8+CHvX1Q68O5pjmosnUGTJyTEosqFUWMmHGedYZkd7vJVzbMnTV6h75nCUZc/BlsW0sABScF6jtZ9NcWVheG5quHTFKVOZjPQIsr0klRERvRlvtrXHcMiL52jQe/nfcbhph1K5rJzzAlao6uZPU1GGJfj1l7UQYr9pWJcQsk8lrb7kpjkvZbTi1FwUskl52ODAA7A1W6hMcZ0NznAD1yTqhf58/Wx2yq8YXRVdLCiyilOOdlTLKVSH3ENJVwb9kbqWrYiHNOV6pZ9m2T12Z5Hkbz93UxoUODNZabjOR2oiEojceylJEpCUJ2V+LctzMz8jVQAWeT1j9SUrIK3KT1MeYtKuUc5qRFrIUfvyDaW0bslLbKUyldtxxG75LPZai/jHvpGVauagZpjrWJZFdMv07FxMvmobNfGjNtzpXHvuJ7TaTSSuCdkF8idvlSkaeADeJWtup83O8c1LlZNzyTEma9imm+ijl6VEEklFLtk3218CQnytKjVt83IalcW9hf286+t5HfnWUl2XKd4JT3HXFGpauKSIi3UZnsREX5EPIACuYz1ZdQeIY7X4xQaivMxKiOqJWPO18R+ZXsGRl240t1pUhhJEZkRNuJIvpsNZwDWnUzTCXcS8OydTH2hbJq3YmRGJ8awSS+Zd9iShxp0yUZmRqSZkZnsfkxpIAKJk/UNrJmLVEzkOcSZCcYs129N247DBwJSiaLkybaEmhKSYZJDZfIjgXFKfI9mT9TOteYzclsMhy9l+RmFW3TXi26iCx62Ih/vpSommUkSu78xuJ2Wr2NRl4EvABRf9IXWD4wd/9r/9fPFPsQbvw+L/AAJ2ex6Xj2+P+z+Xubdz68t/I12k1DzHHMNyXT+muPT0GYKhKuonp2l+qOI4pyP86kmtHBa1H8ik777K3LwNcABXcX6tOoXDccrsWx/UZ9mDTsqj1i3oESTKr2jLbhGlOtKfYSRexNrSRfTYYXAOoLWDTFq1i4jmbrcW7kFLsYlhEj2UaVILf75bMttxs3PJ/Px5H+YngANo1E1Pz3Vi9RkmoWSybmezHREYU6lDbcdhG/FpppskttNkZmZIQkk7mZ7eTHvwzWvU3T/EMgwLFclKNj+UJ2tK96FHlNPHwUjmnvNrNpzioy5tmlXt58FtpAANryTVPPMuu6DI8ivfV2OMV8CqqnvSst+niwyIozfFCCSvgRF8yyNSv4xmM9U9R+tVHqBkGqFXnL7GQ5WpxV296SOqPY9w91JeiqbOOtJn54m3xL6EQmwANy1K1h1I1elwZeoWTu2ZVbKo8COiOzFiw21HupLMdhCGmuRkRnxQW+xb77EP8011f1H0gnzbHTzJ3apdkwUWcyphqTGltEe5IeYeStp0iPyXJJ7edttxpwAKLlfUNrLmmQY9k9/nMpU7E30yqIokdiHHrXicS53GI7CEMtqNaEmZpQRnxLffYh9ss6j9ZM4j5ZFyXK2JDWcIgt36GqmFHKaUR5T8cz7TKeCkurUo1I4msz+Y1EJoADfcA121S0xop+L4hkbLVLZyETJNbOrIljFVISnil9LMppxCHST47iSJWxF58EPpfdQOs2TZJjeY3WoNm9fYi2bVNZoNDUqKk3lvH96hJKWfcdcPdZqPZXHfj4E+ABSdS+o3WfV6nZx/Ps1XOq2JRzvRRoMWCw5JMtu+43GbbS67sZlzWSleT8+THvseqvX+1yrHs4m6iSFZBi8dcWuskQYrcjsrbS2tD60NEcolNoSk+/3NyLY/c95OACmZL1I6y5bjFxhV1ljH2fvjinOq4dRChxFKjuG60ptphlCWVc1GalNkk17ESzUSSItWznUTMtSbmNkOaXJ2FhEgRaxl4mGmTRGjNk2yjZpKS+VCSLkZcj23MzPyNcABYLTq86jLqgk45Zamy3WZsH4ZKllCiosZMTjxNl2clopTiDSWxkp0yMvB7iPgACvo6uuopvH044jUuUTKIHwtM30MX4kmJx49krDterJHHxt3fbwNDiah5hBwGw0vi3HDGbSyYt5cH07R9yWyhSG3O4ae4WyVqLiSiSe/kjPYa4ADZ9Ocdw3J8nZq891CYwunNCnHrR6tkTuO23yJZYSa1KMt9t9k7l5Mvcbv1Ra0xtbdS2rSjcsTxnGqmHjWOlYr5Sjr4jfBLrx//kcWbjqvyNzbc9txIRst3pjqTjVfLtsj09yWqgwH2YsqTOqX2GmHnmkutNrWtBEla2locSkz3UhRKLcjIwG9V3Vz1FVOPxscgalyWmYcH4ZFmHBiqsY8TiaSZanqaOU2gkmZElLpEReC2Iaxp3rZqZpVDtazCsibj1952/iMCbXxbCHKU2Zm2tceU240a0mZ7K48i38GPFZ6S6q0uMtZrcaZ5XAx55KVt20mmktQlpV+E0vqQSDI9y22PzuNt1E0lx/E9CdHtTaqXZvW+oRX/wASYecQpho4M5LDJMJSglJ5JPdXJStz9uJeAHzV1Ra8OZDiOVv6gPvW2CPS38fkvQYrioKpKjU6REpsyWkzPZKFkpKEkSUElJERS151x91b7quS3FGtR7bbmZ7mNoyTSfVPDahjIMv00yqjq5RpSxOsqaTGjumryRJccQSVb/TYxvk/pe1MxfBsB1UynBcrfxvMZhpeagVD5SY8fvtNs/OtBoSuSTu7HItl/KZciMgGuaX9QmsejUOdV6dZvJra6zWTkyuejsTIT6yIiJao0hDjRq2Ii5cd9iLz4IfnU/qA1g1kiwa7UXNpNlX1izch17MdmHCYWe5GtEaOhDRK2My5cd9jPz5HgttPrq41Nu8G05wPMpL0WxlMQ6SXXrfumGW3DSTclllBGTyC2JwiQREoj8F7DH2OnGodPlUbBbfA8ig5JNcbajU8mrfanPrcVxbShhSScUaj8ERJ3M/BALd0y9ZGaaSZFjONag20nJdMa99aJVHLhx5qojTiFJ7kQ30KU0ptSkuEhKkpUadj/EY03qWydjKNRk5PC6gJeq6n2t27SVWSYLkNtKz7cc2XkJSjYvPFou2Rme3uY0qZpTqjXY47mNhptlMWgYcUy7avU8hENtxK+CkKeNHAlEr5TIz3I/HuGKaU6o53BkWmD6bZTkUOIZpkSKqnkS2mTIt9lraQoknt+ZgK1P6+Oqa0luT7PO6SZKeMjcffwyjccWZFsW6lQzM/BEQmFvrLqVeU9dQz8lMoNTdysjgtx4jEc49jJUlTz6FNISot1IQZJ34p2LiSRtmmWikDONGtW82kt3Z5LgjuPx6muiEnjIenzlRnW3WjbU4tREkuKUGkyV78vYao1pjlmMZ9juK6m6c5rWnazoqF1aKt2NazI63UpUmI28387qiM0o+VRGs0lsfsA2Gf1T692OorGrL2oDzOVsQ1QDsIkCLGN+OozNTb7bTSW3yUZmau6lXLYt99i2wupOumqmrkSvrc8yn1lfVKW5Cr4sKNAhsLX+NaY8Zttoln9VceR/mPPYaYZfa5HdR8G04zWRWQ712nYZkVTr0yO8a3O1Ek9pHEpXBtXJsiIzNC9k7F4w2SYLm2HXaMZy/DryjuHCQaK+yr3o0lRLPZJk04klHufgvHkB9sA1CzTS3K4Wb6fZFKpLyvNRx5cYy5JJSTSpJpURpWlRGZGlRGkyPYyMbjl/U/rlneO3OIZNm5SKO/KKU+tYq4cWMo47pvNKQ2y0hLKu4o1KU2STX4JZqIiItWyvSnVHA4Me0zjTbKcdhy1cY8i2p5ERp5W2+yFuoSSj2Iz8GNWAVyd1adRFjDrocrUyZyq1RFMTGokZqav0q0LjpelIbJ99KFttqJLq1luhJ7bkQ+Ufqo12i3mXZCxmbCJedoZRkKPgsA4882iMm1qj9jspcTuoycQhK91KPfczM5QACoH1O66nhcTAP1gyiqYEAqqKpMWOU1mF7elTNJv1JM7Gae2TnDifHbbwMjI6vOoqRd3WSnqO4za5FGgxLWZGrITD0tqI93mCWptlJmZLM+SvxOJPis1p+UR4AFEzzqF1j1KdonMszV5acYdORTsQIkeuYgvGolG601FbbbS5ySR8+PLci8jY5PWP1JSsgrcpPUx5i0q5RzmpEWshR+/INpbRuyUtspTKV23HEbvks9lqL+Me8YABWse6rNeMWiza+ozON6GdYP2ioMqjr5UViU8rk45HYeYW3G5Ge+zKUF+RDCV+v2s1ZqTJ1fh6iW5ZfNSpuVaLdJxcho0kk2nEKI0La4pSntqSaCJKSJOxFtoAAN81J101U1ciV9bnmU+sr6pS3IVfFhRoENha/xrTHjNttEs/qrjyP8xjdOdU8/0kvHci07yWRTzpEdcOQaEIdakMK2NTTzTiVNuoMyI+K0mW5Ee3gaqADf9Q9etWtU2a2JmmXuSIdO6qRAhQokeviRnle7qGIrbbZOHsXz8eX7xmsw6reoLPcWlYblepEubWWDbTU/jEjMyJ6G9uCZUlttL0gi2Lw6tXsW4kwANmyvUrNc3fx2TlF161zFKiJQ1CvTMt+mgxjUbDXyJLnxNavmXyUe/kzGxRuozWqHqha6zQ87lR8vvSWmznNR2EImoWlKVNuxyR2FtmSE7oNBpM0ke25bibgAouY9QusGe2lBbZPmCn14tIKXTRo8GNEhwXiWS+43FYbQwSjUlJmfD5tiI9yHii626nws6yTUqLk3DJMuZsI9zN9FHP1Tc4lFKLtm320cyWryhKTTv8vEaOADYoOoeYVuCWWmkK47WN3FhHtJsL07R92UwlaWnO4ae4niTiy2SoiPfyR7EN/ser3qNtFVz0zU+Z6qsfiSG5rUOK1LfXFUlTHqZCGidlEhSEKJL6llukjMj2EeABXLbqLy3JtPM/xXKpJTrLPr2ruZjzMKLEjpVFbdStfbZbSROLNTJbJJKdkrMyNSty0PT/P8t0tzGrz/AAS2+GX1M6b8GX2Gnu0s0mkz4OpUhXyqMvmSfuNfABsknUbMpmAs6YSbnnjMe4dv24Pp2i4z3GktLd7hJ7h7oQkuJq4ltuRb+RkXNadUVScNnNZhLjStP4pQsbkRENx3a9knFOElK20pUv51rPdZqMyUZGe3gaUACmaidSeteq1dFps5zdcyviTPiKIcaBFhMLl7bd9xuO02l13bf51kpXk/PkwjdSmtcTUa/wBV2c2V9pcpaVHu3118VcewaUSSNt6Kpo460fIn5Tb23LfbcTMAFCzDqA1ez3HWcSyjMFyaeLaldRYTMKNGaiSyZJolMEy2jsoJBeG2+LZGZq48jMz29XW31QrnwrZWqb3roSeBSvhcHvSU9lTO0lzs8pWyFq27xr2PZRbKIjKHAA3Oq1j1IpabFserMj7NfhV2rIqJn0bCvSWClNqN7kpBqc8stnxWakfL+Hye/wDtLrLqTjuo1lq1T5J6fK7dywdmWHo46+6ualxMo+0pBtp5k64XhJceXy7bFtpYAOptDNXKil0fh4Wx1TWGnE2LaSJUuvuMUK6hJSribcmsdaYdeiPl83It0bqMlEtPnec9VerWPaxasrvsQVYO0NRUV2P1smxLaVLZhx0teodLc9lOKJa9t99jLfzuI+ADd8W1r1NwzA73THHslJnF8lUpyyrXoUeS244bRtG4g3W1KZcNs+PNs0q228+CGyzurTqIsYddDlamTOVWqIpiY1EjNTV+lWhcdL0pDZPvpQtttRJdWst0JPbciEjABX2+rfqDZsbu0i58mM/kliza25R6iC03NktsqZSpxtDJIUk21rJaNuCzUalpUryMfbdTGt95nuOal2Wcrcv8Q4/AnEQIrUauJJ7kTMRDRR0lv5Mu3sfjffYhMAAUDAtfdW9M5d1Kw3L1xEZGvu20R+HHlw5q+RqJTkV9tbKlEozMjNG5bntsPpP6h9a7LUSBqvJ1FtSyqqZTGgT2TQyURgkmkmGmkJJptnZSiNpKSQZKVuR7nvOwAUrP+o/WbU7H/snl2XocpVSEyna+vrIdbHfeT+Fx1uI02l1RfQ1koyPyQ1XAs/zLTDKoWbYDfyaa7rjUceWxxM0kpJpUk0qI0rSpKjSaVEaTIzIyMa+ACuq6stf1TJ8r7doS1ZVrlRJgIqIKa9UVxZLWlMMmSjoUa0pVzS2S9yI+XgabkmqeeZdd0GR5Fe+rscYr4FVVPelZb9PFhkRRm+KEElfAiL5lkalfxjMaoACnUnUvrfjmf5FqfT506xkOWm4d48qDFcj2HNXJRPRVtnHUW/ki7exbnttuPDn+vmrmqNCzi+eZg5a1UaxXax4qokdpDEhTKGT7fbbSbbfbbQkmk7NlsZkkjMzOfgAAAAAAAAAAAAAAAAAAAAAAAAAAAAAAAAAAAAAAAAAAAAAAAAAAAAAAAAAAAAAAAAAAAAAAAAAAAAAAAAAAAAAAAAAAAAAAA741lyFeWfpBNNdOs3tXXsPjSMPaVVvOn6N1bkOK5u41+BRrWskGpRGZp2SZ7ERFwONlzrUjNdSsqVm+aXip92pmKwctDLcdRIjtIaZIktJSkjShtBbkW57bmZnuYDtmTr/iOM9RWfRl6Y65ZjkTr17WX9BLyxmZAmRSQ8iQlcNEHkTDaCNxBErZBNoPfYvOEwTBr7UfCOirEcYyRGP2kmyzCRHtFRkSDhnHsyfN1LSyNK1kTRmlJ+DVxHPd/wBXPUTk+Pzcau9SpL8azhlXz5KIMRqfNjbEntPzUNFJeQZERGS3FEZeD3GrRNatUa+BhFbXZfJhs6cvypOMHGaaacrnJDxPPKS4lJLXycIj2cNREW5FsRmQDsfS/M8K1Nw7qTXja9W7yKWnttOsLLMcgjS4T8tLqHI7no2oyOxI5IcWg+6rglDhbH4MtKl2lo5pP0VsOWMpTT95bpdQp5RpX28ibJBKLfY+JbEW/sW2wjh9YXUX9oGslb1DSzLbZlR1MsU8BqG+iSkkv96Ihgo7ynCSRKU42pR7F58DB13UZrJVYdDwCFl6Soa21K6gxHa2I76SWUhEjmy4to1tJN5tKzbQokKMj3SZGZGHVOrNjZ4vgXVpkuDTZEG/kaxJq7mZDcNuQzTrkS1ITzT8yG3JBElWxkStiI9/YfvRW1tsq006XchzufJn3sLXBNZRS5zinJDlOSoq3UJWrdSm0SfBeTJJ+C29hydR9QusWN51kWpFNmjrF7lzz7964qJHcjWSnnDccJ6Kts460mszUSTb4kZ+CIfq86iNZckzfG9Q7jNXXrrD3mZFCpEOO1FrVtOE4jsxENlHQXNKTNJN7K2LkRgOlNI82yvL+q/XOsyG+mza+zxrNoT8J15RxzjNMvdlkm9+KUNk2gkJItkkkiLYati+rOFz9IdN9MdVbvVLSSbjDEuTjuSY8wpytsI8mWt0pj0U1tOKUlwloJ1hat+Bl7lsXPuP6t6hYtl9znlDkHpb3IGJ8axlekYX325qVJkp4KQaE8yWrylJGnf5dvA2XCeqHXPT3GoeIYxmyU1FatbkCNPqoVgUFS1clHHVKZcUxur5vuzT5Mz9wHT8lWrOjGJdY32jzZE/Noy8QN7IYCCjrkJmSjMpCCSlPacXHfLfYiUk1q87+RjtKby6yzRvpstsntZdrNq9fG66JJmPKedZjKOC6ppK1GZkk1ny2323HKUnWjVGdXZpV2OYy5zOoj0R/JlS0NvvWLkZ03WFKdWk3EcVnv8AIpO5bEe5ERBQ6zak4zRY9jVJknpq3FciTllQx6OOv01qRNkUjkpBqX4ab+RZqR8v4fJ7h1zlV1ldDob1azcTlS4q16vIYmyYqlIcairlykr+dPlJKUaEHsZbpWaT8KMj82Eag5djGinTVqvLxKwzvJ8azPIip69SXH5c2nZabU8ltRJWs0tL5qSrZRNmnfbYjITHBepyyxbQvUZ5nO3IepmVZzByAiTA5JmsqaklMW4ntHGNClPbG0suJkrwgyLxL8l6jNbMszGiz631Anpu8XQlukfgttQW65JHvxYZjoQ02R7/ADElJci8K3IBcr5FRqdpFqdfaFa7agyq+HEj3GWYXnLCJDj0UpaOL7MxK1tuLbdUg9zS24ot/J+UnyS6w+xw77LjfcQTiOaTLkk/ZRb+5fvFPznqe1x1FxyXiWUZqlVRYOIdnRIFXCrkzVoVyScg4rLZv7K+Yu4avJEfv5GpZvqTmmo5Y+WZ3XxEsWo4uN1P+rNM+mroxrNln7tKefHuL+dfJZ7+VHsQDWgAAAAAAAAAAAAAAAAAAAAAAAAAAAAAAAAAAAAAAAAAAAAAAAAAAAAAAAAAAAAAAAAAAAAAAAAAAAAAAAAAAAAAAAAAAAAAAAAAAAAAAAAAAAAAAAAAAAAAAAAAAAAAAAAAAAAAAAAAAAAAAAAAAAAAAAAAAAAAAAAAAAAAAAAAAAAAAAAAAAAAAAAAAAAAAAAAAAAAAAAAAAAAAAAAAAAAAAAAAAAAAAAAAAAAAAAAAAAAAAAAAAAAAAAAAAAAAAAAAAAAAAAAAAAAAAAAAAAAAAAAAAAAAAAAAAAAAAAAAAAAAAAAAAAAAAAAAAAABsWnGI/rA1DxfA/iHoPtJdQqj1fa7vp/UPoa7nDknnx578eRb7bbl7gNdAdMZL009OVDnVzpgrq9KHktNaSaV341g0iHXlMZdU0pK5Tch7to5pMu4aOJF5PwNClaG3Gn2o+Y6aaqYXlk+0xyjmzm0YslEgkLSyTkec6s0KI4HFSVuLIkmSD90nvsEkAbPiWlmp2fRZE7BNOcoyONDPjIeqaiRMQye2+y1NIUST28+Ri6nF8mvr1vFqLHbOxunXVMt10SI49KW4nfkgmkkazUWx7ltuWxgMYA2S+0z1IxVidJyjT/ACWnZq5DUWc5PqX46Yr7qTU026a0ESFrSlRpSrYzJJmW+w/V9pfqZisN+xyjTvJqeJFnIrH359TIjttTFt9xMdSloIkum385IP5jT5228gNZAbVkmk+qeG1DGQZfpplVHVyjSlidZU0mNHdNXkiS44gkq3+mxj90OkGrOUohOYxpfl1uiyjOTYSoFJJkFJjtuG2t1s0IPmhKyNBqLciURkZ7+AGpANnY0t1NlUdjk8bTrJ3aendcZsbBFRIVGhuIPZaHnSRwbUn6koyMvqNYAAF86n+ky36co+O3MXLmcro7yO02/OZhemOvsVMNyDhPI7jnFXYfZdQo1FzSozJJcTGj53pC5hmnemeeM3irFzUaBPmIgph8DhnGmrik2S+au6a+HLfinbfbY/cBOwG05RpTqjg9bHuc102ynH4EtRJjyrSnkRGXjMtyJC3EElR7EZ+D+g+1Jo7q7kpRjxzSzL7UpkP4jGOFRyn+9E5qR30cEHya5oWnmXy7pUW+5GA1ABsremOpT2NzMxZ09yZdBXOLZmWqamQcOO4k+KkuPcOCFEfgyMyMjH4w/TjUPUN2QxgGB5FkzsRJLkIp6t+aplJ+xrJpKuJeD9/yAa6AzddgubW+SOYbU4deTb9nuk5VR695yYjtJNTm7KUmsuCUqUrx4IjM9thhAABSNM9D84zO6xSws8FytrC7y8g1cm+j1jyYqG3pKGVmiSps2iUXIyLfcuW25H7D95/oxew9dc60j0sxrI8oLGMhs6uIzEhrmzVxo0pbSFuJYR5VslPIySRbn4IvYBNAG8Yxorqbk+p9XpC3hV7DyeylNRzr5NY+iRHQoy5PONGnmltCN1qUZbElJmZ7FuPRm2hOqGFaoWGkj+EZDLvosl9qJGaqJBP2DCHFoTJYZNHNbS+BqSoiMjL6gJ+A3qm0pyaBqljGnepWLZBjLt3awob8efBchSksPPpbUtCXkbkexnsZpMty9j9hsOs3T5mWBZznzGKYNmFhg+I5DZVLN+9WOuxyZjSFtEb0lttLPLZJcjLiW+/gvYBJAGxYfpxqHqE7IYwHA8iyVyIklPop6t+Ypoj9jWTSVcS8H7/kPCnFcoXkX2RRjdoq975xfhZQ3Dl97/8AH2dufL/07bgMWA2HMNOdQtPXo8fP8EyLGXZaTXHbuKt+Ep5JbbmgnUpNReS9vzHqc0l1VaxQs8d0zytGNKbJ0rlVNJKCaD/jeo4dvb9/IBqgAPRXVtjcT2KuogSZ02U4TTEaM0p111Z+yUoSRmoz/IiAecBseYaa6jaenHTn2AZJjRzCM45XFU/C7xF7mjupTy9y9h9HdLtTGMTRnr+nWTt4ysiUm6XUSCgKIz2IykGjtn58fiAawAuOSdOFnI0u0jyrTDHMsyjIM7qbeytoEGGqaUcolguMhTTbDXNCOKSNRrNXzH4Mi8CPljeRHffZYqGxO69R6T4d6Vfqu/vt2u1tz57+OO2+4DHANizDTfUPTx2Oxn+BZFjLstJqjouKt+Ep5JbbmgnUp5EW5e35jISNFdZIkS2nytJczZjUB7WzzlDKS3XnwJzZ9Rt7NfIpKvn2+VRH7GA00BsV1pxqHjdBByvIsDyKrpLTj6Gym1b7EWVyLcu06tJIXuRGZcTPwQ9NJpLqrk2Pu5ZjmmWV2tGwSzds4NLJfiIJP4uTyEGgttj33PwA1QAAAAXvQnpcyTNNQINDq1hmbYxQ2dLbWUKeuuchFJcjQXZDZNOPtGhaTNst+JGZp32MvcTTJMbqYGA4VeV+M5hEsbv4gUyfZMJTVWJtSCQ38NUSCUvgk+D26lbOGRFx9gGngNqyTSfVPDahjIMv00yqjq5RpSxOsqaTGjumryRJccQSVb/TYx8KDTbUXK6WdkmL4DkdxUVm/rp8CqfkRouxbn3XUJNKNi8/MZeAGuANl/VlqR62VWfq+yX1kKC1ZyY/wl/uMQ3eHakLTw3S0vut8Vn8p807GfIt/rG0n1TmZXIwOHprlT+TREpXIpmqaQucyk0pURrYJHcSRpUk/KfZRH9QGqgNgf08z+LljWBScGyBrJn3EstUq6x9M9xxXlKUxzT3DM/oRJ3MemXpTqjAoomUTtN8pjU095MaJYu08hEWQ6pXFLbbpo4LUZ+CSRmZn4AasAz2XYDnen8tiBnmFX2NyZTfeYZt616G463/AONKXUpNSf3l4Hgocfvspto9BjFJPt7OWrhHhQIy5D7ytt9kNoI1KPYjPwX0AeABbJfT49jvT3lmpGcU+TUGX49ldbRoqrCOcVBRpMd51S3GXWyd57tp4nyItjPwfuJzfaX6mYrDfsco07yaniRZyKx9+fUyI7bUxbfcTHUpaCJLpt/OSD+Y0+dtvIDWQG1ZJpPqnhtQxkGX6aZVR1co0pYnWVNJjR3TV5IkuOIJKt/psY8a8AztvI4WHOYVfJv7JLK4VUqteKZJS8klMm2zx5rJaTJSeJHyIyMtwGBAZiNheYzJ9vVRMTuX5uPsSJNvGbgOqdr2WFcX3JCCTu0ls/C1LIiSfg9hsueYAtrUtWE6fYFnsZ15iIcWlvoPK5W4uM24szZabSZpUpSlt7I3NtSDPf3MNCAZ7L8AzvT6a1W57hV9jUx9Hcaj29a9DcWj/wASUupSZl+8hgQAAAAAAAAAAAAAAAAAAAAAAAAAAAAAAAAAAAAAAAAAAAAAAAAAAAAAAAAAAAAAAAAAAAAAAAAAAAAAAAAAAAAAAAAAAAUTpx/aF0v/AKZ0n+OZE7GRxzIbjEshq8rx6Z6S1pZrFhBkdtLnakMrJxtfFZGlWykkeyiMj28kZAKP1IVdnedVuqdPTV8mfPm6g3rEaLGaU4684qxeJKEISRmpRmZERF5HY9243B1tvcGlympF9g/S3LxvIltuE5//ABRitUp5JrL8Skk4hJn77p2PyQ5cm9d/VRNclSC1Ljwpc3mb82uxyqgzFGvfmr1DEZDpKPc9zJRH59xK8W1PzzC7W8vMdyJ5mwyWsm09rJebbkuS4kxPGShRupV8yyM91lssj8koj8gOmTkV2lWjmjeO5tmOrN5PyWE9kWPUOEW0Wmi1yJMtSEEbpxnnZUlbjZn5IjRuSUn+dq1hTLxHW3q+yzDkvV2WwcEoHIr8ZZFJYalNQPiLyFoItlmkzUpxO3kzPxuOIsf6l9cMWwmNp5RZ4/GpICX0QUHDjOSYCXjM3UxpS2zfjkozMzJpxJbmf5jfdI+pfLLHUetvNU9a73GHqnG3qCpyGupIko2U8UE01Ysk1ynRdkESiWTi/CDL2AbWWTZ1k/6OK/fy+dOsYcLUqvi1cyatTrnbKI6txlLitzNtC3DUSd9iU6vb3MUfXNrUXV79JRWaS0mfSaFivsKh6qWaCfj1y2axqY5IRHX92t7kbyiNRbmpREZ7CWa+a8Y5ZaF/qlgatr1KvrnJGLufaRKJdPVVkOMw62zCixlttbGpx9x1RoaQjcz8GZmo4Xd61aoZDqiWtNnl0n7apfjyU28ZpqM4l1htDTSkpaSlBbIbQnYk7GRHvvue4dj6X5nhWpuHdSa8bXq3eRS09tp1hZZjkEaXCflpdQ5Hc9G1GR2JHJDi0H3VcEocLY/BlKtZM7y/F+ljpjh43kM6rbRBvrI/RvqZNchu3dJpajSZGo0bq47/AIea9tuR7zw+sLqL+0DWSt6hpZltsyo6mWKeA1DfRJSSX+9EQwUd5ThJIlKcbUo9i8+BoOU6l5rmtBj2L5Lcpl1eKtymqiOmKy0UVEl9T7xEbaEmrk6pSvmM9t9i2LwA/oHZZbkdj+lms8RlXEpVEtuwqlVhOmUVUVdE6642bRfKZLeUp1Xjy4o1H58j+aooh9Qmr56xOa+nl3/bx5a3F23w+L5UuOcZR9jt9nyyZp/B+/38idgO+tVM6xp/qiznp91RsExsF1Mo8XiqmueSpLlFJC9DZJ3/AAklZ9t3yXJpauR7J2Hq/UnqDBy7pU0il3isOyjHIuVOSLBMVEpcNUGzmSFustrI0uqNDJm2exkfJCvYcN57n+W6nZPIzLOLb4lcSmY0d2T2GmeTcdhDDRcGkpSXFppCdyLc+O57mZme4XnU9rzkl7huUXGpFg9cafxkw8dnoaZakQ2kkRbG4hBKeMyIiUbprNRGZKM9z3DqLT7LsL1L0W6kXsYb1YtYLeJnOmzszyKPYRXphS23GHEx2oyOzI3StZH3V7ESi8+DLSdWs7y7HNMulOvx/IJ1azHojsUpivqa5SCtXUpWriZcjSSfl3348l7bcj3kyOr/AKiGr37QsagIYfOFKr1xmaaA3BdYkmg30uQ0sFHcNw22zUpTZqPgnc/BDRcg1PznKYWL117d+pj4ZFOHRo9Ky36Rk3lPGndCCNf3i1K3XyPztvt4Ad2Ky3I7n9JfqPis+3lOUkmsyWqdre6ooqoqad9zt9oj4bG4nuK8eVmpR7qMzGjOZJplgHRVom9eVuobkG9sMhlWTuH5GzUoXaNTCQn1nOM6bjhMJaJrc07ISoyI99xzE1r1qwzqnYa1t5Xtmdr6opdn6GN956hhTD33Pb7Rcm1qT4QW2+5bHsY+mnHUFq9pPTzMcwfLfTU859Mt+tm18WwhnIItieSxKbcbQ5sRFzSklbEXnwQCjdSWt2R5BqRiOe4djmd6f3kTDodeVpZ2K/i1zG4OIbnrkNtsm73Y6ybNwi2WlHufkc7ChwuoTWWBqg7rO3ncx7M3WXo6rWUyzJX2nWVMLQSHUKbSntKNBJJJEktuO2xCeAO+tV8u1Gx39IfgGD4Dd2zGM172I1WP1cZ9ZQnKdyLE7qCaI+Cml83+Z7bfi3/D48GaR4uEP9SOqmXZzmkDFLjWGfiq6LD348KZZTW35MpK5Ex1tw2WEINWyUpVyUZ7l4HOdX1c9RVNjlRitfqXJbg0LLcWtcVBiOS40dBkaWEylNG/2fHHtc+Bp+U0mk9h4aHqd1wxu3yq7q81T382sF2181Kq4UqLMmqcU4b5xnmVMoc5LUZKQhJlvsWxERAOucslMyck6GMor4eUQXLK8NhDmRWSZtq5BK8jGwh6ShponGzbeM0FwIibcSXnyZ6PStz6/NeqPVzI9RcvqMcxq7co7OHjbjKLWyTNtX0sxkSn0r9KwlTJmtRF5LYiI/Yc72nUlrfeUsOhudQZs6PXXZ5HCdkMsuSotgayWbzUk0d5sjWlKuCVkjciPj4IZZfVz1BuZhZ50vO2VW13BRXWhnSV5xp7CXFOJJ+L2Ow8olrWrmts17qP5gHTN7Kpsi0K6ccoqavMGYZatKjVbuWW7dnN9Kpcc1k2+hhkiYN1s9kcfCkKPc/G2WxjO9U7L9Kdc4bdXNq7SS8it6qbTPPL9C5S+nfPitgz7fbNri6ZmWxqPn7nuORl9U+vb0CbVytQHZcSfbxL1bMqBEfS1OjdsmHWObR+n4JZaQSGuCTQgkGRp8D32XWJ1I28G8gT9TZC/tGUlNjJRXw25jrchaluspkpaJ5tk1KV90haWyI+JJIvACn1J45pT004xdZnnWo0rHc8ye4mUGO4bYxapCPQrbjuSZctxh1bjiuSCQ3xMiSW+5GYrOtGfTNJOpLFs5d06zC1astDoDGUGzJNV/WMSGHIz09yYhokplskTaVPqQhJqIy+TkW3HeC9R2s+muLKwvDc1XDpilKnMxnoEWV6SSoiI3oy321rjuGRF87RoPfzvuPbF6qeoCEvG34+pU5MjE4z0GrknHjqkIiu7847zptmuS0e5/dvKWgt/BEAu0XGcazjD8WvcS1yyjLNI4mpNFGyfGs0gpZm1TslZoJ9LxLcbcQponkr7akfQ1JP3KmZtrpjGBdZeURYenGtuT5bX3M6uLHmMoYerbGESVkmOiuTBNRxFR9lJa5HsjifIzLkOKtReoHV3VanjY5m2WFIp4kj1bVbCr4tdE9RxNPeUxFbbbU5xMy5qSaiIzLfyYzz/V91HSqBWOP6nS1srgfC1zfRRSslxOPHsnP7XqjRx8bG77eAEotXoci0mP10RUSI5IcWwwpXI2mzUZpQZ/UyLYt/3Cq9K+otjpTqqecw8Jt8liQaaybtG6g1omwYD0dTT0xl5KVdhbSXOXcMuJexmnfcvPQaJYbdUkG3mdS+mFO/Mjoecr5xXHqIqlFubbnagLRzT7HxWoty8GY+70Gf092NdqFpT1HYlcXzT6oyE4ydiUhptbauanClxGm1tGRcFJM1b8i3SZbmQWORQY3nemK8g0/14zDItMavMqE8vxjNYaG5lacl1bTUpuQlbjbhGnvIV2jbPbyojLbb7646h9SsDrT1Ew3TmVcy5SXrGlhY2TffgqoyjKJLXo1/c9kopE4Xy7F+P38jn7ULqI1h1SomsXzLLkvUzUgpnw6BWxK6Kt8i2J1xqI02hxZEZkSlkZluex+TGVl9WfURPw9eDS9TZzlY7X/CXXDjRymuQttvTrmk36lTW3g0G4aTLxtt4AVDWTUPNsW6Sum6ixfJ7Kmiyq6/myfh8lcdT7rdu8TRrUgyNRI5LNJGexGtRl5MdGm7Sp6k9XtQLWLbTMjj6H11025TSkRbRS1wYaZkmM8pCybkdozLuEg1ESlbe+4/nRkGoeYZTjGM4bfW/qqfDmJMaljenaR6Vt943nU80pJS+TijVus1GW+xbF4Gfc1/1hXqHXarNZ1NjZXVQ48CJZRG2o60RmGSZbaNLaUoUntJJBkpJ8i35ctzAWTLda8KyDprzPA8P021UsqmTb1cxF5lGQt20OhnpWs921NxGyaXIZ7zZka/m2IyLwe/RT+a5RK/S21eMvXctVMyhisKuN1XpjjO0JOONqa/ColOLUs9yPdR7/QhwnqP1Bau6sVEXHs3y0pNRDkHMaroVfFr4nqDLibymYrbba3NjMuakmrYz8+TH6/0hdYP1xN6+/a//t40tDiLb4fF8KRGKMk+x2+z4ZIk/g/f7+QFe0uzPKc86aup+Vl97NtlyI2O2x+rfU4SJZ3CCN1BKPZJmlak+Nvl8exCx0cmJprrtoro/kGY6uZZm1TFx1uMmiuYlTR1zLxNvpYTHKM4qSyhpz751SkG4kl8jIi8cN4/qFl+LYxk2G0Vv6WnzFiNGuo3p2l+qbjvE80nmpJrRxcSSt0Gkz22PcvA3J/qk17kYrCw1zUWWVfXQ2q6M6iLHROREbMjRH9alspJslsRds3DTsW223gB8Op+BDq+pPVWur4rcaLGzS6bZZbTxQ2gprvFKSLwREXgi/IezpLrqO36nNLq3I2mXa+RlVclxt4iNDiu+nghRH4MlL4kZH777DNWtfL6iJBapaq9S+m9TkdgRtSY1pBmxpZE2o0pW6mBXqZUpRfNy5GoyMuR7+C1zKdLcewSoVleO9ReAX9lXvMuRoNEq2ROUvuJIltKfhNII0fj3NwjIkntuexGHUXThqBrFkHWNqxV5Lf3k6O5W5cq6hyn3HGYxNNvJaPtqM0t8HDbbSZEXFKzSWxKMjx+CYNfaj4V0V4jjGSIx+0k2OXyI9oqMiQcM49n3zdS0sjStZE0ZpSfg1cRC5nWr1OTpaJ8nU9w5KWXWHXkVMBC5SHGFsK9SpLBHJPtuLIlO8zSZ8kmSiIxo8TWrVCvgYTXV2XyYbOnL8qTjBxmmmnK5yQ8TzykuJSS18nCI/vDURFuRbEZkA7H0vzPCtTcO6k142vVu8ilp7bTrCyzHII0uE/LS6hyO56NqMjsSOSHFoPuq4JQ4Wx+DKZa65lnen+kvTXW6Y5HcUtUrEVXEf4VIcZJ66XPe9Ss+Bl3HUqJsvO5lvt9fM0PrC6i/tA1kreoaWZbbMqOplingNQ30SUkl/vREMFHeU4SSJSnG1KPYvPgUvSDWWrY0lq8VV1Y2Wnc2LYzJVhXWmIlbMsG65yTIp32GFuxHDIzNSSW194ZqSpPuYdF6gZDkeKdSPULkTLaaq+r9CIkhJMIJv0MxLVbspoi8IU2vygy/CaUmXsOaNHZkmi6eM61o1H1Lz74DkGUQMXkVWMzWI9jbTm4y5KFyZ77bq22EN7kSSSrko9jLwNX146m7LLNX84yfSmwm1mOZPj8bDVpnR2XJM2oYYYbPu80q7anFRkuGaDJRb7cvffQNN9ddVNJK+zp8EydMOuuVNuToMqBFnRXnG9+DnZktuIJadz2WSSUX5gO6GlQrLPuhzJY9ZkkZdhLsW2l5LYIn2i4aLBCoxPSUNNE4jg6am/kLi24kvPucu0b1V1Aef6rrV3KrFb/ANl501nk+o0xn0WTTbLjJb7NKaS4ZNmnY29k8duJbQWJ1YdQURFUR6jSJS6S9Xklc9OgxZb0WwWfJbiHXmlLJKj8m1v2zMi3T4IafS6o51jyMrRT3np05vCcr74vTMr9ZHW8l5aPmQfb3cQlW7fE/G2+3gBacys7LIegrCJ13OkWEqt1MuIER6Q4pxbMdcCM6ptJqMzJJuGatvbcerpNXa41pn1D5NjqpMHMKjB2UQHmeSJUWK7NaTNcbMvmQZNcd1FsZEfuQg5akZoWDQdNiuf+zlbcOX8WF6Zr7uettDane5x7h7obQXE1GnxvtuZmNmZ6ktbY2rNhrjGzySxmtsk259k1FjoTKbNtLZtuME2TC0GltG6DQaTNJGZbluAs7WSZxkv6ObJHcrs7CyhQ9S66NWSZrqnVJT6N1bjKFr3PglSyUSd9iU4sy8qMUvXNrUXV79JRWaS0mfSaFivsKh6qWaCfj1y2axqY5IRHX92t7kbyiNRbmpREZ7Dk3OOpHWnUfG5eH5jmZzaObKjzF17dfEjx23WCcJs2kMtJJki7zpmlvilRrM1EZ+RirvWrVDIdUS1ps8uk/bVL8eSm3jNNRnEusNoaaUlLSUoLZDaE7EnYyI999z3DsfS/M8K1Nw7qTXja9W7yKWnttOsLLMcgjS4T8tLqHI7no2oyOxI5IcWg+6rglDhbH4MvBikpdngmAdWxOGiTp3pVe0L75H4bua9wq+sNSv8A8hotYSy+p9nx7DnY+sLqL+0DWSt6hpZltsyo6mWKeA1DfRJSSX+9EQwUd5ThJIlKcbUo9i8+BqEbWnU2Hptd6QRcoW1iGRWabiyq0xWCQ/LSaDJznw5oLdpv5UqJJ8E+PADrHWtEfC9P9Z9eILSI/wCvZnGItK42WyuFjHTaW6dvyJ1jtK/erz52G+auTJtBk/VVmGISHYuZ1mBYMxXSoqjTKj1z8eCixW2ovmSXaJBKUW2xH7jg7KNYdSMzwTF9NMmyd2bjWGE+VJBOOygoveMjc3WhBLc9i27ilcS8J2I9hlU9RmtKNSndX2c7lM5ZIhtVz85mOw2l+K2whhLDrCUEy4322m0mlSDJXEjURn5AVmLdXeXdAeUSs+tJlkii1DrWcXkz3lOraediOnLYZWszMkdskLUgj232Vtv5HL43rUnXHVHVyPXQc8yj1kCpNZwa+LCjwYUZS/xrRGjNttJWrbyrjyP6mNFAAAAAAAAAAAAAAAAAAAAAAAAAAAAAAAAAAAAAAAAAAAAAAAAAAAAAAAAAAAAAAAAAAAAAAAAAAAAAAAAAAAAAAAAAAAAAAAAAAAAAAAAAAAAAAAAAAAAAAAAAAAAAAAAAAAAAAAAAAAAAAAAAAAAAAAAAAAAAAAAAAAAAAAAAAAAAAAAAAAAAAAAAAAAAAAAAAAAAAAAAAAAAAAAAAAAAAAAAAAAAAAAAAAAAAAAAAAAAAAAAAAAAAAAAAAAAAAAAAAAAAAAAAAAAAAAAAAAAAAAAAAAAAAAAAAAAAAAAAAAAAAAAAAAAAAAAAABVenHROt12zazxi5zReLQKfH7DIZVg3WevUlmIglrSTPdb3M0mf8b6ex7jd6Lpj0p1RkrxvQbqTh5Nl621uQaC+xp+icsjQk1G1HeU680p0yI+KFKRv+fuZBzmA3V7EYMLTGyu7HEs0ZvoGSIqnLE46U0kdvsLUuK6o0c0zeaeRJ5kXBK907luPKvSTVVvFft0vTLLE40bZPfGTpZJQe2fsvv8O3x/fy2AaoAz+I6fZ7qBIkQ8Cwi/yR+I2TshqorXpi2Uf+JZNJUaS8H5Px4H2Z0x1JkzKuuj6e5K7Lu0yV1jCKmQpycmOayfNhJI3dJs23CWad+PBW+2xgNaAbE7pxqGxa1NE/geRN2V/GRNqYaqt8n58dZqJDrDfHk6hXBeykkZHxPY/Bj8ZZp7n2BT2KvOcHyDHZspPNiNbVj0R11O+26UOpSai38eCAYABuMzRjWGur7a2sNKMxjQaFxTNrJeopSGoDiSI1JfWaNmlERkZksyMtyHgv8ATjUPFKeBkWU4HkVNVWpEcCdYVb8ePLIy3LtOLSSXNy8/KZ+AGugM1hWG5JqHltTg+H1bljdXctuFCjNmRG46s9i3M/CSL3NR7EREZmZEQuth02aB47erwPK+sKhh5bHdOJLbi4vMlU8aWR7G0uwJSdyJXhTiWjSnzufgwHOADds10bz3CdUbDR+RUKt8kgyfTIYpSOcUvdBLQtjtkZuJUgyUWxbkR7GRGRkWLyfTjUPCbWNRZngeRUFlN29NDs6t+K+/uexcG3EkpW5mReC9zAa6A3B/RnWCLW2lxJ0pzFmBRvOR7SU5RSkswXW/DiH1mji0pP8AGJRkZfUbJE6a9VZ2hTmv0TE7l7H0WioJdqqkL3jIZW47PNZJ4lGQpHbNzfjz3LfcjIBKwG11mkuqt1jLma02meVz8eZSpTltGppLsJBJ/EZvpQaCItj33PxsPBRYLm+URfXYzh15bxvWNV/eg1z0hHqnEqU2xyQky7ikoWaUfiMkmZF4MBgwFHxDp71byrVej0cewPIqjIrmSw0cawqJDTsWO44SFSnW1IJaWUEZqUsy2Ikme/geDMdFNUMKyXJMatcDyRLuLJVIsXF08hsmIfcNCJbhKRu2ys9jStWyT3LYzAaOAAAAAAAAAAAAAAAAAAAAAAAAAAAAAAAAAAAAAAAAAAAAAAAAAAAAAAAAAAAAAAAAAAAAAAAAAAAAAAAAAAAAAAAAAAAAAAAAAAAAAAAAAAAAAAAAAAAAAAAAAAAAAAAAAAAAAAAAAAAAAAAAAAAAAAAAAAAAOk+hL/v/AKhf1XZR/hBpHSXhmWZv1GafwMQiyFSIGQQbSTJbIyTCix30OvSHFeyEIQkz3P3PYvcyI9T0s1c1B0VyZeYaa3qKq2chvQFvOQY8tK47uxONm3IbWgyURF7p3G55Z1gdReaY3NxC31FONT2Se3NiVFTBqkykeSNDpw2WjcSZGZGlRmRkfkgF71PkVmq2i+qD2FSI3oct6lGyrH1HsytEmLLJt0/ySrmSj/cYsGj1zj7vXaxpXPyPV3OcmqVTKS+s51tDh0DrLENbLyVVTcYyKLuRIQnvJ3Ubavc/P85Y2o+aQ8Be0wi3amsafuWsgXDSw0R/EG2lNIeJ3j3SMkLUXElEnzvtuRGKBYdYfUjZzq60k6ny0z6yTHmNzGIMRiRIeY27KpTrbSVy+OxbE+bhfmRgN/k3N9hXQRSyMEtJ1UV1qbYMZBJgvLZccWzCaOKw6tBkZoJJrWSDPbf5tt/I6YwG4ym81q6L7vO0Ov283Db1+UqSn7yUhUeWaHXDPytTrfBalHuajWaj3MzMcy6La9vSKvNncn6hnsAyTJ7RifJKZiEa0x2xbJBpUaobMZz08lKiSaXG2iSaS28H5L8a39VE+PnWnFvozqDaW9nppSyYZZfZV6Cds7CY48uY+mPIJfFoyfNCCcTyIt/BbEYD/enO9zTMbbVTXPN9WsugRMYxd07qRTrbdt5rE2SltMSK6+SkxUG4rc3EFuhJbEXk9t31GsMeynoNp8ix+rzluvjatsMVz+X3bVrJ4Krnu96d1Edngwa0J3TsZdxCj33IyLlbTXVjUHSC6k3+neRLqpc2IuBLScdqQxKjLMjU08w8lbTqDNJHxWky3IjGyWPU7rnb1V/RWmdLl1mSojonwnq+IuOlLBKJoo7ZtcYvElK27BN/iP8AMB20nPssf/Sy3lJIupLtS2xb1/w1xw1RFRkULz3aUyfyGlTye4ojL5lmaj3MzMc5adZVkua9InUjIy++n3LrVliVo2udIU8pEt2e8h15JqM9lLSeyjL3IiL6CRp6gNXU6vSNeE5btnUo31PWvoIvzG9GVGc+57fZLdlak+EeN9y2PYxr9JqFmGOYfkuA01v6ehzA4R3UT07S/VekdN2P86kmtHFajP5FJ332VuXgBZf0f15U0PVlhL1tPZgeu+IVkSY6eyWJkmC+xHVv+ZuuISX71EIxkuB5niubTdPcgx2wj5LDmnAerjZUp9UjlxJKUkW6+RmXEy35EZGW5GQwCFrbWlxtRpUkyNKiPYyMvqQuMPrf6qYNUzUs6wWKyjMemZmPw4j1g01sZcUzVtHJT4M/JObgKZpBgud6E6a9TUSZFVS6n43jVEyz6OW27Lg18ua2c80rZUfbUTCmuexkpBHsexlsPzp1dXeXdHj0rPrSZZIotWKJnF5M95Tq2nnWlnLYZWszMkdskLUgj232Vtv5HN+Gasaj6fZg9n2I5hYwb+STyZU03CeVLS6e7qX0uEpL6Vn5UlwlEo9jMjMZXOtftW9SHqZzLst9Qzjz3qKuHFgRoUKI6aiUbiIsdtDJLMyLdXDc9vO4DtCoznLbf9LU9Sz76a5V/aKwpTgG8r0pwvRupUybW/Dio91qLbyszUe6jMxCnp8xj9H1GifE5jUUtaJURZIdV4jnTNGaNt/KdzM+PtvuJBF111Uhavq15i5TwzpU5yxO19DGP/WHEmha+ybfZ8pUZbcNvPsPnjOt2p+IYNf6a0OTE1jOTuKes656DGkNuOqbNpTqDdbUplw0GaebRoVtt58EA7p181YwDSfq2raegxTWOZaY78FYxWvxzLWGKmVDOMx6ePFh+jWamXCPgpBLVzUbnnc9ik5Z5PhdNHUZkWGU03CCvNSq1v4WlRtSKth45alxCURJUjiRG0oiJPy8kGWxmQilD1cdROM47Axim1KktRamKcGufcgxHp0GOZGXajzHGlSWUER7ElDiSIvBbDRY2pGaxMJuNOmbxf2fv7Bi1sYq2W1qkS2SWTbhuqSbhGROL8EoiPfyR+AHaWlNva2VL0QW9hZSpE4s4va05LjqlOqipsoZpZUsz3UhPNREkz2IjMi8Dk3UrM81rtSdRYddlNzGYt7WfBs2mprqUy4yZSzSy8RHstsjIjJKtyIyLwMZH1i1JiU+G0MPKHo8PT6wftcbJllptyvlvOtuuOpcSklrM1tNqLmpRFx8ERGe+cvepXWjI5+V2ltlrC5Ob1iae/W1UQWCmxUud0kGltlJIVz+Y1oJKzP3UYCYgAAAAAAAAAAAAAAAAAAAAAAAAAAAAAAAAAAAAAAAAAAAAAAAAAAAAAAAAAAAAAAAAAAAAAAAAAAAAAAAAAAAAAAAAAAAAAAAAAAAAAAAAAAAAAAAAAAAAAAAAAAAAAAAAAAAAAAAAAAAAAAAAAAAAAAAAAAAAAAAAAAAAAAAAAAAAAAAAAAAAAAAAAAAAAAAAAAAAAAAAAAAAAAAAAAAAAAAAAAAAAAAAAAAAAAAAAAAAAAAAAAAAAAAAAAAAAAAAAAAAAAAAAAAAAAAAAAAAAAAAAAAAAAAAAAAAAAAAAAAAAAAAAAAAAAAAAAAAAAAAAAAAAAAAAAAAAAAAAAAAAAAAAAAAAAAAAAAAAAAAP2ww9JebjRmVuvOqJDbaEmpS1GexERF5MzP6DZsr0p1RwODHtM402ynHYctXGPItqeREaeVtvshbqEko9iM/BgNWAbVB0m1UtMeYy6s00yuXRSnkx2LNimkuRHXVLJCW0vJQaFKNZkkiI9zM9vcbxD0Rgx+nzO9SslZvKzLMPy6vxtVZISTKGiebeN5L7K2+6l1C2iTtyTt8xGkz9gjoAAAAAAAAAAAAAAAAAAAAAAAAAAAAAAAAAAAAAAAAAAAAAAAAAAAAAAAAAAAAAAAAAAAAAAAAAAAAAAAAAAAAAAAAAAAAAAAAAAAAAAAAAAAAAAAAAAAAAAAAAAAAAAAAAAAAAAAAAAAAAAAAAAAAAAAAAAAAAAAAAAAAAAAAAAAAAAAAAAAAAACl9NmZ3unWuWIZ3jeDyMwn0M456aaOytx2ShDazc4EhKlEpKOayVxPiaCUZbEYt18io1O0i1OvtCtdtQZVfDiR7jLMLzlhEhx6KUtHF9mYla23FtuqQe5pbcUW/k/KT5axbKcjwnIYGWYjdS6i4q3ikQ5sR023WXC+qVF+7cjL2MjMj3Ixv2c9T2uOouOS8SyjNUqqLBxDs6JAq4VcmatCuSTkHFZbN/ZXzF3DV5Ij9/IDqjVfLtR8d/SH4Bg+A3VszjMB7EarH6uM8soTlO5Fid1BNEfBTS+b/M9tvxb/h8YLXT/AIVdVP8AXun++niQaWdXmsdHcYLi+TalyG8PoLGvjvLXAYdlRqpD6DdYTKS0crs9slJNpK9jT8vEyPYYHXHWq0yXOdWKTDMl9TgWbZ3OyZDXo0o9WfqX1Rn93Gyeb+7dP5N0/i+ZO5eAj4AAAAAAAAAAAAAAAAAAAAAAAAAAAAAAAAAAAAAAAAAAAAAAAAAAAAAAAAAAAAAAAAAAAAAAAAAAAAAAAAAAAAAAAAAAAAAAAAAAAAAAAAAAAAAAAAAAAAAAAAAAAAAAAAAAAAAAAAAAAAAAAAAAAAAAAAAAAAAAAAAAAAAAAAAAAAAAAAp2iWhFzrIu+t3sjq8VxHEYqJuRZJamv0te0tRpbQSUEa3XnFEZNtJLdRkZeBupdNWmGaVFy5oX1G12Y31HBes3qK0x9+jkS4zKTU6qIt1xbby0pI1dszQoyIzIvGwz2ktbYZz0OasYXhrC5V/Q5VU5RZwo5cpEioSy4ypaUF5Whp3ZatiMklsZ7biE6daWZ3qvaTajA6Fdi9W18i0muKdQyxEisNmtx155w0ttJ2TsRrURGZkReTIB8cP0y1J1DKSeAafZLkxQyI5J09TIm9kj9ufaQrj/AO48cLCsys51pV1uJXMuZSR3ZdnHYgOuOwWGlElx19JJ3aQhSkkpSiIiNREe246L1myPJMK6WuniDp/eWNRR2kC6tJztdJWwUu4TPNDqnVIMubjaCbSnl5Sk/GxGOlquxyVjVq3zOs7x6h2HSYVzbvJTvLXeElri8svf1HBuOrz534gP54XukmquLyKqHk2mWWVD944lmranUsmOuc4oyJKGCWgjdUZqIiJO5mZl+YxJ4llRZR9iDxm1LI/W/DfhHonPW+s58PT9jbud3n8vDbly8bbjo/SrIskvei/Xt/KLuxmMUdxiljQPS5C3DjWzk5xDy2FKPdLimOXI0+diIzFiWda/mkL9IkURj4eWnzl9ISaC7J5u1tVFH4/TeQtuSX12I1e3uHAFhXz6mfJqrWDIhTYTy48mNIaU26y6hRpWhaFERpUkyMjIy3IyMjGwO6XamMYmjPX9OsnbxlZEpN0uokFAURnsRlINHbPz4/EPjhhV13qFRFl8o3IE+5i/FHnnD3Uyt9PeUpR+fwmozMdT646h9SsDrT1Ew3TmVcy5SXrGlhY2TffgqoyjKJLXo1/c9kopE4Xy7F+P38gOXsQ0u1M1BZkycC06yfJWYR7SXKiokTEsHtv85tIUSfHnyMZWYplF3kCMTpsbtZ9446qOisiw3HZanU78kEykjWai2Pctty2MdJ6/ZRlOD6E9Otbp5kFnTY7KxWTbqcrJTkdMi6Oc6mW4tTZlzdbNLaSMzM0EexbEY6Fz2RPqJmsOodMtyHqivQnFptvIjl25keZJNhNm78uym3Owlk1KLYyI99/IDj+X0+PY7095ZqRnFPk1Bl+PZXW0aKqwjnFQUaTHedUtxl1snee7aeJ8iLYz8H7ifQ9JdVbDFl5zA0zyuTjbaFOLuGaaSuClKfxKN8kdsiLY9z5eNh0rjl/k2WdAVmnUO4sZ1HH1WqYcaZNeW4tuOcZxT7aHFGZ8E8+RJI9iU4sy8qMWPWnWLDtLes1VZUYTrPY5Jj86viUdNR5Ww3VS4nYa9PEjQEwlGcZxsySbSVHy5K87nuA/m4Az2oE+vtM8ySzqcecoIMu3mPxqlz8Ve0t5akRz8F5bSZIPwX4fYhgQAAAAAAAAAAAAAAAAAAAAAAAAAAAAAAAAAAAAAAAAAAAAAAAAAAAAAAAAAAAAAAAAAAAAAAAAAAAAAAAAAAAAAAAAAAAAAAAAAAAAAAAAAAAAAAAAAAAAAAAAAAAAAAAAAAAAAAAAAAAAAAAAAAAAAAAAAAAAAAAAAAH3gQZVpPjVkFruyZbyGGUciTyWpRJSW57EW5mXk/AD4AMpleL3uEZPb4Zk8H0VxRTn62wjd1DnZksuG24jmgzQrZSTLdJmR7eDMhiwGwYJqBm2mOSRsw0+yixoLmIRk1MgvG24ST/Ek9vCkn9UnuR/UjG95/1Y9QmpuOSMRzDUeS9TTFEuXCgwote1LMj3LvlFab73nY/vOXkt/cSQAFH086idYdLKN3GMMy5LFO7J9aVfOrYljGak7bd5puU04lpzYiLmgkqPYvPgUTQHqJlUOa6uak6l6iWjeVZVp5cVlXbud92U9cOKjHFSlbSTNoy7PyqPihBISW6SIhzoACl511B6u6tU1dhmfZwS6CLNKWUWPWxoccn1FxOS63FaR3nCSZ/OslL2M9j8mN21Y1LwrF9BqHpn0oz6Xl9WV6/leQ3Jwn4UV+appLLEaMy+SXSabQk1KNaS5uKIyL5SHPwAArkvqz6iJ+HrwaXqbOcrHa/4S64caOU1yFtt6dc0m/Uqa28Gg3DSZeNtvAkYAKXp91I6z6X0BYrh2YpZp0STmswZ1ZDsWY0g/d1hMppwmFn9VN8TM/I8OP69aw4vqPM1cptQLRvLrHulNs3lpkLlocIiW28l0lIdbMkpLgtJp+VOxfKW2hAApecdSOtOo+Ny8PzHMzm0c2VHmLr26+JHjtusE4TZtIZaSTJF3nTNLfFKjWZqIz8jK1nV51GU2PxMbrtTZbbFfCOuhS1Qoq7CLF2NPZZnKaOU2giMyIkukRF4LYR8AH+qUpajWtRqUo9zMz3MzH+AAAAzi8JydGENajrrNsdftXKRuZ3m/M1DKHlNdvl3PDbiFcuPHztvuRkMGAAAAAAAAAAAAAAAAAAAAAAAAAAAAAAAAAAAAAAAAAAAAAAAAAAAAAAAAAAAAAAAAAAAAAAAAAAAAAAAAAAAAAAAAAAAAAAAAAAAAAAAAAAAAAAAAAAAAAAAAAAAAAAAAAAAAAAAAAAAAAAAAAAAAAAAAAAAAAAKzoDqBhGI5DX1uT6MY9mMqbcRDjT7KdPYdhFzSWyEx3m0K8/N85H5L8vAkwAOoOq3PtJr7qDzbE7fR2vx1uFqDYJu8lo5UuRbTIzcx5EhSWZMj03cc3NexJQnkRERpTuJ/YxekIsuqEVN7rCrF1MSTt3ZFTVpnoe2LsFHQmSbakGfLma1JMi22I/Ij4ALBCi9IR5jZIsb3WFOKFEYOtdZqas7BUnc+8TyDkk2lsi48TSozPzuRBRRekFTV39pr3WFt1NhIKlKBU1a0rg8U9hUnnJLi8aufNKOSSLjsZ+RHwAUxuP00fqzN1631NLUL0qjKOmur/g3qeR7F3e/3+3x23Pt77/TYZLJovSMhFH9jbzV51arWOV38TqqxskVuyu+qN25CuT5Hw4JXxQZct1F4EhABYLGL0hFl1QipvdYVYupiSdu7IqatM9D2xdgo6EyTbUgz5czWpJkW2xH5H0gROjo8ptUWd9rInGyjxjqnGKirOct/wCf1BPoVJJtKC+74GlRme6uRFsW8bABXMbi9JK494eX3mrrT6bOUVGVbVVjiF13j0ypJuSEml8/PcSjkgvHFRjHtx+mj9WZuvW+ppahelUZR011f8G9TyPYu73+/wBvjtufb33+mwmYAK9k0XpGQij+xt5q86tVrHK7+J1VY2SK3ZXfVG7chXJ8j4cEr4oMuW6i8D9WMXpCLLqhFTe6wqxdTEk7d2RU1aZ6Hti7BR0Jkm2pBny5mtSTIttiPyI+ACyQInR0eU2qLO+1kTjZR4x1TjFRVnOW/wDP6gn0Kkk2lBfd8DSozPdXIi2Lfz43F6SVx7w8vvNXWn02coqMq2qrHELrvHplSTckJNL5+e4lHJBeOKjEjABTJUfpoLTNLsK31NPUL0rZnHdrq8qb1PIuZE6T/f7fHlsfb3323LYe/LJHS3SMUlvpinUXIbOJaxn7Kry6DDiV0uEklKda7kOQp4jUokJ8cfkUsyUSiISQAHaEnWXSgukuuvT6W8KVXL1FmRE1B29v2EPFWRlHJJfqu5zNKiQaTVw2SRkW+5nxzay40+0mToVczXx5D7jrURlSlNx0KUZpbSazNRpSRkRGozPYvJmY8oAAAAAAAAAAAAAAAAAAAAAAAAAAAAAAAAAAAAAAAAAAAAAAAAAAAAAAAAAAAAAAAAAAAAAAAAAAAAAAAAAAAAAAAAAAAAAAAAAAAAAAAAAAAAAAAAAAAAAAAAAAAAAAAAAAAAAAAAAAAAAAAAAAAAAAAAAAAAAAqGjul2P6hYlqnfXUywZkYRiZ31emK4hKHZHrI7PF4lIUakcXlHsk0nuRedtyPTsBwjIdSMyqMGxWrm2FncSUx2WIcVch3b3WvtoI1GlCCUtW3slKjPYiMxYemL/hv1Cf1cH/AJnCEq0nlSYeqOIyIkh1h0ryCRLbWaVERvoIy3Lz5IzI/wBxgLl1B9OeB6PZZmuIVWn2tMhOM1JORLqbDZKDIkJkpaVOWZRy4wFEakIUSjM3OPznvxEUqtF9Yr5aG6PSfMrFTkBm1QUSilPGqE8Rm1JLig92lklXFz8Ktj2M9h2JnM2ZL1B64G5Ut55MevcbZS44aibR8YY+VO/sX7iGidS+oWaUMrpqqaLJbCtiVumGL2bDUSQpoilqW4k3j4mW6+LTadz9iSRfmA5aoMPy3K7osaxfF7e4tzNRFXwITsiTun8X3SEmrx9fHgeq208z+gyaNhd7g2QVuQzHGmY1TLrH2ZrzjiuLaUMKSS1GpXhJEW5n4Id06q00TDNWOqfVG0zTKqDFI19XU1hVYgceNY20iWfeJJy3UL9KyS0KUs0pM3DVxMj9j+dvIqr3COj7J62ryxiM5qW8xXuZVat2VgcT4hDPb1CGWSNo1pUaE8PBexmRgOJZekmq0ChmZVO0yyyPS17zkaXZO0slEWO62s0LbcdNHBCkrI0mkzIyMjI/I82Iacah6gqlIwLAsiyVUJJLklUVb8w2Envsa+0lXEvB+T/IdmabZtleU/pBdU6K9vpsuqnFnFM9AceUcZUFmNMJqP29+PBJNN7Ft/F39xNtRskyfA+jnQFWnF/Z0kC6mZJPvH6uU5HOTbNTUttG+psyM1oYS2SN/wCLuZAObqvFcovL5OK0uN2lhdLdUwmtiw3HZSnE78kE0kjWai2Pctty2MffLcFzbAbFNRneHXmOT1o7iYtvXvQ3lI9uRIdSlRl+/YdvaW5BlbeHdSOqGvtDk7WfJpsWKw+z7zFNdfCZDhk48hzsrJBOIRFU8rhyUgt1GXIzEd1g1gxbM+myqwvGNONSDqK3LVSq7KMrukWiIrpxTKRXMPIjNEklkbTxtcj8p5beQHNAqjnTXqqjQtjX37J3Ssffs3Yfy1UgyRFQyhfrlOceJRjUvtk4Z8TWhRb7kJWOlMitLRP6P7DGU2Momlak28daCeVxNsoEYyQZb7cd9z29gERyDTDUrE4MizyrT3JaaHEmorZEiwqX4zbUtTfdTHWpxBEl02/nJB/MafO23kfW/wBJdVcTo2snynTPK6amkGkmrGwpZMeM4avw8XVoJB7/AE2PyOw+o4tQtXP0jFbpFUZw/TR41tRJqTcInotc6mAxJXJKOr7tx3mt1fzF8xqJJnsYzuluYYbqLL6jIdFJ1eyNSNOsmkW1pll9Gfr5D6EGppz0LcZJMPdxHJoidM0EhZEWxHsHDOKaZak55FlzsH09yXIo0D/e3qmpkS0R/G/3imkKJHjz52G6YdpJQX3T1qbqvZyrNm7wq2o4EKMhaEx1pmOPpe7yFINZqT2k8dlJ2Pfcj+lU1vy7NtO9FunGLpXklxR0krGH7cnKmU4wmTenPcKUtZtmXcdQZNJLluaS2ItiPYVbSIqe5wzX+w60Uz8eQ7mWHzcqiwKxLL7rylyFE2bTOxNEvklTik/NxNZl85kA4Tl4dl1fX09tPxa3jQch5/CJL0F1DVjwWSF+nWadntlGST4Gexnt7jI5bpZqdgMSNPzvTnKMcizT2jP21PIhtvntvshTqEkrx58DuDTWtzI+v60Z1UZYnzabE7SXgMei4NQ1wm4S1VvwklJW2hBMGtTR8V8XEmpXJaVCWI15wSfpJqniuK6cayZJEvqts7STkmUNW8KoklIQcee4SIaDbcJ3ZPM1ly5mk9zMtg5vk6Y6kw6V7JZmnuSsVEaFFsnp7tS+iM3Ekq4xn1OmjiTbp+ELM+Kz/CZja+nHS7H9X9R3cQyWZYRoaKG5tCXBcQh3uxID0hst1oWXE1tJJRbbmRnsZH5KrdZWaZO3iGhODRrqZHoj0hx6c9AaeUhmRIX3Em44kj2WZJYaIuW+3AtthrPQ5/xxkf0Pyj/J5QDn8AAAAAAAAAAAAAAAAAAAAAAAAAAAAAAAAAAAAAAAAAAAAAAAAAAAAAAAAAAAAAAAAAAAAAAAAAAAAAAAAAAAAAAAAAAAAAAAAAAAAAAAAAAAAAAAAAAAAAAAAAAAAAAAAAAAAAAAAAAAAAAAAAAAAAAAAAAAAWDQnPsSw3CdY6jJLb0cvKsKOoqG+w656mX6+K7290JMkfI0s+SzSnxtvuZEcoq7KbS2cS4rX+zMgvtyY7nElcHEKJSVbKIyPYyI9jIyHmABvkzXPVOwsc5tpeU9yVqSg28oc9DGL16TeS8ZbE3s194lKvuiR7be3gYnK9Ss1zd/HZOUXXrXMUqIlDUK9My36aDGNRsNfIkufE1q+ZfJR7+TMayACrQeqbXevzDKc7Yzkl22bG2rIO/Vwn4tibf+zNyI4yqOZp/imTZGnc9ttz3/AN/0qNfFRFQZOoT8tk76LkzZTIMWSpixjm0bLrKnGlGylPYZT22zS2aUEk0mnwJQADdKXWXUnHdRrLVqnyT0+V27lg7MsPRx191c1LiZR9pSDbTzJ1wvCS48vl22LbJ6adROsmkNRKx/AczVCqpckpjkCTBjToyZJFxJ9DUltxDbuxEXNBErYi8+CE4ABvtFr1rFjmoVhqrU6g2qMqtycRY2LqyfVNbc25tvocJSHWz4p+RaTT8qfHgtszaak5/1FXtRjmqerdNSVda2+cJ2whnCqYJmXJXGNXRjJK1mRFyS1uZ7bnsQlIqGL6XY/d9POdatSplgi3xi+pquIw24goy2paZJuG4k0Go1F2EcTJREW57kfjYMt/o/4J/5stIv+l7/APGjBL1W1D07xfJdDsZ1Dr7fC7Gc47JTFhIfiS3TQTZyI65TBPsmpBEnkkm1GRFuP86b9NqLWDXTC9Mcmlz41XkdoiFKeguIRIQgyMzNClpWkj8fVJl+4T6wjoiT5MVs1Ghl5baTV7mRKMi3AbXkmsOpWWal/riusrkKzIpEaWm2jttxXUPR20NsrSllKUJNKWmy8JLfjue5mZnujvWL1HO5FFylOo3YnRTkK4x6iAzGfW+2bby5EZDJMyFqQpRGp1C1bGfkRkAFWwjqm1506rpFRiGeHEgSJzlmmK7Ww5LMaWs91PRkPNLKMoz87skgay7q9qRJoMrxmZlcmXAzifHtMgKUht52fKYWtbTq3lpN0lEp1ZnxUXLl82/gaeADela5arqiYZETmktpWnvMsalMttNy65Kl8zQiSlJPKQSvwoWtSUkZkkiIzIZbUDqa1v1Qx9/Fcyzbv1MyQmXMiQq2JXomvJPdLkj0rTZyFEfkjc5Hv59/Il4ANizPUPMNQSoiy+39f9mqWNj1X/q7TXp6+Py7LP3aU8+PNXzK3Ue/kz8DfulXPsS021VeyTNLb4dXLxu+gE92HXt35Fa+yyji2lSvmccQnfbYt9zMi3MR8AAAAAAAAAAAAAAAAAAAAAAAAAAAAAAAAAAAAAAAAAAAAAAAAAAAAAAAAAAAAAAAAAAAAAAAAAAAAAAAAAAAAAAAAAAAAAAAAAAAAAAAAAAAAAAAAAAAAAAAAAAAAAAAAAAAAAAAAAAAAAAAAAAAAAAAAAAAAAAAAAAAAAAAAAAAAdAaf/sUau/0wxb+7nDn8WDD8+xKr6XtRtOp9t2shvskoJ9fD7Dqu8xGRLJ5fcJJoTxN1vwpRGfLwR7HsGU6Gf2udLP5/a/sqEXuv4Yn/wApd/tmKX0pZxi+mvUXgOd5rafDqKlt25U6V2HHuy0SVEauDaVLV7l4SkzExs3m5FlLkMq5NuvuLQe225GozIwHmAAAAAAAAAAAAAAAAAAAAAAAAAAAAAAAAAAAAAAAAAAAAAAAAAAAAAAAAAAAAAAAAAAAAAAAAAAAAAAAAAAAAAAAAAAAAAAAAAAAAAAAAAAAAAAAAAAAAAAAAAAAAAAAAAAAAAAAAAAAAAAAAAAAAAAAAAAAAAAAAAAAAAAAAAAH3gQZVpPjVkFruyZbyGGUciTyWpRJSW57EW5mXk/A+ArOgOoGEYjkNfW5Poxj2YyptxEONPsp09h2EXNJbITHebQrz83zkfkvy8AJ1leL3uEZPb4Zk8H0VxRTn62wjd1DnZksuG24jmgzQrZSTLdJmR7eDMhix1B1W59pNfdQebYnb6O1+OtwtQbBN3ktHKlyLaZGbmPIkKSzJkem7jm5r2JKE8iIiNKdxP7GL0hFl1QipvdYVYupiSdu7IqatM9D2xdgo6EyTbUgz5czWpJkW2xH5AR8BYIUXpCPMbJFje6wpxQojB1rrNTVnYKk7n3ieQckm0tkXHiaVGZ+dyIKKL0gqau/tNe6wtupsJBUpQKmrWlcHinsKk85JcXjVz5pRySRcdjPyAj4CmNx+mj9WZuvW+ppahelUZR011f8G9TyPYu73+/2+O259vff6bDJZNF6RkIo/sbeavOrVaxyu/idVWNkit2V31Ru3IVyfI+HBK+KDLluovACQgLBYxekIsuqEVN7rCrF1MSTt3ZFTVpnoe2LsFHQmSbakGfLma1JMi22I/I+kCJ0dHlNqizvtZE42UeMdU4xUVZzlv8Az+oJ9CpJNpQX3fA0qMz3VyIti3CNgK5jcXpJXHvDy+81dafTZyioyraqscQuu8emVJNyQk0vn57iUckF44qMY9uP00fqzN1631NLUL0qjKOmur/g3qeR7F3e/wB/t8dtz7e+/wBNgEzAV7JovSMhFH9jbzV51arWOV38TqqxskVuyu+qN25CuT5Hw4JXxQZct1F4H6sYvSEWXVCKm91hVi6mJJ27sipq0z0PbF2CjoTJNtSDPlzNakmRbbEfkBHwFkgROjo8ptUWd9rInGyjxjqnGKirOct/5/UE+hUkm0oL7vgaVGZ7q5EWxb+fG4vSSuPeHl95q60+mzlFRlW1VY4hdd49MqSbkhJpfPz3Eo5ILxxUYCRgKZKj9NBaZpdhW+pp6helbM47tdXlTep5FzInSf7/AG+PLY+3vvtuWw9+WSOlukYpLfTFOouQ2cS1jP2VXl0GHErpcJJKU613IchTxGpRIT44/IpZkolEQDQF4Tk6MIa1HXWbY6/auUjczvN+ZqGUPKa7fLueG3EK5cePnbfcjIYMdoSdZdKC6S669PpbwpVcvUWZETUHb2/YQ8VZGUckl+q7nM0qJBpNXDZJGRb7mfHNrLjT7SZOhVzNfHkPuOtRGVKU3HQpRmltJrM1GlJGREajM9i8mZgPKAAAAAAAAAAAAAAAAAAAAAAAAAAAAAAAAAAAAAAAAAAAAAAAAAAAAAAAAAAAAAAAAAAAAAAAAAAAAAAAAAAAAAAAAAAAAAAAAAAAAAAAAAAAAAAAAAAAAAAAAAAAAAAAAAAAAAAAAAAAAAAAAAAAAAAAAAAAAAAAAAAAAAAAAAAAAAAKhrppdj+mMfTd2hmWEg8wwOtymd6xxCyblyHX0rQ1wQnZsiZTsSuSvJ7qPxtLwAAAAAAAAAAAAAAAAAAAAAAAAAAAAAAAAAAAAAAAAAAAAAAAAAAAAAAAAAAAAAAAAAAAAAAAAAAAAAAAAAAAAAAAAAAAAAAAAAAAAAAAAAAAAAAAAAAAAAAAAAAAAAAAAAAAAAAAAAAAAAAAAAAAAAAAAAAAAAAAAAAAAAAAAAAAAAAAAAAAAAAAAAAAdA9XP+56F/1PUP8AfzBz8LB1F59iWdxtKG8UtvXKxrTapoLQuw616eey9JU6194lPPYnEHyTuk9/BnsYj4AAAAAAAAAAAAAAAAAAAAAAAAAAAAAAAAAAAAAAAAAAAAAAAAAAAAAAAAAAAAAAAAAAAAAAAAAAAAAAAAAAAAAAAAAAAAAAAAAAAAAAAAAAAAAAAAAAAAAAAAAAAAAAAAAAAAAAAAAAAAAAAAAAAAAAAAAAAAAAAAAAAAAAAAAAAPvAgyrSfGrILXdky3kMMo5EnktSiSktz2ItzMvJ+B8BWdAdQMIxHIa+tyfRjHsxlTbiIcafZTp7DsIuaS2QmO82hXn5vnI/Jfl4ATrK8XvcIye3wzJ4PoriinP1thG7qHOzJZcNtxHNBmhWykmW6TMj28GZDFjqDqtz7Sa+6g82xO30dr8dbhag2CbvJaOVLkW0yM3MeRIUlmTI9N3HNzXsSUJ5EREaU7if2MXpCLLqhFTe6wqxdTEk7d2RU1aZ6Hti7BR0Jkm2pBny5mtSTIttiPyAj4CwQovSEeY2SLG91hTihRGDrXWamrOwVJ3PvE8g5JNpbIuPE0qMz87kQUUXpBU1d/aa91hbdTYSCpSgVNWtK4PFPYVJ5yS4vGrnzSjkki47GfkBHwFMbj9NH6szdet9TS1C9Koyjprq/wCDep5HsXd7/f7fHbc+3vv9Nhksmi9IyEUf2NvNXnVqtY5XfxOqrGyRW7K76o3bkK5PkfDglfFBly3UXgBIQFgsYvSEWXVCKm91hVi6mJJ27sipq0z0PbF2CjoTJNtSDPlzNakmRbbEfkfSBE6Ojym1RZ32sicbKPGOqcYqKs5y3/n9QT6FSSbSgvu+BpUZnurkRbFuEbAVzG4vSSuPeHl95q60+mzlFRlW1VY4hdd49MqSbkhJpfPz3Eo5ILxxUYx7cfpo/Vmbr1vqaWoXpVGUdNdX/BvU8j2Lu9/v9vjtufb33+mwCZgK9k0XpGQij+xt5q86tVrHK7+J1VY2SK3ZXfVG7chXJ8j4cEr4oMuW6i8D9WMXpCLLqhFTe6wqxdTEk7d2RU1aZ6Hti7BR0Jkm2pBny5mtSTIttiPyAj4CyQInR0eU2qLO+1kTjZR4x1TjFRVnOW/8/qCfQqSTaUF93wNKjM91ciLYt/PjcXpJXHvDy+81dafTZyioyraqscQuu8emVJNyQk0vn57iUckF44qMBIwFMlR+mgtM0uwrfU09QvStmcd2urypvU8i5kTpP9/t8eWx9vffbcth78skdLdIxSW+mKdRchs4lrGfsqvLoMOJXS4SSUp1ruQ5CniNSiQnxx+RSzJRKIgGgLwnJ0YQ1qOus2x1+1cpG5neb8zUMoeU12+Xc8NuIVy48fO2+5GQwY7Qk6y6UF0l116fS3hSq5eosyImoO3t+wh4qyMo5JL9V3OZpUSDSauGySMi33M+ObWXGn2kydCrma+PIfcdaiMqUpuOhSjNLaTWZqNKSMiI1GZ7F5MzAeUAAAAAAAAAAAAAAAAAAAAAAAAAAAAAAAAAAAAAAAAAAAAAAAAAAAAAAAAAAAAAAAAAAAAAAAAAAAAAAAAAAAAAAAAAAAAAAAAAAAAAAAAAAAAAAAAAAAAAAAAAAAAAAAAAAAAAAAAAAAAAAAAAAAAAAAAAAAAAAAAAAAAAAAAVDpn0ux/WbWem06yiZYRa2xh2kh12A4hD5KjV0mS2STWhadjWygj3Sfyme2x7GQS8AFU0g0DzTO8ywIsjwbLoeD5XktXSyL9isdbjEzJltsLNqSttTPPZZ8TPkXLbwfsAlYDozJ+mKqZ08zq+whjKLvIse1ZdwKqrmEpknKhJYkuEtTTTXcW/9wnygyTty+T6lCcoxHK8Itl0GaYxbUFm0klrhWkJyK+lJ+xm24klER/Q9gGJAVDS3S7H830v1ZzW1mWDU7A6aBY1zcdxCWnXH7BmOsniUgzUkkOKMiSaT5EW5mXgS8AAAAAAAAAAAAAAAAAAAAAAAAAAAAAAAAAAAAAAAAAAAAAAAAAAAAAAAAAAAAAAAAAAAAAAAAAAAAAAAAAAAAAAAAAAAAAAAAAAAAAAAAAAAAAAAAAAAAAAAAAAAAAAAAAAAAAAAAAAAAAAAAAAAAAAAAAAAAAAAAAAAAAAAAAAAAAAAAAAdAdBn7UmL/zZkP8Akk4c/iwdJGfYlpjr3Q5rnFt8NpoUG5Zfk9h17gt+rlMNFwaSpZ8nXW0+C8ctz2IjMgkUdLKn20yFmlo1pJai9yTv5P8A6D+g+dZhqZTfpRcZwnFbi1Yx+vvsdqayojPr9Cii9PGNaW2iPgbXZNxzfbYlEavcty/nqLJX9YfUjVVNJTQtTpKGsdTHbrX1wIi5bLTC0raZOUpo31skaU7tLWaDIuJpNPgB0TnWR5jjHTb1Dz8NnzYLjuu0iNPlQ1qbdZiLJ/l86djQSl9pBmRluSzSfhRkcv6gbW1yfpF6fMnzSdJnZEuRk0GPNmOKckyKxmUz2iWtW6lIQtS0o3PwW5EJpRdT2umNNW7FJna4zN/fu5PaM/D4i2ptg4haHFuoU0aVtqS4vdky7W+x8N0pMtd1N1d1F1iuIt5qNkzttJgxUwoaCYajsRY6TMybZYZShppO5meyEkW4CodPv/ADqO/otT/5zGHP4sGjufYliukGteLX1t6W0y6hrYVMx2HV+qeas2HnE8kJNKNm0KVus0ke2xGZ7EI+AAAAAAAAAAAAAAAAAAAAAAAAAAAAAAAAAAAAAAAAAAAAAAAAAAAAAAAAAAAAAAAAAAAAAAAAAAAAAAAAAAAAAAAAAAAAAAAAAAAAAAAAAAAAAAAAAAAAAAAAAAAAAAAAAAAAAAAAAAAAAAAAAAAAAAAAAAAAAAAAAAAAAqGo2l2P4hoxpHqLWzLB2yz6HdSLJp9xCmGlRLFcZsmSSglJI0II1clK3VvtsXgS8dAa4fst9Nn82ZT/AJ26A/zpT6aVa4nl+T5Fjec2GMYhSPzu3i0Duy7OelTRNwGHFtrbJ00ums08VK4p3JOx7lpuV6YLfViVNgGmOpqL2+VYNnFta7unYOMynEITAQ00lbhtoRwe8KMnUr24kWxUfpHs7KFp31Cph2Elgm9N33kE06pJJc9bFLmWx+FbeN/fYXfQ9xx3NOhx11alrXGyFSlKPc1GdhK3Mz+oDhifpnqPVYtHzm00/wAkh43L4+nuJFS+3Be5fh4PqQTat/psryPriulOqOdQJFrhGm2U5DCiGaZEmqp5EtpkyLcyWtpCiSe35mOienjNsqzud1Kt5ZfTbKPY6W5DZPRpDyls+oYkxlMLSgz4pNvkZI2IuJHsWxDNSJETSrBdEcKyvMNXciv76kj5LjdNhdzEpIVY3PlL7DaVHGeXJkqcQZqUZFsZkkjMByTV4jll4mwXSYxbWCalKV2BxYTrpREqcJtJu8Un2yNxSUFy23Uoi9z2Hqy7TvUDT9yMznuC5Djbk1BuRk29Y/DN9BbbqQTqU8i8l5L8yH9A9R7OZgnUB1pW+JufDJjGIQ5DL0b5FtPPqgmt5Bl+Fzk4pZLLYyUfIjI9jEPwiWzlvRfVRs/tH5tbE10qo63Zj6lnHiP1znqUpWo90oURcjIj23Lf38gOc3dLtTGMTRnr+nWTt4ysiUm6XUSCgKIz2IykGjtn58fiH+YhphqXqC1JfwLTzJslbhf7yuoqZExLHjf5zaQrj4/MdRa46h9SsDrT1Ew3TmVcy5SXrGlhY2TffgqoyjKJLXo1/c9kopE4Xy7F+P38jP5zl2lunHTj0/xrSu1M+F2OPyrNp/D8pZqYrlqUtZS1PEqM6pyQhXBPI1fKnikiLbyHDsqJKgynoU6M7HkR1qadZdQaFtrSexpUk/JGRlsZGPpV1dnd2cSlpa6TPsJ77cWJEisqdekPLUSUNtoSRqWtSjIiSRGZmZEQsHVznpalavHlb+nl9h85+mrWpsa9USp011DCSTNdMmmiUp5rtKNRIIlfiLwYjLLz0Z5EiO6tp1pRLQtCjSpKiPcjIy8kZH9QFY1b6XdY9IsxRh1tg2QznXatu1akxqaT2Xm0w2ZMvtqNGyyi97g8otyQpJ8uI0tel2pjeRxcOc07yZN/NYRKjVR1Mgpj7Ki3S4hnhzUgyIzJRFsZDv8Ak39pB/SQZlN9SuQms07dkxmZB9xpKixaOs/kVunZSk+S22P67jnjp5tMjn4ZrFrrn2rGcMVVNAram6TSSW1XVwc+SommSmSErOM0S2jUtREZn4IiV7AOecrwnM8Dsips4xG6x2wNBOFEtoDsR40GexK4OpSrbcj87fQe6z0u1MpMZj5rc6dZPAx6WSTj28qokNQnSV+Hg+pBIVv9Nj8jt92PgmeaPdM9hb0+VJxmZq8dc2rMrdq0krrXHI5PIJ9DDKSjKWhRcOPg0rPcy22j2pWpfU7N6iNbMaobG9tlynMgr7qnkpOVEZpWnVko+w7u22200lBocIiNBbGky38hONaNGarBImkqcOO4s7DULC4GQSIzvF5ZzpEh9rsx0NoSrifaQSUnyVuZ+T3Ii0ev0v1MtsqlYLVad5PNySCpSZVNHqJDk5g0nsolsJQbiTIzLfdJbbj+hlbV46/gelszArdtWvv6kov2EgzIm7DSGpEhUh2O4Z8VWC2lvkwRkZINlRn5Ukyj2kd3iGJdD2UZbl0LOZUy11OTX5I/jN43WWJtJgE5HTLedYdUpg3VvnxMi3dUW57lsA5Oe09z+PljWAv4PkDeTvOpZbpV1jxT1uKLdKExzT3DUf0Ik7mPNe4dl2Lxa+dk2LW9RHt2lP17s6C7HRLbSeyltGtJE4kjPYzTuW47bwHVWp1I1u6WYdXp5nNXGo71+PW5HldimfJuISpKdmUyUsNE6iO4TqS25cCc4+ByVrTluXZ5qXlFrkFnPsfTWswmkOOLW1DZJ5RJbbT+FptJElKUpIkkSSIi8EAw1LppqPkuPzcsx3T/ACS1o63l62zhVT78SNxLdXceQk0I2Lye5lsQ6OzrpHwLHs11wxajs8nllpvilHd0iVvMuPSpc1uEpbbxJZLmnlKWSUoJCvCdzPzv+uorMM/wPFum2o0syG6qKpOnNbbQG6qQ42h27flPnMWSUHst03CbIyMjPyRfUdGal22W491BdYNxjCXIl9A03o3m1RC2XEUmFXm440afKFNp5rSovKTQSiMjIjAfzfy/TvUDT52MxnuC5DjTs1BuRkW9Y/DU+gtt1IJ1KeReS8l+ZDcOprS7H9GNar7TjF5lhKrKtiudZdnuIW+o5ECPIXyUhCEmRLeURbJLwRb7nuZ1OHkOQ5j0B5hIz64n2qKXUOrTjsmwfW8tqQ7FeOUy0tZmZJNskrNBHtufLbc9xrvXt+1Vl/8AJKP/ACeGA5+AAAAAAAAAAAAAAAAAAAAAAAAAAAAAAAAAAAAAAAAAAAAAAAAAAAAAAAAAAAAAAAAAAAAAAAAAAAAAAAAAAAAAAAAAAAAAAAAAAAAAAAAAAAAAAAAAAAAAAAAAAAAAAAAAAAAAAAAAAAAAAAAAAAAAAFg1Uz7Esk0E0RwqltvUXOIQb9m6jdh1HpVybRx9kuakkhfJpRK+Q1bb7HsfgR8AGx4nqHmGD12RVWL3HoouWViqa4b9O056mGpxDht7rSZo+ZtB8kGlXj32Mxn6LqA1cxqZg0+ky30z+mqJCMXX6CKv4el9xbjpbKbMneS3Fn97z232LYiIT0AGy4lqTmmCuZE7it16FWV08qgtz9M076mBIUlTzXzpVw5G2j5kcVFt4MvI2ms6l9cKfBo2nNdnj7VHCjvRIaThxlyojDu/caYlqbOQyhXIyNKHElsZltsJiACo5B1O64ZVHtI+QZsUz43Rs43ZOqrIaXpde0tC223XUtEtaiU2j70z7hkkiNRl4Got6h5izp4/pS3cbYtJuG792B6dr5p6GVMpd7nHuFs2tSeJK4+d9t/I1wAFcl9WfURPw9eDS9TZzlY7X/CXXDjRymuQttvTrmk36lTW3g0G4aTLxtt4GO096kdaNLcePE8NzImaX1JzW6+dXRLFhiQZeXWUSmnCZWf1U3xM/wAxNAAVOpx9WuM+3z/UrqHxOlvps0/UqylyyclzD4J2dJUaI8ngRfIRGojLhsSSIiH0vtEcNpqSfbQ+pjTC3fhx3H24EErj1EpSUmZNN9yAhHNW2xclJTufkyLyJQKhi+l2P3fTznWrUqZYIt8YvqariMNuIKMtqWmSbhuJNBqNRdhHEyURFue5H42D1Suq7X2bLqrCZnhPzKWok0MSU5VQlPlBfYJh1pxw2eb27REklOGpSfdJkfkaxpprJqRo/JspOn2R/Dk3EcotjHeiMTIsxpKuSUux5CFtOcT8kakmZbnttuYyvTfptRawa6YXpjk0ufGq8jtEQpT0FxCJCEGRmZoUtK0kfj6pMv3CfWEdESfJitmo0MvLbSavcyJRkW4Ch3vUhrVk2MXeGZDnL1jTZDOZspsWTEjrJMhpCENrYUbfKNxQ02giZNBcEEnbj4GRybqx6hcxxSVhmR6lzZdbPjIhzl+ljNy5rCCIiakS0NlIfRsRbpccUR7edxJAAbjY6w6k2llh9xKyl9M7AYMatxyQw00w5Xx47qnWUpU2lJqNK1qVyXyUe/kzIiIZ+n6mdbaDL8lzinzNEazzFzu37aaqEcGyXvy5vQjZOMpXI1K37W/JSj91GZy8AFGseonWa21Fo9V7HOJD+TYybR08lUWP2YBNmZoQzGJHYQgjMz4E3x3Mz2GGpNV8/wAcjZdDpr/07OdxVQsgT6VhfrGVOk6ad1IM2/nIj3b4n9N9vA1IAFRxLqf12wbC2NPcX1AkRKKGt12CwuHGfdr1uHutUV91tT0UzMzVuytHkzP3Pcftnqk17jZVkGcRNQ5Ma+yiHBgWs9iJGadkMQyaKOkjS2Xb4lHaIzRxNRJPkauSt5WACgala96sau1lbSZ7lZTaynWt2FAiwI0CK04v8TnZjNttqcP6rNJq8n58mNg6uM+xLU/qAyPN8GtviVLPj1TceV2HWeama2My4XB1KVls42tPki323LcjIxHwAAAAAAAAAAAAAAAAAAAAAAAAAAAAAAAAAAAAAAAAAAAAAAAAAAAAAAAAAAAAAAAAAAAAAAAAAAAAAAAAAAAAAAAAAAAAAAAAAAAAAAAAAAAAAAAAAAAAAAAAAAAAAAAAAAAAAAAAAAAAAAAAAAAAAAAAAAAAAAAAAAAAAAAAHQGn/wCxRq7/AEwxb+7nDn8WDD8+xKr6XtRtOp9t2shvskoJ9fD7Dqu8xGRLJ5fcJJoTxN1vwpRGfLwR7HsGU6Gf2udLP5/a/sqEXuv4Yn/yl3+2YpfSlnGL6a9ReA53mtp8OoqW3blTpXYce7LRJURq4NpUtXuXhKTMTGzebkWUuQyrk26+4tB7bbkajMjAeYAAAAAAAAAAAAAAAAAAAAAAAAAAAAAAAAAAAAAAAAAAAAAAAAAAAAAAAAAAAAAAAAAAAAAAAAAAAAAAAAAAAAAAAAAAAAAAAAAAAAAAAAAAAAAAAAAAAAAAAAAAAAAAAAAAAAAAAAAAAAAAAAAAAAAAAAAAAAAAAAAAAAAAAAAAAABUNBtLsf1RkZ81kEywjli2B3WUw/RuIQbkuG0lTSHOaFbtmZnyIuKj+iiEvHQPR7/vmsf9T2Vf3CBCaiZFr7aFPnVjNlGjSG3noby1pbkoSojU0pSDJRJURGkzSZHsfgyMBkSwnJ1YQvUcqz/s6i1TSKmd5vxNUybxNdvl3P8AZpNXLjx8bb7+Bgx2g1rLpQfSVJvS6W8KKuLUViIdR8Xt+wbx1jqik8/VdzmSSNHHlw2PfbfyITiz3S5cwrq21K/WLQXEuylP11ZikGHKrYsRWymWu5LkJeM0qNafPI+KUnyMzMBJQFMbj9NH6szdet9TS1C9Koyjprq/4N6nkexd3v8Af7fHbc+3vv8ATYZLJovSMhFH9jbzV51arWOV38TqqxskVuyu+qN25CuT5Hw4JXxQZct1F4ASEBYLGL0hFl1QipvdYVYupiSdu7IqatM9D2xdgo6EyTbUgz5czWpJkW2xH5H0gROjo8ptUWd9rInGyjxjqnGKirOct/5/UE+hUkm0oL7vgaVGZ7q5EWxbhGwFcxuL0krj3h5feautPps5RUZVtVWOIXXePTKkm5ISaXz89xKOSC8cVGMe3H6aP1Zm69b6mlqF6VRlHTXV/wAG9TyPYu73+/2+O259vff6bAJmAr2TRekZCKP7G3mrzq1Wscrv4nVVjZIrdld9UbtyFcnyPhwSvigy5bqLwP1YxekIsuqEVN7rCrF1MSTt3ZFTVpnoe2LsFHQmSbakGfLma1JMi22I/ICPjI43j1xl2RVeJ49D9Xa3U1iugx+4lvvSHnCbbRyWZJTupRFuoyIt/JkQqcCJ0dHlNqizvtZE42UeMdU4xUVZzlv/AD+oJ9CpJNpQX3fA0qMz3VyIti323piz7SnHNccWxeBo7XZQ1O1Bg/A8ivZcuPaQoi5jKI5qZiyCjdxBEThkaVlzUot1JIiAc821VPorWbSWrHYm18hyLJa5JVwdbUaVp3SZkexkZbkZl+Qouhul2P6mQtS5F9MsGFYZgdhlEAojiEk5LYkRm0Id5IVu2ZPr3JPFW5J2UXkjy/UpqBhGU5lf02OaMY9ic6DkU45NpXzp7z04idcSZOIfeW2ndXznwSnz4Lx4GZ6Sf4L15/qeuv8AGQAHP4AAAAAAAAAAAAAAAAAAAAAAAAAAAAAAAAAAAAAAAAAAAAAAAAAAAAAAAAAAAAAAAAAAAAAAAAAAAAAAAAAAAAAAAAAAAAAAAAAAAAAAAAAAAAAAAAAAAAAAAAAAAAAAAAAAAAAAAAAAAAAAAAAAAAAAAAAAAAAAAAAACwdNufYlgMnUpzLbb0Ccg02yCgrj7DrvfnyWUpZa+7SrjyMjLkrZJfUyEfAAAAFQ100ux/TGPpu7QzLCQeYYHW5TO9Y4hZNy5Dr6Voa4ITs2RMp2JXJXk91H42CXgKhgul2P5PoPqnqjPmWDdrhEzHo9eyy4go7qZ70hDxvJNBqUZEynjxUnYzPfl42xGhumP659XMV0s+N/B/tNYIgev9N6j0/IjPn2+aOft7ci/wCYDRgGQyKp+AZBZ0XqO/8ADpj0Tu8OPc7azTy47ntvtvtuYputXTjk+mGvt/oJiHxTOrKl9MbblbUOE/JJ2K1IMyjNqdUXHvcfxH+HfxvsQSIBmMqwvMcFtPgebYnc49ZcCc9HawHYj/E/ZXbdSlWx7H52+gyeQaTaqYlRsZPlWmeV01PJ49iwsKaTHjO8vw8XVoJCt/psfkBqgDZYmmOpM+n+0ULT3JZFV6B619c1Uvqj+iaWaHZPcJHHtIWlSVOb8SNJkZkZDY+m/Tai1g10wvTHJpc+NV5HaIhSnoLiESEIMjMzQpaVpI/H1SZfuATcB97COiJPkxWzUaGXltpNXuZEoyLcUnXTS7H9MY+m7tDMsJB5hgdblM71jiFk3LkOvpWhrghOzZEynYlcleT3UfjYJeLB07Z9iWCwNW2cqtvQryfTezoKouw676ie7JiLba+RKuG6WnD5K2SXHyZblvHwAAAAAAAAAAAAAAAAAAAAAAAAAAAAAAAAAAAAAAAAAAAAAAAAAAAAAAAAAAAAAAAAAAAAAAAAAAAAAAAAAAAAAAAAAAAAAAAAAAAAAAAAAAAAAAAAAAAAAAAAAAAAAAAAAAAAAAAAAAAAAAAAAAAAAAAAAAAAAAAAAAAAAAAAHQPVz/uehf8AU9Q/38wc/CwdRefYlncbShvFLb1ysa02qaC0LsOtennsvSVOtfeJTz2JxB8k7pPfwZ7GA2DSL9j7qE/nPC/8VOGH6LrSBT9Vulk6ykojxyyWI0biz2SSnFcE7mftupSS/wDcefTnPsSoem/WPAba27F9lU7GHqiJ2HVepREflLkHzSk0I4JdQfzqTvy+XfY9pAlSkKJaFGlST3IyPYyP8wG/ah4FmB66ZHp23j81eRO5LKgNV6WVG848uQokJSnbc+W5GR+xkZH7DsPXDWWkxDqn6j27bH8tn4XkjNPj13kuIO9qfRPx2Y5JJD6i7ZE48w40tpakdzgZb+DIc3s9b/VSxUIqG9YbLZuN6RE5USKqxS1ttxKcbXqS8fXub/vGg6eaz6naV21jdYLlsmBJuGjZskutNy2ZyDVy2fZfStt75tzLmk9jMzL3MB2ho3hdZf6w9OmTv6x2Oo2lT+TWkKlYyWuKNPqLRqOT5RXSUpzuJU6UZSTQ4pHIjIkpP31Gt6gMRhXGqFVH0x1yyq2uKO4g5RXXmWM2UVhHlLst9hEFJo9O5sonN09sy9yIczZ3rvq3qTZU1pluaynnsdUblOiG01AYrlmolmuOzGQ220s1JSZqQkjM0p8+CGdzHqu6gM8x6wxfJ9QnX4FuhDdmceuiRJFihO2yZUhhpD0gvBeHFq3+u4Cma5Zrk9R0f9OmKVF1Mg1tpU5C7YMxnlNFN42ryEJe4mXcSglu8Uq3Iu6vx5Mab0M/tc6Wfz+1/ZUJbkGoeYZTjGM4bfW/qqfDmJMaljenaR6Vt943nU80pJS+TijVus1GW+xbF4G69KWcYvpr1F4Dnea2nw6ipbduVOldhx7stElRGrg2lS1e5eEpMwE0uv4Yn/yl3+2YuvVz/uehf9T1D/fzBB7N5uRZS5DKuTbr7i0HttuRqMyMVfqLz7Es7jaUN4pbeuVjWm1TQWhdh1r089l6Sp1r7xKeexOIPkndJ7+DPYwEfAAAAAAAAAAAAAAAAAAAAAAAAAAAAAAAAAAAAAAAAAAAAAAAAAAAAAAAAAAAAAAAAAAAAAAAAAAAAAAAAAAAAAAAAAAAAAAAAAAAAAAAAAAAAAAAAAAAAAAAAAAAAAAAAAAAAAAAAAAAAAAAAAAAAAAAAAAAAAAAAAAAAAAAAAAAAAAAAFQ170ux/S2bgsfH5lhITk+B0WUSzmOIWaJc2P3HUN8EJ2bI/wAJHuoi91H7hi+l2P3fTznWrUqZYIt8YvqariMNuIKMtqWmSbhuJNBqNRdhHEyURFue5H423DrF/hTSL+p7Ef8ABhp/+xRq7/TDFv7ucA0fpv02otYNdML0xyaXPjVeR2iIUp6C4hEhCDIzM0KWlaSPx9UmX7hPrCOiJPkxWzUaGXltpNXuZEoyLcW3oZ/a50s/n9r+yoRe6/hif/KXf7ZgKJrppdj+mMfTd2hmWEg8wwOtymd6xxCyblyHX0rQ1wQnZsiZTsSuSvJ7qPxtLx0D1c/7noX/AFPUP9/MHPwAAAAAAAAAAAAAAAAAAAAAAAAAAAAAAAAAAAAAAAAAAAAAAAAAAAAAAAAAAAAAAAAAAAAAAAAAAAAAAAAAAAAAAAAAAAAAAAAAAAAAAAAAAAAAAAAAAAAAAAAAAAAAAAAAAAAAAAAAAAAAAAAAAAAAAAAAAAAAAAAAAAAAAAAAAAACoYvpdj930851q1KmWCLfGL6mq4jDbiCjLalpkm4biTQajUXYRxMlERbnuR+Ngl4CkdN+m1FrBrphemOTS58aryO0RClPQXEIkIQZGZmhS0rSR+Pqky/cJ9YR0RJ8mK2ajQy8ttJq9zIlGRbgPgAAAsHUnn2JZ/P05exG29eih03xygsD7DrXZnxY3B9r7xKeXFXjkndJ/QzDD8+xKr6XtRtOp9t2shvskoJ9fD7Dqu8xGRLJ5fcJJoTxN1vwpRGfLwR7HtHwAVfpSzjF9NeovAc7zW0+HUVLbtyp0rsOPdlokqI1cG0qWr3LwlJmJjZvNyLKXIZVybdfcWg9ttyNRmRjzAAsHUXn2JZ3G0obxS29crGtNqmgtC7DrXp57L0lTrX3iU89icQfJO6T38GexiPgAAACoYvpdj930851q1KmWCLfGL6mq4jDbiCjLalpkm4biTQajUXYRxMlERbnuR+Ngl4CkdN+m1FrBrphemOTS58aryO0RClPQXEIkIQZGZmhS0rSR+Pqky/cJ9YR0RJ8mK2ajQy8ttJq9zIlGRbgPgAAAAAAAAAAAAAAAAAAAAAAAAAAAAAAAAAAAAAAAAAAAAAAAAAAAAAAAAAAAAAAAAAAAAAAAAAAAAAAAAAAAAAAAAAAAAAAAAAAAAAAAAAAAAAAAAAAAAAAAAAAAAAAAAAAAAAAAAAAAAAAAAAAAAAAAAAAAAAAAAAAADoDT/8AYo1d/phi393OHP4sGH59iVX0vajadT7btZDfZJQT6+H2HVd5iMiWTy+4STQnibrfhSiM+Xgj2PYMp0M/tc6Wfz+1/ZUMJicfpodgXC9W7fU2NkRWMkozeOV1e/CNjYu2a1yH0OEvnz5ESTLjx2Mz3IfnpSzjF9NeovAc7zW0+HUVLbtyp0rsOPdlokqI1cG0qWr3LwlJmJjZvNyLKXIZVybdfcWg9ttyNRmRgKG3H6aP1Zm69b6mlqF6VRlHTXV/wb1PI9i7vf7/AG+O259vff6bDJZNF6RkIo/sbeavOrVaxyu/idVWNkit2V31Ru3IVyfI+HBK+KDLluovAkIALBYxekIsuqEVN7rCrF1MSTt3ZFTVpnoe2LsFHQmSbakGfLma1JMi22I/I+kCJ0dHlNqizvtZE42UeMdU4xUVZzlv/P6gn0Kkk2lBfd8DSozPdXIi2LeNgArmNxeklce8PL7zV1p9NnKKjKtqqxxC67x6ZUk3JCTS+fnuJRyQXjioxj24/TR+rM3XrfU0tQvSqMo6a6v+Dep5HsXd7/f7fHbc+3vv9NhMwAV7JovSMhFH9jbzV51arWOV38TqqxskVuyu+qN25CuT5Hw4JXxQZct1F4H6sYvSEWXVCKm91hVi6mJJ27sipq0z0PbF2CjoTJNtSDPlzNakmRbbEfkR8AFkgROjo8ptUWd9rInGyjxjqnGKirOct/5/UE+hUkm0oL7vgaVGZ7q5EWxb7ZQpoE9I+uCcUdsHKQs8xwq1di2hEpUXaw7RvJbNSEuGjjyJJmklb7GZeRzeLBh+fYlV9L2o2nU+27WQ32SUE+vh9h1XeYjIlk8vuEk0J4m634UojPl4I9j2DKdDP7XOln8/tf2VCL3X8MT/AOUu/wBsxS+lLOMX016i8BzvNbT4dRUtu3KnSuw492WiSojVwbSpavcvCUmYmNm83IspchlXJt19xaD223I1GZGA8wAAAAAAAAAAAAAAAAAAAAAAAAAAAAAAAAAAAAAAAAAAAAAAAAAAAAAAAAAAAAAAAAAAAAAAAAAAAAAAAAAAAAAAAAAAAAAAAAAAAAAAAAAAAAAAAAAAAAAAAAAAAAAAAAAAAAAAAAAAAAAAAAAAAAAAAAAAAAAAAAAAAAAACoaO6XY/qFiWqd9dTLBmRhGJnfV6YriEodkesjs8XiUhRqRxeUeyTSe5F523I5eOgOmL/hv1Cf1cH/mcIBFsOqI2Q5dSUE1bqI9lZRobqmjIlpQ46lCjSZkZEexntuR/8hsWumDVOmOs+cadUMiXIrcav51VEdmLSt9bTLykJU4aEpSajJJbmSSLf6EMXpj/AMScT/nyB/iEDdurr9qXVr+mVv8A4pwBq2UYvWQcTwmwp8WzKJYXsaSqVJtI6SgWTqZCm0KrTSglLQkiJC9zWfcIyLb2FG0w6Yr+0a1EPV7EczxJzGdOrXMKZMuAuB6yTFdjIQSikNH3Gdnz5EjY/wAOyi+vTegEGBPyXowRMjMyHWMdzCXAaeSRpXNafnORvf6k6hCk/wDqSkS7pXzzVXLcQ6lmMuyO8t65emNxMnqsZDjxN2KnGyQZ8zPgtSTkbkW2/Dz+Etg5Uw6ojZDl1JQTVuoj2VlGhuqaMiWlDjqUKNJmRkR7Ge25H/yGxa6YNU6Y6z5xp1QyJcitxq/nVUR2YtK31tMvKQlThoSlJqMkluZJIt/oQxemP/EnE/58gf4hA6ts890Pwfqy18LVaiildz8tmoxnIp9H8bg0bqZcg3nHq83UJe5btcVcXDQaNyQe5gOVWdLdRXsFlanJwy1RicN1tly5djqbiKcWvglCHFbE4rc/KUcjL3PYvI1cdHa8YlrRk64uquo+qreqOn8eWxHcyDGrNuVHrmXFkXaTBV2zgOGnwlpbTSORkRGfuNNyK06ZMWvaC70wp81zGPGeeVb1OcRmIMWQ2aNmiQuvkm7uSjNR/Mn8KfcjMgE/tcJyekxahzW0rOzTZMuWiqk95tXqFRlpQ+XBKjWjipaS+Yi338b+Rgx2fqPrJpTF6d9H7SR0u4XKh2EjJExK9y3tyarzbksEs21JlEtXcMyUrmpWxpLjsW44wAAAAAAAAAAAAAAAAAAAAAAAAAAAAAAAAAAAAAAAAAAAAAAAAAAAAAAAAAAAAAAAAAAAAAAAAAAAAAAAAAAAAAAAAAAAAAAAAAAAAAAAAAAAAAAAAAAAAAAAAAAAAAAAAAAAAAAAAAAAAAAAAAAAAAAAAAAAAAAAAAAAAAAAAAbHprjcHMtRsVxCzdfah3l3BrZC2FEl1LTz6G1Gg1EZEoiUexmRlv8AQx6tXsSrcA1YzXBKd+S9AxzIrKoiuSVJU8tmPJcaQpw0pSk1GlBGZkki332IvYBqQsGhOfYlhuE6x1GSW3o5eVYUdRUN9h1z1Mv18V3t7oSZI+RpZ8lmlPjbfcyI8fqNpdj+IaMaR6i1sywdss+h3UiyafcQphpUSxXGbJkkoJSSNCCNXJSt1b7bF4GgV+N5FbVVne1dBYzK2kQ05ZzI8VxxiCl1fBtTziSNLRLWZJSajLdR7FuYD14LZQqbN8et7J7sxINrEkyHOJq4NoeSpStiIzPYiM9iIzG0dRmWY/nmvmoea4pP9dTXuTWNhXye0trvR3ZC1oXwcJK07pMj2URGX1Ihph41kRY8jLjoLIqJyadai09K56RUskE4ccntuBukhSVGjflxMj22MZu+0j1XxahayrJ9McsqKV7j27KfSyY8VfL8PF1aCQe+5bbH5AfY9Y9TCj4XGZyyTGLTsnPsy5GbbYdru4+b6jS4hJLUZumat1moy32LYvA3K/6weovJ49vEuNROce/rZVVaMsVEGO3NYkcSeN1DTKSW6okJLvGXdItyJZcj30TFdKdUc6r5NvhGm+U5DBhmaZMqqp5EtpkyLcyWtpCiT48+TGOpsNzDIzmpx7FLi0Ot4HNKFBdf9NzcS0jucEnw5OKSguW26lEkvJkQD6YLZQqbN8et7J7sxINrEkyHOJq4NoeSpStiIzPYiM9iIzG0dRmWY/nmvmoea4pP9dTXuTWNhXye0trvR3ZC1oXwcJK07pMj2URGX1Ihi/1N6vHOOsLSvMDmFYHUHHKjldwpxNE8cXjw37xNGTnb/FxMlbbeRhcgxHK8Su141lWMW1Nbtmkl19hCcjyUmr8O7S0kot/p48gMWh11tK0NuLSl0uKyIzIlFuR7H+ZbkR/8yIfkbTlGlOqOD1se5zXTbKcfgS1EmPKtKeREZeMy3IkLcQSVHsRn4P6D71GjOsGQdr4DpTmNl369u2a9JRSnu5BWpaUSU8UHuypTbhE4XymaFER+DAaeA2NOmmoysWezlOAZIeNx3DaeuCqn/QtrJXE0qf49sjJXjY1e/gf7h+mmo+ofqSwDT/JMm9GRHJ+D1T83skfsa+0hXH2P3Aa2A+86DOrJj9dZQ34kuM4pp9h9s23GlpPY0qSrY0mR+DI/IpLel2Pr6YX9ajmWHxxrPGcWKP3Eek9Iqvckmvjw59zmgi358eO/y7+QEvAAAAAAAAAAAAAAAAAAAAAAAAAAAAAAAAAAAAAAAAAAAAAAAAAAAAAAAAAAAAAAAAAAAAAAAAAAAAAAAAAAAAAAAAAAAAAAAAAAAAAAAAAAAAAAAAAAAAAAAAAAAAAAAAAAAAAAAAAAAAAAAAAAAAAAAAAAAAAAAAAAAbzoR/xw08/pXU/4xoe/qW/aN1V/ptef494YHSa7q8Z1Uw3JLuV6auqsgrp0x7gpfaYaktrWrikjUrZKTPYiMz28EY9muGR02Ya1agZbjkz1dTd5Ta2MCR21t96O9LccbXxWRKTulST2URGW/kiMBStcP2W+mz+bMp/zt0ezp/I3OlrqaZbI1LOnxlfEvJ8U3DZqPb8iL3Gp6qZ9iWSaCaI4VS23qLnEIN+zdRuw6j0q5No4+yXNSSQvk0olfIatt9j2PwNL041Wz/SS1l3Gn+QKrX7CIuBNbXGZkx5cZRkamnmH0LadQZkR7LSZbluA6O0+dyXGejjTfJKbEX76wY18+K1lUUZbvxRTNdH4tJQkjUsluMqbMkkZnsZDYbK9rdfJGq17ovrJqPjWVWVFb3GSYNmDKZkGXDRu7LjR5SVGSO2RGTZOsoWXEiJST8jmzI+o3WnK6mDR3GcyPQ1d03kFcxEix4iYE9DZNocjdhtBsJSki2bb4oJW6iTyM1Hlcp6tOoLM6Kyxy+1BNUS6ZOPZriVcKHJntH+JEiQwyh55Kv4xLWolfXcB0vrJnelumGGaC1kmBqu1ETp3UW1U/h+WsVUE5rprXLc7RxXDOV3+RuK5b+UFsW3n61WqlvY5v1Xan02DXGnd47g0R1ytnl25sKab8Rtck9m2zQ6tRm+SiSkyWslF52Mcs4J1Qa6abY3FxHEs6Nmor3lyIEaZWxJ5QHVHupcZUlpxUczV8xm0afJmfv5GuxNYNSoZ5g4nLJTzufxzi5I9KQ3IesWzeS8ZLcdSpSTNxCVckmlXjbfbwAu8HOsvr/0e1zNiZHYIm3usCYlhL9Ss5Ehj4Mlw21Ob8jSammzMt/PAi9hS6HGMo1Xtuj1cLNHqbInMcun1ZC5HTNksR62ZKeRwQ4Rk4tDbSktke5EZkf0HF36w8w/V2elHxf8A7KndfaH0Hp2v4Q7HY73d49z/AGXy8eXH67b+RmYWueq9avCXazMpUJ3TlDzeMuxmWmnK9LrqnXCJaUkpwlLWrfuGrwo0/h8AOt9PsuwvUvRbqRexhvVi1gt4mc6bOzPIo9hFemFLbcYcTHajI7MjdK1kfdXsRKLz4Mtd1OzvL6Gd0iVNJkM6BFi4lR2CG4z6myN9dk8g1K4mXL5WyIt/YjV+Z7xJHV/1ENXv2hY1AQw+cKVXrjM00BuC6xJNBvpchpYKO4bhttmpSmzUfBO5+CGlXmrGf5JLxSbc3/qHsIhMV1Cr0jCPRx2XlPNI2Sgic2cWo918jPfYzMtiAdqQ8tyO967NfcatLiU9Tu47mVUqvN0/TelZhu9tsmvwkRGgle34jM/czMa9f5Tphp50k6CpuK3UdVZcx7ie4/h+TM1LLtqiaaHjkkqM6bryEk2lBmouKC2IvcxyxG1x1RiahX2qkfKOGUZO3OatZ/oo5+oRMQpEku2bfbRzStRfKkuO/wAuw9unXUVrHpVRP4thWYExSyJJTVV06uiWMVEjbbvNtSmnENubbFzQRK8F58ANn6utQ0anak1GTr09yTFJZ4vVxpJ5C8Ts+3NDZk1YuuE00TinWOz85I2Vw3LwexZNn9gKZ/XDG/yV4RjMs0yvUPJZ2Y5vfzLq6slk5Kmy3ObjhkRJIt/oRJIkkktiIiIiIiIiFGaz7Ek9IMnS47b/ALTuaksX6YPYd8wE1brBu9zj2/8AaKSnjy5ed9tvICPgAAAAAAAAAAAAAAAAAAAAAAAAAAAAAAAAAAAAAAAAAAAAAAAAAAAAAAAAAAAAAAAAAAAAAAAAAAAAAAAAAAAAAAAAAAAAAAAAAAAAAAAAAAAAAAAAAAAAAAAAAAAAAAAAAAAAAAAAAAAAAAAAAAAAAAAAAAAAAAAAAAAqHULpdj+k2W0VDjkywkx7PE6S+eVNcQtaZEyG286lJoQkiQSlmSSMjMi23Mz8iXjoDrW/4kYj/Vxif+WMgNPq9Lsfm9NV/rI7MsCuqrMa/HmWEuI9KqM/EkPLUpPDmbhKZSRGSyLYz3Iz2MtAoccyHKrEqjF6GxuJ5tOvlFgRVyHjbbQa3F8EEauKUJUpR7bERGZ+CFvx/wDYRzL+s6l/y2aM1+jiOaXVjjh10dL8sqq87DSkkonHPhcnikyPwZGexbAIVf6Y6lYpRw8nynT3JqensePo7CwqZEeNJ3Lcu26tBIXuXktjPwPtj2kuquXUr2S4ppnld1UR+XesK6mkyYzfH8XJ1tBpLb67n4F/6dMny/MtOepSFqLe2trTuYI/azPiT63UpukTWDiOHzM+LprNwiP3PYy+gpNfJiaZZ1oXpdkeY6u5TmCKuimVcXGbmJT1FY3McJ5phDXpnVSuJLPuuqNJrLfc9i+UOJcWwvMc5tPgeE4nc5BY8TX6OqgOy3+Je58G0qVt599h/tthGaUGQpxG9xG6rr1akITVy691mWalfhImVJJe5/QtvI7KznUPHdMNWupLCMtxPNq7BcvzRDMjJ8N2Yk1kxl595uOalkTLiHSccUbKloMyQZl+ZeVm/wAz0hznR7XOiyrIdbsEVSZA3RqcgOQ7utgMktmwStRE6ts45yeaHjWpstj48EgOVrjRnWDHrGrqL/SjMayfePpjVcWZRSmXpzyjIktsIWglOqMzLZKSMz3IYitwjNLqXbwKfELudJx+M/Nt2Y1e665Xx2T2eekJSkzaQgzIlKXsST9zIdR2Fip7SHItVunzXvOLegwi/o7y+xXNoaDlwpJyjTClsyULcbcPvHxV2+0o0+VEZERC3tv41ozqjk2p5NJTjevufUNbGUeyUqx+zg+vslF+aSVYxkmXtugwH85G8byJ2gcytqhsV0jMtFe5ZJiuHFRKUg1pYN3bgThpSpRI35GRGe2xDNZDpJqriNIzk2V6ZZZS08k0kzYWNLJjRnOX4eLriCSe/wBNj8jubRvC6zSnUfpw6b85ZY9VJzDIMzvI0gi4rmtKfgVRmR/+qAaiL/8Ayl/7yzpZznUrOtVtV6PVjIrmyp7XCsmkZfFs5DjjLJtMKUTq0LM0trbfJBIUREaDPYtgHM0TTHUmfT/aKFp7ksiq9A9a+uaqX1R/RNLNDsnuEjj2kLSpKnN+JGkyMyMht+kGgeaZ3mWBFkeDZdDwfK8lq6WRfsVjrcYmZMtthZtSVtqZ57LPiZ8i5beD9hVdaszyKr6R+nDEoF7Nrqi1rMgdtG4rymymJTbPIQl0k/7RKErd4pVuRd1fjyYsOdZhqZTfpRcZwnFbi1Yx+vvsdqayojPr9Cii9PGNaW2iPgbXZNxzfbYlEavctyDhvVHGIGE6mZdhlU9IdhUF7PrIzkhSVOraYkLbQazSREajSktzIiLffYi9htWs+l2P6dY3pdcUkywfezbDmshsEynEKS1JVLksmlokoSaW+LKD2Uaj3M/O2xFjeoH/AI9ak/0vuP8AGuihdUn/AHF6ff6sY/8AmU4Bz+AAAAAAAAAAAAAAAAAAAAAAAAAAAAAAAAAAAAAAAAAAAAAAAAAAAAAAAAAAAAAAAAAAAAAAAAAAAAAAAAAAAAAAAAAAAAAAAAAAAAAAAAAAAAAAAAAAAAAAAAAAAAAAAAAAAAAAAAAAAAAAAAAAAAAAAAAAAAAAAAAAACwdUGfYlqJm2OW+HW3xCJAwrHqiQ52HWuEuNAbafb2cSkz4rSZciI0ntuRmXkR8AFgp8+xKL0mZLpm/bcclsM7q7mNC7Dp84bMKU0453CT2y2W6guJqJR77kRkRmXq6PdRsR0p1zgZpm90qpq49RcxjlJYdeNLz9dIZZIktJUvy4tBbkWxb7mZERmIqKhi+l2P3fTznWrUqZYIt8YvqariMNuIKMtqWmSbhuJNBqNRdhHEyURFue5H42D85n1Ma46gYe7geWZ49LpJTzcmaw3CjR1z3Wz3Q5KdZbS5KUR7K3eUs+REfv5H6Pqd11PC4mAfrBlFUwIBVUVSYscprML29KmaTfqSZ2M09snOHE+O23gefpv02otYNdML0xyaXPjVeR2iIUp6C4hEhCDIzM0KWlaSPx9UmX7hPrCOiJPkxWzUaGXltpNXuZEoyLcBXVdYHUUvJrLL3dQidsbmKxDsydqIC409tk1G0qRGUwbLziTWrZ1aFL8/iGGsupTXO1zen1Fk6j2TV9jzRx6l+IlqK1BZURkptlhpKWUIURmSkEgkqIz5EY1/HtJtVMto38mxTTPK7qnjGon7CvppMmM1x/FydbQaE7fXc/Ax9Dg2a5VHdl4vh93cMR5LEN12BXvSENyHjUTLSjQkyJazQvik/KuJ7EexgNvz/AKj9ZtTsf+yeXZehylVITKdr6+sh1sd95P4XHW4jTaXVF9DWSjI/JDEZdrLqXnmL4jhmV5U9Op8EYcjY9H7DTfoW18OREtCUrWf3TZEazUZEkiIyIf6jRLWd3I38Ob0jzRd/GjlLeqk0Es5jTB+CdUz2+aUHt+Iy2Gv1uKZTc35YpUY1azrs3VMFWxobjso3E78kdpJGvkWx7ltuWxgNk1F1t1T1YzxrU/PMxlT8ojpYSxZMtNRHGeye7RtkwlCUGk/mI0kR8vO+/kbBmXVVr5n2Oz8WyfP1vV9vwKzKNWw4b1iST3SUp9hpDsgt/P3qlbn5PyNHyXAc1wS4j02fYVkGPzH+K0xLKueiSHGzPbdCHUkZ/kR7bbixT9CMGewbXrM4lXnmPPaZyseapajIyZZnITPkqaeTPbJlJ8ySkjTw7e25GfIBH8g1DzDKcYxnDb639VT4cxJjUsb07SPStvvG86nmlJKXycUat1moy32LYvAoVf1h9SNVU0lNC1Okoax1MdutfXAiLlstMLStpk5SmjfWyRpTu0tZoMi4mk0+Bg+m/Tai1g10wvTHJpc+NV5HaIhSnoLiESEIMjMzQpaVpI/H1SZfuE+sI6Ik+TFbNRoZeW2k1e5kSjItwHoyG+tsqv7LJ76V6qzuJj0+a/20o7r7qzW4vigiSndSjPZJERb+CIhUde8+xLNcT0erMZtvWScVwRmmtkdh1v00xM2U6be60kS/kdbPkjkn5tt9yMij4AAAAAAAAAAAAAAAAAAAAAAAAAAAAAAAAAAAAAAAAAAAAAAAAAAAAAAAAAAAAAAAAAAAAAAAAAAAAAAAAAAAAAAAAAAAAAAAAAAAAAAAAAAAAAAAAAAAAAAAAAAAAAAAAAAAAAAAAAAAAAAAAAAAAAAAAAAAAAAAAAAAAAAAADoDT/8AYo1d/phi393OHP4sGH59iVX0vajadT7btZDfZJQT6+H2HVd5iMiWTy+4STQnibrfhSiM+Xgj2PYMp0M/tc6Wfz+1/ZUIvdfwxP8A5S7/AGzFL6Us4xfTXqLwHO81tPh1FS27cqdK7Dj3ZaJKiNXBtKlq9y8JSZiY2bzciylyGVcm3X3FoPbbcjUZkYD+gWvWpGmmlWoumlNX0+r5/CsSx6ViZYrlseBXPMuMJUlbMY4bhrW47zJxRqUbit9/fYtVtNRrOTpJ1c5pjWKWWnsy6ynGUSKhwzal1q3npZSmjMkoUhSld0lERJPi4pJ+DPfnjEOq7qAwTG6/E8a1CdZrqclpqyk10SW/XEo9zKK++0t2OW/nZpadj9thp7GqWfMYxlGH/aR92rzSbGsb5t9tt52dJjrWtp1by0m6SiW64ozSouRq+bfwA6F1w1Mz6P0n9M70XLbWPIei5C+9IZlLQ88qJbONROayPkrsoNRNkZ/JzVttuYsWqtL8E6mOp/VqRm2Q4xjmMVFOzdsYs2w3aWfxRqKgmGnnUqKOhTxGtx0iMyLbwe44QvdQswybEsYwa7t/U0eGty2qSL6dpHpEynzffLmlJLc5OmavnUrb2LYvA3GN1Qa6RNQr3VJrOlHkWURkQ7l5yuiOR57CEIQht6Kpo46yJLaCLdv6b+5mZh0HqtNosl6IcByalqs0ahNarPRqt7Lrlq1memXBI3ew82wySY6nWj+Tif3jbh8j8EW6dRP4Ouf+e8K/xhjkS06mdcLujvMauc6cnVWQyI8qbDkQIrjSXWEkllUdJtbReKSJJEx2y4/L7eB4si6gNXMsLOiyDLfVFqU/Ck5R/qEVHxByIvnHV8jZdrgo99muBH/G3Abl0M/tc6Wfz+1/ZUIvdfwxP/lLv9sxS+lLOMX016i8BzvNbT4dRUtu3KnSuw492WiSojVwbSpavcvCUmYmNm83IspchlXJt19xaD223I1GZGA8wAAAAAAAAAAAAAAAAAAAAAAAAAAAAAAAAAAAAAAAAAAAAAAAAAAAAAAAAAAAAAAAAAAAAAAAAAAAAAAAAAAAAAAAAAAAAAAAAAAAAAAAAAAAAAAAAAAAAAAAAAAAAAAAAAAAAAAAAAAAAAAAAAAAAAAAAAAAAAAAAAAAAAACoXOl2P13TdjOsLEywVc3OWWdC+wtxBxUx48aO6hSEkjmSzU8ojM1mWxFsReTOXjoDKP2F8C/rHvv8DCAc/jOZfhOT4HYRKrK6z0MqdXQ7ZhvvNu84kplLzDm7alEXJtaVcTMlFvsZEe5DJ6a5limFWsqflul1LnMZ+P2WodrLlx22F8iPupOK62o1bEadjMy2UfjfYdFdY2punr9lV48zoFi8ezsMCxh6LdosbI5NehysjrbabQcg2lJbQZNpNaFGaS3UZq8gORgFeuovSMmDSHjt5q8uYqfEK7KbVViGkQv/uTjGiQZqdL/AOmSySk/4xkP1YxekIsuqEVN7rCrF1MSTt3ZFTVpnoe2LsFHQmSbakGfLma1JMi22I/ICPgLBCi9IR5jZIsb3WFOKFEYOtdZqas7BUnc+8TyDkk2lsi48TSozPzuRBRRekFTV39pr3WFt1NhIKlKBU1a0rg8U9hUnnJLi8aufNKOSSLjsZ+QEfAUxuP00fqzN1631NLUL0qjKOmur/g3qeR7F3e/3+3x23Pt77/TYZLJovSMhFH9jbzV51arWOV38TqqxskVuyu+qN25CuT5Hw4JXxQZct1F4ASEBYLGL0hFl1QipvdYVYupiSdu7IqatM9D2xdgo6EyTbUgz5czWpJkW2xH5H0gROjo8ptUWd9rInGyjxjqnGKirOct/wCf1BPoVJJtKC+74GlRme6uRFsW4RsBXMbi9JK494eX3mrrT6bOUVGVbVVjiF13j0ypJuSEml8/PcSjkgvHFRjHtx+mj9WZuvW+ppahelUZR011f8G9TyPYu73+/wBvjtufb33+mwDT6fCcnv8AGsgzCprO/UYsiMu2kd5tPpkyHe0yfFSiUvk4e3yErb3PYvIwY7M0q1i0rf6f9Y57PTDhkePWRMf9bDRbWxt2fOwShPdM5RqRwV85ds07n4PcvA5Pza+pcmyebeY9h9fi1fJNvs1EB995iNxbSlXFb61uHyUk1nyUflRkWxbEQYMAAAAAAAAAAAAAAAAAAAAAAAAAAAAAAAAAAAAAAAAAAAAAAAAAAAAAAAAAAAAAAAAAAAAAAAAAAAAAAAAAAAAAAAAAAAAAAAAAAAAAAAAAAAAAAAAAAAAAAAAAAAAAAAAAAAAAAAAAAAAAAAAAAAAAAAAAAAAAAAAAAAFgvs+xKb0o4jprGtueSVma21vLhdh0u3EeiRW2nO4ae2e6mllxJRqLj5IiMt4+AAAAAAAAAAKhi+l2P3fTznWrUqZYIt8YvqariMNuIKMtqWmSbhuJNBqNRdhHEyURFue5H42CXgKR036bUWsGumF6Y5NLnxqvI7REKU9BcQiQhBkZmaFLStJH4+qTL9wn1hHREnyYrZqNDLy20mr3MiUZFuA+AAAAAAAAAAAAAAAAAAAAAAAAAAAAAAAAAAAAAAAAAAAAAAAAAAAAAAAAAAAAAAAAAAAAAAAAAAAAAAAAAAAAAAAAAAAAAAAAAAAAAAAAAAAAAAAAAAAAAAAAAAAAAAAAAAAAAAAAAAAAAAAAAAAAAAAAAAAAAAAAAAAAAAAAAAAAAAAAAAAAAAAAOgNP/wBijV3+mGLf3c4c/iwYfn2JVfS9qNp1Ptu1kN9klBPr4fYdV3mIyJZPL7hJNCeJut+FKIz5eCPY9gynQz+1zpZ/P7X9lQi91/DE/wDlLv8AbMUvpSzjF9NeovAc7zW0+HUVLbtyp0rsOPdlokqI1cG0qWr3LwlJmJjZvNyLKXIZVybdfcWg9ttyNRmRgPMAAAAAAAAAAAAAAAAAAAAAAAAAAAAAAAAAAAAAAAAAAAAAAAAAAAAAAAAAAAAAAAAAAAAAAAAAAAAAAAAAAAAAAAAAAAAAAAAAAAAAAAAAAAAAAAAAAAAAAAAAAAAAAAAAAAAAAAAAAAAAAAAAAAAAAAAAAAAAAAAAAAAAAAAACoVel2Pzemq/1kdmWBXVVmNfjzLCXEelVGfiSHlqUnhzNwlMpIjJZFsZ7kZ7GUvHQGP/ALCOZf1nUv8Als0SPT7J8exHIkXGT4BV5jBSyts6uykyWGVKV7L5R3G3N0/QuW3nyRgPPkuE5PiEOhn5FWekYyerTc1S+8256iGp51knNkKM0feMOp4q2V8u+2xkZ4MdidSOrOmScB0qin034ip6502JyvkHaWnOmSuxsW0oYL1PFZIWlTpG6SzNSzIzNJERQ24jdLqcGguUFzqkvMjbh+uZmVlcmsSszR6rtOIfN0yIu52+SC3Mk8uO57BLQFgyGL0hJt6FOKXusLlWqWor1VhU1aJDcbgfE4pNyVJW5z23JZpLjv538D6HE6Ovtklsr7WT7J/DDNTp1FX8R+I90tkkj1Pa7Ha3M1cufPYttvICNgLBRRekJV9fpya91hbpUvslQrgVNWuU4z2y7pykrkkhC+5vxJs1EafJmR+B5KSN0sqxKyXkd1qq3lBKmfDm4VZXLgKSRq9L3lrkE4kzLh3OKT2+bjy8AJUAqVxG6XU4NBcoLnVJeZG3D9czMrK5NYlZmj1XacQ+bpkRdzt8kFuZJ5cdz292QxekJNvQpxS91hcq1S1FeqsKmrRIbjcD4nFJuSpK3Oe25LNJcd/O/gBHwFkOJ0dfbJLZX2sn2T+GGanTqKv4j8R7pbJJHqe12O1uZq5c+exbbeR86KL0hKvr9OTXusLdKl9kqFcCpq1ynGe2XdOUlckkIX3N+JNmojT5MyPwAj4CqwY3SyeD2LlldaqpzEm53w9lisrjrFLJTno+84qQTqSNPa7vFBmRmvjy2Lf8XEbpdTg0FygudUl5kbcP1zMysrk1iVmaPVdpxD5umRF3O3yQW5knlx3PYJaAsl1E6Ok3VGnHr7WRdQqQ6V4ubUVaJKGO0rtnGSiSaVr7vAlEs0kSORkZnsQ+ZRekL7dG2d7rB9jfhJKJ74TV/E/ifePdPb9T2vT9nY+XPnz3Ljt5AR8BYKKL0hKvr9OTXusLdKl9kqFcCpq1ynGe2XdOUlckkIX3N+JNmojT5MyPwPJBjdLJ4PYuWV1qqnMSbnfD2WKyuOsUslOej7zipBOpI09ru8UGZGa+PLYtwlQzkHCcnssPts+hVncoaOZEr58vvNl2ZElLqmEcDVzVyJh3ylJkXHyZblvul430yx8ChysVsNS5ecIaiLkxLSvgN06nt0epSl1p83+H+0JB8CUfy78fO3QGI6y6UP8ATDqPcs9LeFR4ETKMbZfq0W9ubEtxxqxNDq1nKNxKmyQskklREfcVyI9k7BxeAymU21Ze5FPuKbG4ePwZbxuMVkR11xmIg/ZtCnVKcMi/NSjP94xYAAAAAAAAAAAAAAAAAAAAAAAAAAAAAAAAAAAAAAAAAAAAAAAAAAAAAAAAAAAAAAAAAAAAAAAAAAAAAAAAAAAAAAAAAAAAAAAAAAAAAAAAAAAAAAAAAAAAAAAAAAAAAAAAAAAAAAAAAAAAAAAAAAAAAAAAAAsFPn2JRekzJdM37bjkthndXcxoXYdPnDZhSmnHO4Se2Wy3UFxNRKPfciMiMyj4AAAKh1O6XY/otrxl+l2LTLCVVY/MbjxnrBxC5C0qZbWZrUhCEme6z9kl42C50ux+u6bsZ1hYmWCrm5yyzoX2FuIOKmPHjR3UKQkkcyWanlEZmsy2ItiLyZhLwFC0txHRjJo1g5qrrJZ4Q8wttMNqJiq7cpSTI+ajUmQ12+Jkkttj33+mwq+t/TJoJolMssbtOpu2n5PGp27SDWowBxtqWp6MT8ZpT5TVE1z5II1cVcORnse2wDmYBs2QaYalYnBkWeVae5LTQ4k1FbIkWFS/Gbalqb7qY61OIIkum385IP5jT5228j63+kuquJ0bWT5TpnldNTSDSTVjYUsmPGcNX4eLq0Eg9/psfkBqgDbKLSPVfKCgqxnTHLLcrSM5MgnBpZMj1Udtw23HWuCD5oSsjQak7kSiMjPcYqHh2XWORnh1fitxJvyeVHOqZgurmE6nfkjsknnyLY9y23LYBiAGdy7As50/nN1eeYZe43MeR3G49vXPQ3Vo9uRJdSkzL9+w91zpJqrjmPN5dkOmWWVdE8STbtJlLJYiLJX4dnloJB77ltsfncBqgDZMS001Gz9uU7gmAZJkiIJEqUqoqn5hMEfsazaSrj/77Dc9MemXVzVnC8zzXD8NvZ8fDkstqYiVMiQ7OlrkMtLiMk2k93W0Pd5afJpQncyIjIwEoAbjlOMVcDEsJsqnF8xhz7yLJXLlWjCSgWTiZCm0KrTSglLQlJEhe5qPuEZEZew8+VaUapYJXx7fN9Nsqx6DMMkx5VrTSIjTxmW5EhbqEko9vPgwGrANwp9GtX8hcYaoNKsws1ya9u2YTDo5TxuwVqUlElJIQfJlSm3CJwvlM0KIj8GNTkxpMKS7DmR3GH2FqbdadQaVtrSexpUR+SMjIyMjAfMBUM90ux/FtCtKtTq+ZYOWmcv37Viy84g47RQZDLbXZSSCUkzS6o1clK3Mi24+xy8AAAAAAAAAAAAAAAAAAAAAAAAAAAAAAAAAAAAAAAAAAAAAAAAAAAAAAAAAAAAAAAAAAAAAAAAAAAAAAAAAAAAAAAAAAAAAAAAAAAAAAAAAAAAAAAAAAAAAAAAAAAAAAAAAAAAAAAAAAAAAAAAAAAAAAAAAAAAAAAAB0B19/tg6mfzmz/hWQyj9hfAv6x77/Awhr/V5n2Jao9SGc59gtt8Tobic29Cl9h1nuoJhtBnwdSlafmSovmSXsF9n2JTelHEdNY1tzySszW2t5cLsOl24j0SK2053DT2z3U0suJKNRcfJERluEfHSf6QX9og/6K47/lrA5sGyag6j5nqpkX2szy5+KWvpY8L1Hp2mPuWGktNJ4tJSn5UJSW+257bmZn5AdldRxahaufpGK3SKozh+mjxraiTUm4RPRa51MBiSuSUdX3bjvNbq/mL5jUSTPYxndLcww3UWX1GQ6KTq9kakadZNItrTLL6M/XyH0INTTnoW4ySYe7iOTRE6ZoJCyItiPbibJNYdSss1L/XFdZXIVmRSI0tNtHbbiuoejtobZWlLKUoSaUtNl4SW/Hc9zMzPdHesXqOdyKLlKdRuxOinIVxj1EBmM+t9s23lyIyGSZkLUhSiNTqFq2M/IDftb8zyml6Sumyhpb2bXw367IJr6Ijymu883bOpaUs0mRq4EpfHf8JuLMtuRisaqaoL026lczy27xDJ7emy3S6jr8puccWbNlVJlwoX+uokcTQhanG0I+8NKV8tt/ofFmX6oZxnlNRY9lNyiXXYymYmqjohsMJjJlSFSHyLtISaiU6tStlb8d9k7ERENki9S2uELOP1jQ89kM36qpijdfREjk0/XstpbbjvMdvsuoJLaC2WhW5pIz3PyA6ALTG81UpdLH9IuoW8yPBJ+o7NDDZy6pQmwxu5eaS9uZKW4iQ2bLfM0oWTZqSRGndRmKdpTleJZ1qjrfj1bY6v5XLbwzJ2r60ya9irq5RoaWjkdc3GLs7ukXaST3yEXgtiMi4rzHqL1ozyVRy8gzqQk8allPqGa2MxWx4MolEon2mYqG20u7kXzknl49xsD/WP1IyMjg5X+slbFlXvuykLjVUFhp95xpbS3ZLLbKW5SzbccTyeSs9lq8+TAUHVzKct0/6YunZvTTIrWjqLKDc2kx+qlORvVXSJ5ocW6psyNbjaEtJTy3NKdttiG0wcj1ikaT9Wdtqu1Mps0kQcQm2DCGEwVodcsY+zptNcUoW4121KMiI1ct1bmZiB4Z1S67afMWMTE85KJEs7Fy3ehu1cKRGamrPdT7DLzKm46/PuylGxERFsRFt4MR6idZ8IyfIcxoM7lHb5YhTd4/PjsWBWBGvnu83JQ4hZkotyUad0/QyAdoaDRIkqR0nuqisybSFhObTaNh1BLJyzakTFx9kn4NRKTyT/AOpKTLyRCLdMeY5pnWLdQ1RqPktvd4+7pnb281NrLcfaTcMusqgvfeGZE/3jMk/U9z/LxBZGsmpshjD2PtbKj/YDunjbkVtuO7XG6+chZocaSlajN1Rq3UZmW+xbF4Gezzqc1w1Lx2VieXZv3qme+iTPjQq2HATPdQe6VyTjNNnIUSvmI3TV58+/kBWeqDP8zx/T3pxqKDJLCsjQtOIFq0mJIUyZSjlyEk6ZpMt1JJtPEz/Durbbke+ufpB40eL1i6kojMIaS5MhvqShOxG45BjrWr/malKM/wB5mI1l2oeYZ3Dx6BlVv65jFalujqEenaa9NCQta0tbtpSa9lOLPkvkrz77EQ/3UTUPMdV8ysdQM/uPil/bKbVMl+naY7pobS2j5GkpQnZCEl4SXtv77mAr2sP7InTv/K8y/wAbFHPwsGpOfYlf9OWjOB1Nt373FJGTOXETsOp9MmXKYXHPmpJIXyS2s/kUrbb5tj2EfAAAAAAAAAAAAAAAAAAAAAAAAAAAAAAAAAAAAAAAAAAAAAAAAAAAAAAAAAAAAAAAAAAAAAAAAAAAAAAAAAAAAAAAAAAAAAAAAAAAAAAAAAAAAAAAAAAAAAAAAAAAAAAAAAAAAAAAAAAAAAAAAAAAAAAAAAAAAAAAAAAAAAAAAAAAUjpv02otYNdML0xyaXPjVeR2iIUp6C4hEhCDIzM0KWlaSPx9UmX7hPrCOiJPkxWzUaGXltpNXuZEoyLcW3oZ/a50s/n9r+yoRe6/hif/ACl3+2YCia6aXY/pjH03doZlhIPMMDrcpnescQsm5ch19K0NcEJ2bImU7Erkrye6j8bMF0ux/J9B9U9UZ8ywbtcImY9Hr2WXEFHdTPekIeN5JoNSjImU8eKk7GZ78vG249XP+56F/wBT1D/fzB/mkX7H3UJ/OeF/4qcA5/AAAAAAAAAAAAAAAAAAAAAAAAAAAAAAAAAAAAAAAAAAAAAAAAAAAAAAAAAAAAAAAAAAAAAAAAAAAAAAAAAAAAAAAAAAAAAAAAAAAAAAAAAAAAAAAAAAAAAAAAAAAAAAAAAAAAAAAAAAAAAAAAAAAAAAAAAAAAAAAAAAAAAAAAAAABUNRtLsfxDRjSPUWtmWDtln0O6kWTT7iFMNKiWK4zZMklBKSRoQRq5KVurfbYvACXgKho7pdj+oWJap311MsGZGEYmd9XpiuISh2R6yOzxeJSFGpHF5R7JNJ7kXnbcjl4AAAAAAAKv0pZxi+mvUXgOd5rafDqKlt25U6V2HHuy0SVEauDaVLV7l4SkzExs3m5FlLkMq5NuvuLQe225GozIx5gAWDqLz7Es7jaUN4pbeuVjWm1TQWhdh1r089l6Sp1r7xKeexOIPkndJ7+DPYw05z7EqHpv1jwG2tuxfZVOxh6oidh1XqURH5S5B80pNCOCXUH86k78vl32PaPgAAAAAAAAAAAAAqHUjpdj+j2qC8KxmZYSYKaansScnOIW73JdexIcLdCEFxJbqiSW25JItzM/JhLwAAAAAAAAAAAAAAAAAAAAAAAAAAAAAAAAAAAAAAAAAAAAAAAAAAAAAAAAAAAAAAAAAAAAAAAAAAAAAAAAAAAAAAAAAAAAAAAAAAAAAAAAAAAAAAAAAAAAAAAAAAAAAAAAAAAAAAAAAAAAAAAAAAAAAAAAAAAAHQGuH7LfTZ/NmU/526OfxYNVM+xLJNBNEcKpbb1FziEG/Zuo3YdR6Vcm0cfZLmpJIXyaUSvkNW2+x7H4AbB0xf8N+oT+rg/8AM4Q1G4jdLqcGguUFzqkvMjbh+uZmVlcmsSszR6rtOIfN0yIu52+SC3Mk8uO57e7QnPsSw3CdY6jJLb0cvKsKOoqG+w656mX6+K7290JMkfI0s+SzSnxtvuZEcfAWDIYvSEm3oU4pe6wuVapaivVWFTVokNxuB8Tik3JUlbnPbclmkuO/nfwPocTo6+2SWyvtZPsn8MM1OnUVfxH4j3S2SSPU9rsdrczVy589i228iNgAsFFF6QlX1+nJr3WFulS+yVCuBU1a5TjPbLunKSuSSEL7m/EmzURp8mZH4HkpI3SyrErJeR3WqreUEqZ8ObhVlcuApJGr0veWuQTiTMuHc4pPb5uPLwJUACpXEbpdTg0FygudUl5kbcP1zMysrk1iVmaPVdpxD5umRF3O3yQW5knlx3Pb3ZDF6Qk29CnFL3WFyrVLUV6qwqatEhuNwPicUm5Kkrc57bks0lx387+BHwAWQ4nR19sktlfayfZP4YZqdOoq/iPxHulskkep7XY7W5mrlz57Ftt5HzoovSEq+v05Ne6wt0qX2SoVwKmrXKcZ7Zd05SVySQhfc34k2aiNPkzI/Aj4AKrBjdLJ4PYuWV1qqnMSbnfD2WKyuOsUslOej7zipBOpI09ru8UGZGa+PLYt/wAXEbpdTg0FygudUl5kbcP1zMysrk1iVmaPVdpxD5umRF3O3yQW5knlx3PaWgAsl1E6Ok3VGnHr7WRdQqQ6V4ubUVaJKGO0rtnGSiSaVr7vAlEs0kSORkZnsQ+ZRekL7dG2d7rB9jfhJKJ74TV/E/ifePdPb9T2vT9nY+XPnz3Ljt5EfABYKKL0hKvr9OTXusLdKl9kqFcCpq1ynGe2XdOUlckkIX3N+JNmojT5MyPwPJBjdLJ4PYuWV1qqnMSbnfD2WKyuOsUslOej7zipBOpI09ru8UGZGa+PLYt5UACmZJH6aEadsO4hb6mu52ceKb7FlXV7dQT/AMvqCS62+p40F8/AzRufy8iLztunXR/x/d/otjP+TRBz+LB1XZ9iWpWr7mU4VbfEatVDRQif7DrP30esjsvJ4uJSr5XG1p322PbcjMjIwEfAAAAAAAAAAAAAAAAAAAAAAAAAAAAAAAAAAAAAAAAAAAAAAAAAAAAAAAAAAAAAAAAAAAAAAAAAAAAAAAAAAAAAAAAAAAAAAAAAAAAAAAAAAAAAAAAAAAAAAAAAAAAAAAAAAAAAAAAAAAAAAAAAAAAAAAAAAAAAAAAAAAAAAAVDF9Lsfu+nnOtWpUywRb4xfU1XEYbcQUZbUtMk3DcSaDUai7COJkoiLc9yPxtLx0Bp/wDsUau/0wxb+7nANH6b9NqLWDXTC9Mcmlz41XkdoiFKeguIRIQgyMzNClpWkj8fVJl+4T6wjoiT5MVs1Ghl5baTV7mRKMi3Ft6Gf2udLP5/a/sqEXuv4Yn/AMpd/tmA23NcGQzkePY9hOEZ1GmXFNXyUwLuHymTpTzfJTsRtttJrjOH5ZPZSjT9T9xu9R05z6/RTVzOdSsfyvGcowJzHPhtbPiKhJdasJL7Tq3mnmu4oiJkuBpUkt+W/L2LrFh2VXakXGSUK1t5PRdKcKdQvteH40kocdC3mTLyTqWlu7GXnY1CJacZVnuS9BOviMpuLOzqod3i5Vz015b3B9cxRyEIWszPbYmFGkj2I177bqPcIn036bUWsGumF6Y5NLnxqvI7REKU9BcQiQhBkZmaFLStJH4+qTL9wn1hHREnyYrZqNDLy20mr3MiUZFuLb0M/tc6Wfz+1/ZUIvdfwxP/AJS7/bMB4wAAAAAAAAAAAAAAAAAAAAAAAAAAAAAAAAAAAAAAAAAAAAAAAAAAAAAAAAAAAAAAAAAAAAAAAAAAAAAAAAAAAAAAAAAAAAAAAAAAAAAAAAAAAAAAAAAAAAAAAAAAAAAAAAAAAAAAAAAAAAAAAAAAAAAAAAAAAAAAAAAAABUNHdLsf1CxLVO+uplgzIwjEzvq9MVxCUOyPWR2eLxKQo1I4vKPZJpPci87bkejYdURshy6koJq3UR7KyjQ3VNGRLShx1KFGkzIyI9jPbcj/wCQDEAN510wap0x1nzjTqhkS5FbjV/OqojsxaVvraZeUhKnDQlKTUZJLcySRb/Qhq9ljeRU9dWXFvQWMGBdNLfrZUmK40zNbQs0LWytRElxKVkaTNJmRGRkfkBjgGxJ031EVkrOFpwLIzyCQ02+zUlVP+scaWgnELSxx5mlSDJRGRbGkyMvA+GWYPmuBWKafOsPu8cnqR3ExbavdhvGj25Eh1KVbfv2AYQBtd1pLqrjeOs5fkWmeV1dFIJJs2k2mksRHCV+Hi8tBIPfcttj8j41+mOpNvUN5BVae5LMq3YUqyROj1L7kdcSMrjJfJxKDSbTSvC178UH4UZGA1oWDD8+xKr6XtRtOp9t2shvskoJ9fD7Dqu8xGRLJ5fcJJoTxN1vwpRGfLwR7HtHxt9HjtPO01yjJJWN5fKsayXXtRbOCyhVNDQ6pwnETVmg1JcXxLtESk7mle5H9A2jpSzjF9NeovAc7zW0+HUVLbtyp0rsOPdlokqI1cG0qWr3LwlJmJjZvNyLKXIZVybdfcWg9ttyNRmRil6QaB5pneZYEWR4Nl0PB8ryWrpZF+xWOtxiZky22Fm1JW2pnnss+JnyLlt4P2Go6o4xAwnUzLsMqnpDsKgvZ9ZGckKSp1bTEhbaDWaSIjUaUluZERb77EXsAz0fqE1kh5vQajwc5lRMjxirjUlXOjMMtKYgsNdppg0oQSHEk2ZpPmlRqI/m5D3Zf1P65Z3jtziGTZuUijvyilPrWKuHFjKOO6bzSkNstISyruKNSlNkk1+CWaiIiL0W2kWP4jofjed5dOsU5XqBPWrGq1haEMx6lhztvTZSVINazdd+RlCTQWza1mpRbJFL1S6XumrR3PrfTXNurK7Yu6NxDUxtjTZ11tKlNpcLZZTtj+VaQEx6Us4xfTXqLwHO81tPh1FS27cqdK7Dj3ZaJKiNXBtKlq9y8JSZiY2bzciylyGVcm3X3FoPbbcjUZkYrUXQnF8gwPWHUjC9Sn7Wk0u+CKhuP0ZxXLlFhLKOZmg3lHG7Z7nt95y2/i77jwytDCxnRhnVrUXKvs9KyBRfZDHyg9+bdMkezste7iPTRS9kumSzcVuSU7fMYSoBsumGGfrH1KxLTz4l8O+1F5ApfWdnvem9TIQz3e3yTz48+XHknfbbcvcf5qXh36u9R8q0/wDiPxD7M3c6n9X2e16j0z62u5w5K4cuG/Hke2+25+4DWwFY1h6e77TXUus0xxmRPzGytaStuGEQapZPrOXHS92ksoU4pRoJW3Ij87b7F7DRMuwLOdP5zdZnmF3uNzHkdxuPb1z0N1aN9uRJdSkzL9+wDBANrs9JdVaXGWs1uNM8rgY88lK27aTTSWoS0q/CaX1IJBke5bbH53Hyp9MdSL2BGuabTzJrGulMypTMqJVPuMvMRTSUpxDiUGk0tc0E4otyRyTy23IBrICqa36UUGFV2H6hafTrCdg+fVhzKtywWhcqHLYUTU2C+tCUJW4075JSUJJSHGz2Lcx8+nzS7H9WMkyWnyKZYR2abDrzIWFQnEIUqTCiLeaSo1oURtmpJEoiIjMvYyPyAl4AAAAAAAAAAAAAAAAAAAAAAAAAAAAAAAAAAAAAAAAAAAAAAAAAAAAAAAAAAAAAAAAAAAAAAAAAAAAAAAAAAAAAAAAAAAAAAAAAAAAAAAAAAAAAAAAAAAAAAAAAAAAAAAAAAAAAAAAAAAAAAAAAAAAAOgOmL/hv1Cf1cH/mcISTTH/iTif8+QP8Qgb3oTn2JYbhOsdRklt6OXlWFHUVDfYdc9TL9fFd7e6EmSPkaWfJZpT4233MiOd4LZQqbN8et7J7sxINrEkyHOJq4NoeSpStiIzPYiM9iIzAb/1dftS6tf0yt/8AFODcuolC3enHpocbQakLxy8bSoi3I1ptnd0l+8ty8fvE26jMsx/PNfNQ81xSf66mvcmsbCvk9pbXejuyFrQvg4SVp3SZHsoiMvqRD6Yl1GayYPicfB8bzAmaaC+7KgMSK6JLXXPOHutyI6+0tyKszLlyZUg+Xn38gOvdYtQnNIeofUaLleF5e/jtvp3jWP5Fb40o49lQEuHDNDiXlJNtHNxvtm24aSc9t/Gx4/THDKbKM50CydjWa21C0ic1BdqYlflVcUefUW/ZbfKKvktwnW3DJg/kc7Zn44kZnvy3G6nddoebydRWNQZRX06sYp5j6okdTUyEy2httl9g2zZeIkto/GhRmZbmZnuYxeoGvGrWqDtS5mWYvvt0S1O1caHHYgRoTijJRuMsRUNttrMySZrSkleC8+CAdWt9QGI02qWpMFOmOuWXXs+JeVuTU1nljM+Epji4iQ49GRBI0tsmXNJkZE3wLyRFsJ3qxmmT0PQ90+Y1R3Uyvg3TuXKsm4zym/VpasSS225xMuSCJ975T8HzPwJtlPVp1C5nj0/GMi1Gffh20dMSydagRI8uwYIiLtyZTTSX30mRERk44ojL33GpfbLKM6qML0syTL4cLG8blSGKlybHJEerTNfSuS64tlpTy0cyJZ7k4oiSZIL6GGnjo7SRLKui3XFMhZpaPJMQJai9yT3Ze5/9Bq/+j/gn/my0i/6Xv/xo1zJrm900pr7SHFtUaHJ8WyVcGfaO0sdxUaS/HNw2S7kqO0+hTZrXuSSSk+Rb8tvAdj51mGplN+lFxnCcVuLVjH6++x2prKiM+v0KKL08Y1pbaI+Btdk3HN9tiURq9y3LjPqB/wCPWpP9L7j/ABro2av6w+pGqqaSmhanSUNY6mO3WvrgRFy2WmFpW0ycpTRvrZI0p3aWs0GRcTSafAlWQ31tlV/ZZPfSvVWdxMenzX+2lHdfdWa3F8UESU7qUZ7JIiLfwREA6G6x/usw0bgxvFbG0qxMq/bwk2lMqWpRF+ZuKcM/37ir9bEvpAb6o89RqLQ6xP5GUyP69ykt6tmEpfpWePaQ9GW4RceO/JR+d/psOfcz1JxPUvQbDYt3ceg1C0yM6OEhyO6tN1RuOKdYJLiUmhtyK4pxPFw0kptwjI1KSaRN9Q9Q8w1WzOz1Bz63+KX9y4h2bL9O0x3VJQlCT4NJShPyoSXypL2/MB1b00ZHpTi+inVBk7OEWeR4VXniUiHR3c1tL8kitF+nRKdZQSVJJ7tm4SElyQSkltvuWm9XFK5q1HidXOCWk22xDJlNV1lAfWTj2I2TbZF8NWSSIkxtvLCyIiNJkRkStjVBqHUfM8Yw7KcAo7n01DmiYSLyJ6dpfqyiPd6P86kmtvi583yKTv7K3LwPThOq+f6d1OR0GJX3pavLoHw26gvRWJUeYwR7p5NvIWklpPc0OJIloMz4qLcwGU6d7SBSdQGmV1aSUR4VfmNLKkvOHsltpE1pS1GZ+xERGf8A7DO9UmJ5JXdU+pmOyaWYVlNzKzdixUsqNyQiRLccYU2ki3UTiHEGnYvJKLYSEW6m61+qKgpIlBW6tz+xAj+kiSJEKJImx2dtiQ3LdaVIQRF4LZwtvoA6T1c1QRpN1M5qxbYnkltTs6Y02G5ZYYw92p+PGuNE5PNyOKm21E4lDZks0pUauJnv4PC4Vh9DltnorktdrTd55o8rVOJSvU2X1yWJ1TavIQ6TC1GtxLrLrbaeXbWTe/unczMclYVrJqhp5lk7OMSzSwiXdoh1uxlOqTJ9eh1XJxMhDxLQ+SlbKMnCURmRH7j26ia9as6qMVsPNcuXIh07qn4EKHDj18SM8r3dQxFbbaJw9vx8eX7wHX8nX/EcZ6is+jL0x1yzHInXr2sv6CXljMyBMikh5EhK4aIPImG0EbiCJWyCbQe+xeZPnea5PjnQdo1R0N1Mr41zkOU+t9K8ppT6G3GCJtSkmRm2ZumZoP5TNKTMjNJbTi/6ueonJ8fm41d6lSX41nDKvnyUQYjU+bG2JPafmoaKS8gyIiMluKIy8HuNDs9QcvvcLoNOLW5J3HcZky5NXEOO0kozspSDfVzSnuL5G2g9lKURbfKRbnuFosf9Z/R7Ur0/5noWr02PXGv3THXUMreSn8k9wkH4+pn+Q8nRd/36zv8Aqxy3/LXBhddtRcRmYhgmiWmVqdpi2CQ3pEi17DjBW9zMNLkuQlt1KXEtI4tstktJK4tGZkXIfHpiz7EtPMsyyzzC2+HxrPBMipoq+w673JkqEtphvZtKjLktRFyPZJb7mZF5AR8AAAAAAAAAAAAAAAAAAAAAAAAAAAAAAAAAAAAAAAAAAAAAAAAAAAAAAAAAAAAAAAAAAAAAAAAAAAAAAAAAAAAAAAAAAAAAAAAAAAAAAAAAAAAAAAAAAAAAAAAAAAAAAAAAAAAAAAAAAAAAAAAAAAAAAAAAAAAAAAFQz3S7H8W0K0q1Or5lg5aZy/ftWLLziDjtFBkMttdlJIJSTNLqjVyUrcyLbj7G0N0ux/UyFqXIvplgwrDMDsMogFEcQknJbEiM2hDvJCt2zJ9e5J4q3JOyi8ke46w/sidO/wDK8y/xsUf50k/wXrz/AFPXX+MgAOfxtdlpJqrT40jNLfTLLIOPOJStFtJpZLUNSVbcTJ9SCQZHuW3nzuQ/zSfE7LPNUcQwmnnsQZ9/ewK2NKkNk42w68+hCXFIPwokmojNP122+o7/ANJMmxfLepTUrCWrjWDMbWLQ5JXZJa393FKoloZjOsrNdY1G+7bN0kk2nvFxM0ePBpAfz8x7S7UzLWoL+Kad5PdNWjjzMFdfUSJKZS2SSbyWjbQfM0EtBqJO5p5J323IeiHo/q1YHcFA0uy6SePKNFv2aSSv4coi3MpGyPuTIvOy9vAuV/lWQ0HQDp/XUlvKgNWOf3SpJxnVNLdJpiOaEmpJkZp5K5cfY1JSe26SMrRmOpOcyOujp2aVk9ihuRU4WqQhEhSUyFy2WikuOER7LW4lXFSlbmaUpSZ7JIiDhPEcEzfP7BdTgeG3mSTm0dxcaornpjqUf+I0NJUZF+/YfRGneoDmXJ0/bwbIVZQtztJpCrHznqXxNXEo/HuGfEjPbj7FuOqNUZthgfSlfL03lyKhu01qu4GRP1zimVmlhneFFcWjY+0STWtKDPjy3PbcVfRaxnX2cdEOX5lMel5dPbyeHLmTFmqVIrWHnUV5uKV8ykkSnkoM/ciAfzyqMayPICsVUOP2VkVRDcsbA4cRx70cRs0pW+9wI+22k1pI1q2SRqLc/JDPU+jWr+QuMNUGlWYWa5Ne3bMJh0cp43YK1KSiSkkIPkypTbhE4XymaFER+DFo6Rq2ems6jJqojpMRdI7uM+s0ns26uVFNKFfkZk25sX/pP8hkuqDP8zx/T3pxqKDJLCsjQtOIFq0mJIUyZSjlyEk6ZpMt1JJtPEz/AA7q225HuEo0j6bNVdZo+YSMRxS5fLDax6bJQzVyH1PSUONoKCgkJM/UK5qUTf4uLaz28GJhKiyYMl6FNjux5EdxTTzLqDQttaT2UlST8kZGRkZH7D+i2p8iTU9QvWa3UyHYaTwFubxjrNsifX8NWtwiL2UZrWZn7/Mf5j+cy1rcWpxxZqWozUpSj3MzP3MzAU/qd0ux/RbXjL9LsWmWEqqx+Y3HjPWDiFyFpUy2szWpCEJM91n7JLxsJeOgOvv9sHUz+c2f8KyOfwAAAAAAAAAAAAAAAAAAAAAAAAAAAAAAAAAAAAAAAAAAAAAAAAAAAAAAAAAAAAAAAAAAAAAAAAAAAAAAAAAAAAAAAAAAAAAAAAAAAAAAAAAAAAAAAAAAAAAAAAAAAAAAAAAAAAAAAAAAAAAAAAAAAAAAAAAAAAAAAAAAAAAVBvS7H19ML+tRzLD441njOLFH7iPSekVXuSTXx4c+5zQRb8+PHf5d/IdM+l2P6zaz02nWUTLCLW2MO0kOuwHEIfJUaukyWySa0LTsa2UEe6T+Uz22PYyDIak59iV/05aM4HU23fvcUkZM5cROw6n0yZcphcc+akkhfJLaz+RSttvm2PYOnbPsSwWBq2zlVt6FeT6b2dBVF2HXfUT3ZMRbbXyJVw3S04fJWyS4+TLct4+KppBoHmmd5lgRZHg2XQ8HyvJaulkX7FY63GJmTLbYWbUlbameeyz4mfIuW3g/YBMq+wnVM+Na1cx6JMhvIkR5DKzQ4y6hRKStKi8pURkRkZexkLBJ6x+pKVkFblJ6mPMWlXKOc1Ii1kKP35BtLaN2SltlKZSu244jd8lnstRfxj31XKdKb1WsOV6X6bY7f5K7SXdhXxI0OGuZMcYjyFtpWpDKNzPZKdzJJFufsXsNZvsOy7Fbz7MZRitxT3JGlPw6fBdjyd1Hsku0tJL8/Tx5AZnKtXNQM0x1rEsiumX6di4mXzUNmvjRm250rj33E9ptJpJXBOyC+RO3ypSPRK1t1Pm53jmpcrJueSYkzXsU030UcvSogkkopdsm+2vgSE+VpUatvm5DwZXpTqjgcGPaZxptlOOw5auMeRbU8iI08rbfZC3UJJR7EZ+DH5r9LtTLbF3s4qtOsnmY5GJRvXEeokOQmyT+Lk+lBtltse+5+NgGdw7qE1fwKzv7TGMvNlWUyDl3MaTAiy4c541mvuORX21sGolKUZHw3Tue2xDxZFrbqvleewNT73ObJ/J6k2DrrBtSWVQSZPdpDCGyShlCT3MkISSS3Px5MY2j0x1KyeFHssb09yW1iSykHHkQql99p0o5JN80rQgyV2yWg17H8pKTvtuQzeSadSZCcYj4Jp7qB6ydi6buxRZV5uFK4KdN6bCJpsjOASEFs4rlsaHN1bF4DOW/Vhr5dx7qJMzdhqPklfJrLdiHSV8RqczINJuqeQywlK3VcS++Mu6W6iJZclb6Ll2oeYZ3Dx6BlVv65jFalujqEenaa9NCQta0tbtpSa9lOLPkvkrz77EQ+uQ6W6m4lXQLfK9OcopYNqpKIEqwqJEZmUoy3ImluIJLhmXkuJmKvP6T8602zLT6JqvppqJY0uYwWJj0XHKZ1Fkl91DyvQNG80pBy0JaJa2zSakpM9yLbcBqcXqe1zhanXesUfOTLLMkhnX20xVbEU1NjG22g2nIxtGwpPFlrx2/dBH7+RNbKwl21jKtZ7iVyZry5DyktpQSnFqNSjJKSJKS3M/BERF9CGZxXT3O8/spFXp/g+Q5HKjEa3I1VWvTHmkb7Ea0tJUZf8zIfNvAc6dyV/DGsLvl5BGS6t+pTWvHMaS22bjhqZ480kltKlqMy8JIzPwW4Ch9XmfYlqj1IZzn2C23xOhuJzb0KX2HWe6gmG0GfB1KVp+ZKi+ZJewj42S80z1Hxmhh5Vkmn+SVNLY8fR2U6qfYiyeRbp7bq0Ehe5EZlsZ7kPZo3h9ZqHq9g+AXT8pmvybJKynluxVJS8hmRKbaWps1JUklklZmRmky323I/YBp4DYNRMehYlqBk2KVrr7kSluJtfHW+ojcU2y+ttJrMiIjUZJLfYiLf6ENfAAAAAAAAAAAAAAAAAAAAAAAAAAAAAAAAAAAAAAAAAAAAAAAAAAAAAAAAAAAAAAAAAAAAAAAAAAAAAAAAAAAAAAAAAAAAAAAAAAAAAAAAAAAAAAAAAAAAAAAAAAAAAAAAAAAAAAAAAAAAAAAAAAAAAAAAAAAAAAAAAdAs/sBTP64Y3+SvD/Ogz9qTF/5syH/ACScNfaz7Ek9IMnS47b/ALTuaksX6YPYd8wE1brBu9zj2/8AaKSnjy5ed9tvIdJGfYlpjr3Q5rnFt8NpoUG5Zfk9h17gt+rlMNFwaSpZ8nXW0+C8ctz2IjMgkUdLKn20yFmlo1pJai9yTv5P/oP6D51mGplN+lFxnCcVuLVjH6++x2prKiM+v0KKL08Y1pbaI+Btdk3HN9tiURq9y3L+eoslf1h9SNVU0lNC1Okoax1MdutfXAiLlstMLStpk5SmjfWyRpTu0tZoMi4mk0+AHUBWeD4ho51EZbcQMuffk61yK28Xidw1WTkVu76oxOvLZd/1c5ClkaCSXJfDz4Mj1BnqLUm20HyTBNA9RchPBbS0l00zJJx2kq6hERHJisSGoqOZRjJS0nsvsme5kReBzZinUDq/hOWZDmuM5m7Es8sddevCVEjvRbFTjinF96K42phZc1qMiNvZPI+JFuP9yDqE1nyfNKXUG11AsSvcbSlFNIiE3ERXJSe/GOywlDTST3PdKUkStz3IwF2vkVGp2kWp19oVrtqDKr4cSPcZZhecsIkOPRSlo4vszErW24tt1SD3NLbii38n5SewdSWea24J1fUWJ6B2903BqqeghYLTwDU5Dkwna1j5UR/9k6hxxT3LkkyM+W/sOeM56ntcdRccl4llGapVUWDiHZ0SBVwq5M1aFcknIOKy2b+yvmLuGryRH7+R6aDqy6h8XxKLhNHqZNjVsCIuBCX6WMuZDjKIyNliYps5DKNjMiS24kiLwWwCsZnmOa4l0MYnUQLCRRyrTUbIWbREBfplGTbTBqj/AHe2zXM9zbL5TNtB7fKW130ldtWNYNB36Jjv2TfTnKXDa4Evm+RWBtp4n+LdWxbfUfz4naiZjZ4JWaaTrju43T2Ei0hQvTtF2pT6Updc7hJ7iuRISWylGRbeCLcxbOnTqOfpNRYd7qxmzkWDjWnlviOPyG4RkqKlcZ4ojBemb5mfeeVs4vcy5fMoiItgy+guSZRlugHUlHzq9s7SnZx6vtFOWElx4mrj4g2UdwlLM+LqzNwjMvKiLY99hccXs7KV1mdI7MqwkvNL0xxmQpDjqlJU6qulclmRn5Uf1P3HGmddSmtmpOKfYjMc4cl0ipKZj8ViDFierkJL5XZK2G0LkrL35Oms9/O+/keyp6qteqSNhkavzsklp8tKsbddqoTz0AktuNpQTrjJrcbSh5wktuKUguXgi2LYKfk91d4h0M4ZIwC0mVrN9qBdllMmA8ppbstlpr0bLy0GRmkmTWtKDPbf5tt/I6C0ktrGw1H6Vs6yt05mazdOctVYvzS7j8qExHnpr1vctzcJTXLZSt+RfUxwpp1rxqtpTHsoGEZSUWBcOJenV8uBGnwn3U/hcVGktuNcy38L48i/Mej/AEiNZz1LTq+7nct/LURHYDdg+wy6TUZxhbCmW2VoNptvtOLSSUoIk8jNJEfkBW9DMtyjNdDOphrLshsblMrG6+2d9dJW9ymItGTS98xn8/zH59/IlXS/+0tpL/Tqh/zBkatjOoeYYdR5JjeOXHo67LoSK65Z9O056qOh1LqUclpNSNloSe6DSfjbfbwMtoPktJhmuOneYZLN9HUUWV1FlYSO2tzsxmZjTjq+CCNStkJUeySMz22IjMB8tbP+M2e/0ntP8W4NLGz6o3NbkepmXZDTSfUV9pez5sR7gpHcZckLWhXFREot0qI9jIjL6kNYAAAAAAAAAAAAAAAAAAAAAAAAAAAAAAAAAAAAAAAAAAAAAAAAAAAAAAAAAAAAAAAAAAAAAAAAAAAAAAAAAAAAAAAAAAAAAAAAAAAAAAAAAAAAAAAAAAAAAAAAAAAAAAAAAAAAAAAAAAAAAAAAAAAAAAAAAAAAABUKvS7H5vTVf6yOzLArqqzGvx5lhLiPSqjPxJDy1KTw5m4SmUkRksi2M9yM9jKXjoDH/wBhHMv6zqX/AC2aJHp9k+PYjkSLjJ8Aq8xgpZW2dXZSZLDKlK9l8o7jbm6foXLbz5IwHnyXCcnxCHQz8irPSMZPVpuapfebc9RDU86yTmyFGaPvGHU8VbK+XfbYyM8GOxOpHVnTJOA6VRT6b8RU9c6bE5XyDtLTnTJXY2LaUMF6niskLSp0jdJZmpZkZmkiIobcRul1ODQXKC51SXmRtw/XMzKyuTWJWZo9V2nEPm6ZEXc7fJBbmSeXHc9gloCwZDF6Qk29CnFL3WFyrVLUV6qwqatEhuNwPicUm5Kkrc57bks0lx387+B9DidHX2yS2V9rJ9k/hhmp06ir+I/Ee6WySR6ntdjtbmauXPnsW23kBGwFgoovSEq+v05Ne6wt0qX2SoVwKmrXKcZ7Zd05SVySQhfc34k2aiNPkzI/A8lJG6WVYlZLyO61VbyglTPhzcKsrlwFJI1el7y1yCcSZlw7nFJ7fNx5eAEqAVK4jdLqcGguUFzqkvMjbh+uZmVlcmsSszR6rtOIfN0yIu52+SC3Mk8uO57e7IYvSEm3oU4pe6wuVapaivVWFTVokNxuB8Tik3JUlbnPbclmkuO/nfwAj4CyHE6Ovtklsr7WT7J/DDNTp1FX8R+I90tkkj1Pa7Ha3M1cufPYttvI+dFF6QlX1+nJr3WFulS+yVCuBU1a5TjPbLunKSuSSEL7m/EmzURp8mZH4AR8BVYMbpZPB7FyyutVU5iTc74eyxWVx1ilkpz0fecVIJ1JGntd3igzIzXx5bFv+LiN0upwaC5QXOqS8yNuH65mZWVyaxKzNHqu04h83TIi7nb5ILcyTy47nsEtAWS6idHSbqjTj19rIuoVIdK8XNqKtElDHaV2zjJRJNK193gSiWaSJHIyMz2IfMovSF9ujbO91g+xvwklE98Jq/ifxPvHunt+p7Xp+zsfLnz57lx28gI+AsFFF6QlX1+nJr3WFulS+yVCuBU1a5TjPbLunKSuSSEL7m/EmzURp8mZH4Hkgxulk8HsXLK61VTmJNzvh7LFZXHWKWSnPR95xUgnUkae13eKDMjNfHlsW4SoZyDhOT2WH22fQqzuUNHMiV8+X3my7MiSl1TCOBq5q5Ew75SkyLj5Mty33S8b6ZY+BQ5WK2GpcvOENRFyYlpXwG6dT26PUpS60+b/AA/2hIPgSj+Xfj526AxHWXSh/ph1HuWelvCo8CJlGNsv1aLe3NiW441Ymh1azlG4lTZIWSSSoiPuK5Eeydg4vAZTKbasvcin3FNjcPH4Mt43GKyI664zEQfs2hTqlOGRfmpRn+8YsAAAAAAAAAAAAAAAAAAAAAAAAAAAAAAAAAAAAAAAAAAAAAAAAAAAAAAAAAAAAAAAAAAAAAAAAAAAAAAAAAAAAAAAAAAAAAAAAAAAAAAAAAAAAAAAAAAAAAAAAAAAAAAAAAAAAAAAAAAAAAAAAAAAAAAAAAAWCnz7EovSZkumb9txyWwzuruY0LsOnzhswpTTjncJPbLZbqC4molHvuRGRGZR8B94EGVaT41ZBa7smW8hhlHIk8lqUSUluexFuZl5PwA+ADKZXi97hGT2+GZPB9FcUU5+tsI3dQ52ZLLhtuI5oM0K2Uky3SZke3gzIYsAAAAAAAAAAAAAAAAAAAAAAAAAGcXhOTowhrUddZtjr9q5SNzO835moZQ8prt8u54bcQrlx4+dt9yMhgwAAAAAAAAAAAAAAAAAAAAAAAAAAAAAAAAAAAAAAAAAAAAAAAAAAAAAAAAAAAAAAAAAAAAAAAAAAAAAAAAAAAAAAAAAAAAAAAAAAAAAAAAAAAAAAAAAAAAAAAAAAAAAAAAAAAAAAAAAAAAAAAAAAAAAAAAAAAAABWdAdQMIxHIa+tyfRjHsxlTbiIcafZTp7DsIuaS2QmO82hXn5vnI/Jfl4EmAB1B1W59pNfdQebYnb6O1+OtwtQbBN3ktHKlyLaZGbmPIkKSzJkem7jm5r2JKE8iIiNKdxP7GL0hFl1QipvdYVYupiSdu7IqatM9D2xdgo6EyTbUgz5czWpJkW2xH5EfABYIUXpCPMbJFje6wpxQojB1rrNTVnYKk7n3ieQckm0tkXHiaVGZ+dyIKKL0gqau/tNe6wtupsJBUpQKmrWlcHinsKk85JcXjVz5pRySRcdjPyI+ACmNx+mj9WZuvW+ppahelUZR011f8G9TyPYu73+/2+O259vff6bDJZNF6RkIo/sbeavOrVaxyu/idVWNkit2V31Ru3IVyfI+HBK+KDLluovAkIALBYxekIsuqEVN7rCrF1MSTt3ZFTVpnoe2LsFHQmSbakGfLma1JMi22I/I+kCJ0dHlNqizvtZE42UeMdU4xUVZzlv8Az+oJ9CpJNpQX3fA0qMz3VyIti3jYAK5jcXpJXHvDy+81dafTZyioyraqscQuu8emVJNyQk0vn57iUckF44qMY9uP00fqzN1631NLUL0qjKOmur/g3qeR7F3e/wB/t8dtz7e+/wBNhMwAV7JovSMhFH9jbzV51arWOV38TqqxskVuyu+qN25CuT5Hw4JXxQZct1F4H6sYvSEWXVCKm91hVi6mJJ27sipq0z0PbF2CjoTJNtSDPlzNakmRbbEfkR8AFkgROjo8ptUWd9rInGyjxjqnGKirOct/5/UE+hUkm0oL7vgaVGZ7q5EWxb+fG4vSSuPeHl95q60+mzlFRlW1VY4hdd49MqSbkhJpfPz3Eo5ILxxUYkYAKZKj9NBaZpdhW+pp6helbM47tdXlTep5FzInSf7/AG+PLY+3vvtuWw9+WSOlukYpLfTFOouQ2cS1jP2VXl0GHErpcJJKU613IchTxGpRIT44/IpZkolEQkgAO0JOsulBdJdden0t4UquXqLMiJqDt7fsIeKsjKOSS/VdzmaVEg0mrhskjIt9zPjm1lxp9pMnQq5mvjyH3HWojKlKbjoUozS2k1majSkjIiNRmexeTMx5QAAAAAAAAAAAAAAAAAAAAAAAAAAAAAAAAAAAAAAAAAAAAAAAAAAAAAAAAAAAAAAAAAAAAAAAAAAAAAAAAAAAAAAAAAAAAAAAAAAAAAAAAAAAAAAAAAAAAAAAAAAAAAAAAAAAAAAAAAAAAAAAAAAAAAAAAAAAAAAAAAAAAAAAAAAAAAAAAAAAAAAAAAAAAAAAAAAAAAAAAAAAAAAAAAAAAAAAAAAAAAAAAAAAAAAAAAAAAAAAAAAAAAAAAAAAAAAAAAAAAAAAAAAAAAAAAAAAAAAAAAAAAAAAAAAAAAAAAAAAAAAAAAAAAAAAAAAAAAAAAAAAAAAAAAAAAAAAAAAAAAAAAAAAAAAAAAAAAAAAAAAAAAAAAAAAAAAAAAAAAAAAAAAAAAAAAAAAAAAAAAAAAAAAAAAAAAAAAAAAAAAAAAAAAAAAAAAAAAAAAAAAAAAAAAAAAAAAAAAAAAAAAAAAAAAAAAAAAAAAAAAAAAAAAAAAAAAAAAAAAAAAAAAAAAAAAAAAAAAAAAAAAAAAAAAAAAAAAAAAAAAAAAAAAAAAAAAAAAAAAAAAAAAAAAAAAAAAAAAAAAAAAAAAAAAAAAAAAAAAAAAAAAAAAAAAAAAAAAAAAAAAAAAAAAAAAAAAAAAAAAAAAAAAAAAAf//Z;" vertex="1" parent="1">
                    <mxGeometry width="900" height="1660" as="geometry"/>
                </mxCell>
            </root>
        </mxGraphModel>
    </diagram>
</mxfile>